<svg width="22" height="22" viewBox="0 0 22 22" fill="none" xmlns="http://www.w3.org/2000/svg">
<path d="M10.3493 14.4008C10.4365 14.4843 10.5393 14.5497 10.6518 14.5933C10.875 14.685 11.1253 14.685 11.3485 14.5933C11.461 14.5497 11.5638 14.4843 11.651 14.4008L14.401 11.6508C14.5736 11.4782 14.6706 11.2441 14.6706 11C14.6706 10.7559 14.5736 10.5218 14.401 10.3492C14.2284 10.1766 13.9943 10.0796 13.7502 10.0796C13.5061 10.0796 13.2719 10.1766 13.0993 10.3492L11.9168 11.5408V8.25C11.9168 8.00688 11.8203 7.77373 11.6483 7.60182C11.4764 7.42991 11.2433 7.33333 11.0002 7.33333C10.757 7.33333 10.5239 7.42991 10.352 7.60182C10.1801 7.77373 10.0835 8.00688 10.0835 8.25V11.5408L8.901 10.3492C8.81578 10.2632 8.7144 10.1951 8.60269 10.1485C8.49099 10.102 8.37117 10.078 8.25016 10.078C8.12915 10.078 8.00934 10.102 7.89763 10.1485C7.78593 10.1951 7.68455 10.2632 7.59933 10.3492C7.51341 10.4344 7.44522 10.5358 7.39868 10.6475C7.35214 10.7592 7.32818 10.879 7.32818 11C7.32818 11.121 7.35214 11.2408 7.39868 11.3525C7.44522 11.4642 7.51341 11.5656 7.59933 11.6508L10.3493 14.4008ZM11.0002 20.1667C12.8132 20.1667 14.5854 19.629 16.0929 18.6218C17.6003 17.6146 18.7753 16.1829 19.4691 14.5079C20.1629 12.8329 20.3444 10.9898 19.9907 9.21167C19.637 7.43351 18.764 5.80017 17.482 4.51819C16.2 3.23621 14.5666 2.36317 12.7885 2.00947C11.0103 1.65577 9.16722 1.8373 7.49223 2.5311C5.81724 3.22491 4.3856 4.39982 3.37836 5.90727C2.37111 7.41472 1.8335 9.187 1.8335 11C1.8335 13.4312 2.79927 15.7627 4.51835 17.4818C5.36955 18.333 6.38008 19.0082 7.49223 19.4689C8.60438 19.9296 9.79638 20.1667 11.0002 20.1667V20.1667ZM11.0002 3.66667C12.4506 3.66667 13.8684 4.09676 15.0743 4.90256C16.2803 5.70835 17.2202 6.85366 17.7753 8.19365C18.3303 9.53365 18.4755 11.0081 18.1926 12.4307C17.9096 13.8532 17.2112 15.1599 16.1856 16.1854C15.16 17.211 13.8534 17.9095 12.4308 18.1924C11.0083 18.4754 9.53381 18.3302 8.19382 17.7751C6.85383 17.2201 5.70852 16.2801 4.90272 15.0742C4.09692 13.8682 3.66683 12.4504 3.66683 11C3.66683 9.05508 4.43945 7.18982 5.81471 5.81455C7.18998 4.43928 9.05524 3.66667 11.0002 3.66667V3.66667Z" fill="#812A39"/>
</svg>
