<svg width="217" height="226" viewBox="0 0 217 226" fill="none" xmlns="http://www.w3.org/2000/svg">
<path d="M123.317 182.029H57.7928C51.2557 182.029 45.9561 176.73 45.9561 170.192V11.8367C45.9561 5.2996 51.2557 -3.8147e-06 57.7928 -3.8147e-06H123.317C129.854 -3.8147e-06 135.154 5.2996 135.154 11.8367V170.192C135.154 176.73 129.854 182.029 123.317 182.029Z" fill="#0234C1"/>
<path d="M123.317 182.029H57.7928C51.2557 182.029 45.9561 176.73 45.9561 170.192V11.8367C45.9561 5.2996 51.2557 -3.8147e-06 57.7928 -3.8147e-06H123.317C129.854 -3.8147e-06 135.154 5.2996 135.154 11.8367V170.192C135.154 176.73 129.854 182.029 123.317 182.029Z" fill="#0234C1"/>
<path d="M123.317 182.029H57.7928C51.2557 182.029 45.9561 176.73 45.9561 170.192V11.8368C45.9561 5.29962 51.2557 -3.8147e-06 57.7928 -3.8147e-06H123.317C129.854 -3.8147e-06 135.154 5.29962 135.154 11.8368V170.192C135.154 176.73 129.854 182.029 123.317 182.029Z" fill="#812A39"/>
<path d="M121.339 178.838H59.7687C53.5307 178.838 48.4736 173.781 48.4736 167.542V14.4861C48.4736 8.24811 53.5307 3.19107 59.7687 3.19107H121.339C127.577 3.19107 132.634 8.24811 132.634 14.4861V167.542C132.634 173.781 127.577 178.838 121.339 178.838Z" fill="white"/>
<path d="M113.974 16.3475H112.774V14.6628H113.974V16.3475Z" fill="#BDCED6"/>
<path d="M117.54 16.3475H116.341V12.9805H117.54V16.3475Z" fill="#BDCED6"/>
<path d="M119.688 16.3475H118.487V11.9886H119.688V16.3475Z" fill="#BDCED6"/>
<path d="M115.692 16.3475H114.492V13.8709H115.692V16.3475Z" fill="#BDCED6"/>
<path d="M123.376 80.0497C123.376 88.8279 120.102 96.8327 114.695 102.923C108.38 110.057 99.1506 114.555 88.8706 114.555C79.6569 114.555 71.284 110.942 65.0964 105.055C58.4887 98.77 54.3662 89.8872 54.3662 80.0497C54.3662 60.9916 69.8125 45.5376 88.8706 45.5376C107.93 45.5376 123.376 60.9916 123.376 80.0497Z" fill="#812A39" fill-opacity="0.1"/>
<path d="M95.291 94.5653C95.05 94.5429 94.8098 94.5196 94.5696 94.5049C94.3394 94.4855 94.1 94.4786 93.8667 94.4631V85.4276H84.1122V94.6668C83.7766 94.7017 83.4256 94.7195 83.0955 94.7606C82.7429 94.8125 82.3903 94.8583 82.0369 94.9102C81.4891 95.2635 81.1807 95.6688 81.1807 96.0966C81.1807 96.2547 81.2256 96.405 81.3085 96.5553L81.4813 96.8025L81.6991 97.0203L88.9608 104.282L96.0341 97.2163C96.3123 97.028 96.5223 96.818 96.6494 96.6003C96.7401 96.4422 96.8005 96.2694 96.8005 96.0966C96.8005 95.5193 96.2441 94.9931 95.291 94.5653Z" fill="#FFA187"/>
<path d="M84.1123 90.449C85.5281 91.7392 87.1957 92.4963 88.9896 92.4963C90.7835 92.4963 92.4511 91.7392 93.8669 90.449V85.4276H84.1123V90.449Z" fill="#EF485D"/>
<path d="M98.0823 77.6033C98.0823 85.0068 93.9582 91.0085 88.8701 91.0085C83.7821 91.0085 79.6572 85.0068 79.6572 77.6033C79.6572 70.1999 83.7821 64.1982 88.8701 64.1982C93.9582 64.1982 98.0823 70.1999 98.0823 77.6033Z" fill="#FFA187"/>
<path d="M97.5127 72.4502C97.5127 73.3398 93.5111 74.062 88.5757 74.062C83.6395 74.062 79.6387 73.3398 79.6387 72.4502C79.6387 71.5598 83.6395 70.8376 88.5757 70.8376C93.5111 70.8376 97.5127 71.5598 97.5127 72.4502Z" fill="#573E28"/>
<path d="M82.1889 78.1845C82.2292 77.7599 82.2524 77.3151 82.2524 76.8548C82.2524 76.3937 82.2292 75.9497 82.1889 75.5243V72.3006H81.2823C81.0258 71.9132 80.7321 71.6923 80.4206 71.6923C79.4085 71.6923 78.5879 74.0039 78.5879 76.8548C78.5879 79.7057 79.4085 82.0164 80.4206 82.0164C81.1102 82.0164 81.7108 80.9409 82.0238 79.3523H82.1889V78.1845Z" fill="#573E28"/>
<path d="M95.6007 78.1845C95.5604 77.7599 95.5371 77.3151 95.5371 76.8548C95.5371 76.3937 95.5604 75.9497 95.6007 75.5243V72.3006H96.5073C96.7638 71.9132 97.0575 71.6923 97.369 71.6923C98.381 71.6923 99.2017 74.0039 99.2017 76.8548C99.2017 79.7057 98.381 82.0164 97.369 82.0164C96.6793 82.0164 96.0788 80.9409 95.7657 79.3523H95.6007V78.1845Z" fill="#573E28"/>
<path d="M104.517 81.6367L103.705 72.031C103.938 71.8318 104.093 71.5466 104.093 71.2173C104.093 70.8221 103.871 70.492 103.556 70.3029C103.572 70.2487 103.589 70.1937 103.589 70.134V66.2315C103.589 65.9123 103.331 65.6535 103.012 65.6535C102.692 65.6535 102.434 65.9123 102.434 66.2315V70.134C102.434 70.1929 102.451 70.2471 102.468 70.3006C102.15 70.4897 101.927 70.8206 101.927 71.2173C101.927 71.5466 102.082 71.8318 102.314 72.031L101.503 81.6367H104.517Z" fill="#812A39"/>
<path d="M90.3398 71.1189L70.375 65.1048L89.1216 56.3212L107.364 65.1048L90.3398 71.1189Z" fill="#812A39"/>
<path d="M98.5888 66.6841C98.1285 65.4869 93.9549 64.5484 88.8699 64.5484C83.7842 64.5484 79.6105 65.4869 79.1502 66.6841H79.1045V73.1368H98.6353V66.6841H98.5888Z" fill="#A82D42"/>
<path d="M95.2908 94.5654C96.244 94.9931 96.8004 95.5193 96.8004 96.0966C96.8004 96.2694 96.7477 96.4352 96.657 96.5925C96.5299 96.8103 96.3122 97.028 96.034 97.2163L88.9606 104.282L81.6989 97.0203L81.4812 96.8025L81.3084 96.5553C81.2255 96.405 81.1805 96.2547 81.1805 96.0966C81.1805 95.6688 81.4889 95.2635 82.0368 94.9102C72.1846 96.3523 65.1035 100.347 65.0957 105.055C71.2834 110.942 79.6563 114.555 88.8699 114.555C99.1499 114.555 108.379 110.057 114.695 102.923C112.719 98.7406 105.045 95.4364 95.2908 94.5654Z" fill="#812A39"/>
<path d="M88.4925 85.0789C88.1547 85.0789 87.8439 84.9875 87.5836 84.7937C86.5824 84.0529 86.7939 82.1901 88.0741 80.4612C88.2639 80.204 88.6266 80.1497 88.8815 80.3403C89.1388 80.5302 89.1923 80.8921 89.0024 81.1478C88.0656 82.4132 87.9416 83.6213 88.2709 83.8654C88.6018 84.1118 89.72 83.6384 90.6569 82.3737C90.8475 82.1172 91.2094 82.0637 91.4651 82.2528C91.7216 82.4434 91.775 82.8045 91.586 83.0618C90.639 84.3389 89.4519 85.0789 88.4925 85.0789Z" fill="#912039"/>
<path d="M102.361 81.5182C102.427 83.3849 100.967 84.9518 99.1 85.0177C97.2325 85.0835 95.6656 83.6229 95.5998 81.7561C95.5347 79.8893 96.9946 78.3225 98.8614 78.2566C100.729 78.1907 102.295 79.6507 102.361 81.5182Z" fill="#FFA187"/>
<path d="M100.295 83.4996C100.195 83.4996 100.093 83.4733 100 83.4183L98.0993 82.2884C97.9226 82.1838 97.8149 81.9932 97.8164 81.7871C97.818 81.5817 97.9288 81.3927 98.1078 81.2904L99.9319 80.2473C100.208 80.0893 100.561 80.1853 100.72 80.462C100.879 80.7394 100.782 81.092 100.505 81.2508L99.5414 81.8018L100.591 82.4256C100.865 82.5876 100.955 82.9425 100.792 83.2168C100.684 83.3989 100.491 83.4996 100.295 83.4996Z" fill="#912039"/>
<path d="M75.3781 81.5182C75.313 83.3849 76.7729 84.9518 78.6397 85.0177C80.5064 85.0835 82.0733 83.6229 82.1392 81.7561C82.205 79.8893 80.7451 78.3225 78.8776 78.2566C77.0108 78.1907 75.4439 79.6507 75.3781 81.5182Z" fill="#FFA187"/>
<path d="M78.1381 83.4996C77.9405 83.4996 77.7483 83.3989 77.6406 83.2168C77.4779 82.9425 77.5678 82.5876 77.8421 82.4256L78.8913 81.8018L77.9273 81.2508C77.6499 81.092 77.5538 80.7394 77.7127 80.462C77.8708 80.1853 78.2241 80.0893 78.5008 80.2473L80.3249 81.2904C80.5039 81.3927 80.6147 81.5817 80.6163 81.7871C80.6178 81.9932 80.5101 82.1838 80.3342 82.2884L78.4326 83.4183C78.3396 83.4733 78.2381 83.4996 78.1381 83.4996Z" fill="#912039"/>
<path d="M85.0635 77.1516C83.9918 77.1516 83.1193 78.1133 83.1193 79.295C83.1193 80.4775 83.9918 81.4392 85.0635 81.4392C86.1352 81.4392 87.007 80.4775 87.007 79.295C87.007 78.1133 86.1352 77.1516 85.0635 77.1516ZM85.0635 82.5945C83.3548 82.5945 81.9639 81.1145 81.9639 79.295C81.9639 77.4755 83.3548 75.9962 85.0635 75.9962C86.7722 75.9962 88.1624 77.4755 88.1624 79.295C88.1624 81.1145 86.7722 82.5945 85.0635 82.5945Z" fill="#812A39"/>
<path d="M93.0149 77.1516C91.9432 77.1516 91.0706 78.1133 91.0706 79.295C91.0706 80.4775 91.9432 81.4392 93.0149 81.4392C94.0866 81.4392 94.9584 80.4775 94.9584 79.295C94.9584 78.1133 94.0866 77.1516 93.0149 77.1516ZM93.0149 82.5945C91.3054 82.5945 89.916 81.1145 89.916 79.295C89.916 77.4755 91.3054 75.9962 93.0149 75.9962C94.7235 75.9962 96.1137 77.4755 96.1137 79.295C96.1137 81.1145 94.7235 82.5945 93.0149 82.5945Z" fill="#812A39"/>
<path d="M90.355 80.2582C89.4933 80.0505 88.5835 80.0505 87.721 80.2582L87.4521 79.1338C88.4898 78.885 89.587 78.885 90.6254 79.1338L90.355 80.2582Z" fill="#008EF8"/>
<path d="M123.397 14.731L122.905 13.6384C123.967 13.1603 125.179 13.1603 126.236 13.6384L125.739 14.731C125.001 14.3955 124.145 14.3908 123.397 14.731Z" fill="#BDCED6"/>
<path d="M122.008 13.2192L121.516 12.1273C123.458 11.2509 125.685 11.2509 127.623 12.1273L127.131 13.2192C125.506 12.483 123.641 12.483 122.008 13.2192Z" fill="#BDCED6"/>
<path d="M124.564 14.8511C124.012 14.8511 123.426 14.9534 123.556 15.1154L123.628 15.2115L124.564 16.5071L125.524 15.2115L125.596 15.1154C125.735 14.9488 125.14 14.8511 124.564 14.8511Z" fill="#BDCED6"/>
<path d="M107.052 11.4477H73.9974C70.4894 11.4477 67.6455 8.60382 67.6455 5.0958H113.404C113.404 8.60382 110.56 11.4477 107.052 11.4477Z" fill="#812A39"/>
<path d="M87.457 91.0922V70.9941L97.5061 81.0432L87.457 91.0922Z" fill="white"/>
<path d="M72.5165 90.7559C74.2732 87.678 73.2573 83.6849 70.112 81.8731C67.0666 80.118 63.1533 81.2617 61.2493 84.2164L51.2925 99.672C47.5574 105.469 42.9901 110.685 37.737 115.152L34.6102 117.811C30.6706 121.868 28.0801 128.716 28.0801 136.482C28.0801 148.937 34.7373 159.032 42.9498 159.032C51.0205 159.032 57.5739 149.276 57.7979 137.117L60.4078 121.463C61.6004 114.307 63.9073 107.382 67.2433 100.94L72.5165 90.7559Z" fill="#FFA187"/>
<path d="M45.9546 140.033L38.1125 114.784L38.8286 107.976L45.9546 100.63V75.009L16.8513 101.898C14.7405 103.849 13.4363 106.519 13.1984 109.383L9.98633 147.926L21.8999 157.6L45.9546 155.806V140.033Z" fill="#FFA187"/>
<path d="M27.1282 118.237C26.9352 118.237 26.7577 118.109 26.7043 117.913C26.64 117.679 26.7779 117.437 27.0119 117.373L38.3434 114.264C38.5759 114.199 38.8192 114.336 38.8843 114.572C38.9486 114.806 38.8107 115.049 38.5759 115.113L27.2452 118.222C27.2064 118.232 27.1669 118.237 27.1282 118.237Z" fill="#912336"/>
<path d="M29.8234 122.965C29.7041 122.965 29.5848 122.916 29.498 122.821C29.3337 122.641 29.3469 122.363 29.5266 122.199L38.2103 114.286C38.3916 114.122 38.6698 114.134 38.8325 114.315C38.9968 114.494 38.9836 114.773 38.8039 114.936L30.1195 122.85C30.035 122.927 29.9288 122.965 29.8234 122.965Z" fill="#912336"/>
<path d="M60.5344 152.05C60.5344 149.075 46.9836 146.662 30.2672 146.662C13.5509 146.662 0 149.075 0 152.05V179.825C0 176.848 13.5509 174.436 30.2672 174.436C46.9836 174.436 60.5344 176.848 60.5344 179.825H60.7297V152.05H60.5344Z" fill="#DDF1FA"/>
<path d="M30.2672 174.436C13.5509 174.436 0 176.848 0 179.825V226H60.7297V179.825H60.5344C60.5344 176.848 46.9836 174.436 30.2672 174.436Z" fill="#812A39"/>
<path d="M55.9339 161.914C55.9339 164.297 54.002 166.229 51.6192 166.229C49.2356 166.229 47.3037 164.297 47.3037 161.914C47.3037 159.531 49.2356 157.6 51.6192 157.6C54.002 157.6 55.9339 159.531 55.9339 161.914Z" fill="#812A39"/>
<path d="M157.496 98.2857C161.834 102.623 163.103 108.387 160.331 111.159C157.56 113.93 151.797 112.66 147.459 108.322C143.122 103.985 141.852 98.2214 144.624 95.4503C147.396 92.6785 153.159 93.9478 157.496 98.2857Z" fill="#FFA187"/>
<path d="M177.412 114.767C176.932 111.578 175.376 108.649 173.001 106.466L168.882 102.683C167.279 101.21 165.208 100.351 163.034 100.255L158.279 100.045L150.983 102.498C149.165 99.9572 147.252 97.9408 145.328 96.1229C143.016 93.947 140.667 92.0771 138.295 90.3421C135.924 88.6063 133.524 87.0262 131.103 85.5283C128.658 84.0219 126.277 82.6627 123.67 81.2741C122.428 80.3109 120.717 79.9467 119.115 80.4844L100.951 86.5791C98.3953 87.4362 97.0182 90.2041 97.8761 92.7598C98.7339 95.3162 101.501 96.6932 104.057 95.8354L119.088 90.7923C120.176 92.1972 121.269 93.6602 122.286 95.1062C123.767 97.2117 125.172 99.3427 126.435 101.484C127.698 103.619 128.836 105.771 129.712 107.846C130.019 108.562 130.277 109.266 130.507 109.955L128.463 129.121C128.077 132.741 124.401 135.044 120.975 133.811L118.799 133.027C118.629 132.648 118.463 132.268 118.29 131.887C117.425 129.986 116.539 128.09 115.619 126.191C114.697 124.289 113.749 122.392 112.705 120.454C112.179 119.483 111.635 118.506 111.018 117.48C110.703 116.963 110.377 116.439 109.99 115.865C109.603 115.297 109.169 114.668 108.462 113.856C106.394 111.291 102.638 110.888 100.072 112.957C97.5072 115.026 97.105 118.782 99.1733 121.347C99.0849 121.336 99.1888 121.566 99.2934 121.88L99.6584 122.958C99.9156 123.755 100.174 124.635 100.423 125.531C100.922 127.331 101.388 129.222 101.831 131.127C102.274 133.034 102.694 134.965 103.096 136.905C103.494 138.831 103.892 140.818 104.233 142.697L105.716 145.502C106.023 146.079 106.488 146.58 107.094 146.935L107.855 147.379L142.394 177.676L184.196 159.88L177.412 114.767Z" fill="#FFA187"/>
<path d="M150.983 102.937C150.846 102.937 150.711 102.874 150.625 102.754C149.067 100.577 147.34 98.6305 145.025 96.4422C142.972 94.5095 140.751 92.6838 138.035 90.697C137.839 90.5536 137.796 90.2785 137.939 90.0825C138.082 89.8857 138.358 89.8438 138.555 89.9872C141.3 91.995 143.548 93.8439 145.63 95.8021C147.988 98.0307 149.748 100.016 151.341 102.242C151.482 102.439 151.437 102.714 151.239 102.855C151.161 102.911 151.072 102.937 150.983 102.937Z" fill="#912336"/>
<path d="M163.653 105.502C163.533 105.502 163.413 105.454 163.327 105.357L157.17 98.5817C157.006 98.4019 157.02 98.123 157.199 97.9602C157.381 97.7975 157.658 97.8084 157.822 97.9905L163.978 104.765C164.142 104.945 164.129 105.223 163.949 105.387C163.864 105.464 163.758 105.502 163.653 105.502Z" fill="#912336"/>
<path d="M136.514 177.824C135.057 175.229 145.689 166.488 160.263 158.3C174.837 150.113 187.833 145.579 189.29 148.174L202.895 172.389C201.437 169.794 188.44 174.328 173.867 182.515C159.293 190.702 148.66 199.443 150.118 202.038L149.948 202.134L136.345 177.919L136.514 177.824Z" fill="#DDF1FA"/>
<path d="M202.895 172.389C201.437 169.794 188.441 174.328 173.867 182.515C159.293 190.702 148.661 199.443 150.118 202.038L149.948 202.134L149.739 201.762L163.356 226L216.302 196.254L202.895 172.389Z" fill="#812A39"/>
<path d="M145.357 184.169C146.525 186.247 149.155 186.985 151.233 185.818C153.31 184.651 154.049 182.02 152.881 179.943C151.714 177.865 149.084 177.127 147.006 178.294C144.929 179.461 144.19 182.091 145.357 184.169Z" fill="#812A39"/>
</svg>
