<svg width="801" height="674" viewBox="0 0 801 674" fill="none" xmlns="http://www.w3.org/2000/svg">
<path d="M400 43.1362V32.1883C400 14.4109 385.588 0.000231826 367.812 0.000231826H32.188C14.412 0.000231826 0 14.4109 0 32.1883V612.602H800V75.3243C800 57.5469 785.588 43.1362 767.812 43.1362H400" fill="#2E67B9"/>
<path d="M768.448 613.971H32V85.0001H768.448V613.971Z" fill="white"/>
<path d="M388.591 166.266L376.715 199.192H32.188C14.412 199.192 0 213.602 0 231.38V641.193C0 658.97 14.412 673.381 32.188 673.381H767.812C785.588 673.381 800 658.97 800 641.193V177.188C800 159.41 785.588 145 767.812 145H418.869C405.304 145 393.193 153.505 388.591 166.266" fill="#2E5EA4"/>
<path d="M800.051 641.188V374C577.841 590.141 192.416 647.975 9 663.421C14.8587 669.544 23.0946 673.376 32.2386 673.376H767.861C785.639 673.376 800.051 658.964 800.051 641.188Z" fill="#295392"/>
<path d="M307.02 210H34.9907C20.636 210 9 221.637 9 235.992V293.565C54.7573 262.217 158.009 222.729 307.02 210Z" fill="#2E67B9"/>
</svg>
