<svg width="117" height="131" viewBox="0 0 117 131" fill="none" xmlns="http://www.w3.org/2000/svg">
<g opacity="0.12">
<path opacity="0.12" d="M13.668 31.5419C13.7268 27.872 14.5818 24.2581 16.1746 20.9481C17.7674 17.6381 20.0601 14.7103 22.8957 12.3655C28.7109 7.89215 37.3466 6.90385 43.5448 10.8397C45.4252 12.0361 47.027 13.5965 48.9073 14.7756C54.8444 18.486 62.5748 17.7231 69.2605 15.5905C75.9462 13.4578 82.2837 10.1462 89.1958 9.00182C96.1078 7.85747 104.169 9.55665 107.982 15.4344C111.795 21.3122 109.723 29.9641 104.239 34.5068C99.6248 38.3733 92.8346 40.1592 90.31 45.6208C89.3741 48.0581 88.9476 50.66 89.0565 53.2671C88.7779 60.7401 88.7779 68.6291 93.2002 74.6109C95.3985 77.1667 97.8547 79.4907 100.53 81.5463C106.223 86.6265 110.977 93.2325 111.151 101.156C111.24 103.705 110.734 106.24 109.671 108.56C105.649 117.229 96.4908 118.165 88.3774 117.559C82.1444 117.09 75.7895 115.929 69.748 117.559C65.3605 118.72 61.4953 121.269 57.2993 122.968C51.0357 125.481 44.164 126.084 37.5555 124.702C33.5069 123.996 29.7511 122.134 26.7435 119.344C20.702 113.293 20.789 103.532 22.2689 95.0704C23.7488 86.6092 26.1863 77.8706 23.5051 69.7561C22.8273 67.8197 21.9461 65.9599 20.8761 64.2078C15.1783 54.7184 12.6203 43.6854 13.5636 32.6689L13.668 31.5419Z" fill="#AAAAAA"/>
</g>
<path d="M53.8502 74.0808C52.0359 71.8473 48.7471 71.5013 46.5043 73.308C44.2615 75.1147 43.9141 78.3899 45.7283 80.6234L82.9578 126.456C84.772 128.69 88.0609 129.036 90.3037 127.229C92.5464 125.423 92.8939 122.147 91.0796 119.914L53.8502 74.0808Z" fill="#812A39"/>
<path d="M33.5392 119.925C31.7253 122.159 32.0733 125.434 34.3164 127.24C36.5595 129.047 39.8483 128.7 41.6622 126.466L78.8836 80.6268C80.6974 78.393 80.3494 75.1179 78.1063 73.3115C75.8632 71.5052 72.5744 71.8518 70.7606 74.0856L33.5392 119.925Z" fill="#812A39"/>
<path d="M87.0375 130.094C86 130.095 84.9754 129.865 84.0386 129.421C83.1017 128.977 82.2764 128.33 81.6227 127.528L44.3638 81.7196C43.7146 81.0214 43.2167 80.1976 42.901 79.2995C42.5852 78.4014 42.4585 77.4482 42.5285 76.4993C42.5986 75.5503 42.864 74.6258 43.3082 73.7834C43.7525 72.9409 44.366 72.1985 45.1107 71.6023C45.8555 71.0062 46.7154 70.569 47.6371 70.318C48.5587 70.067 49.5224 70.0076 50.4681 70.1434C51.4138 70.2792 52.3214 70.6074 53.1343 71.1075C53.9472 71.6076 54.648 72.2689 55.1932 73.0503L92.4348 118.824C93.0116 119.532 93.4426 120.346 93.7031 121.22C93.9637 122.094 94.0487 123.01 93.9533 123.917C93.8579 124.824 93.584 125.703 93.1471 126.504C92.7103 127.305 92.1192 128.012 91.4076 128.586V128.586C90.166 129.57 88.6242 130.102 87.0375 130.094ZM49.7785 73.8826C49.1137 73.8669 48.4582 74.0412 47.8897 74.3848C47.3211 74.7284 46.8633 75.227 46.5703 75.8215C46.2773 76.416 46.1613 77.0817 46.2362 77.7398C46.3111 78.3978 46.5736 79.0208 46.9928 79.535L84.304 125.361C84.884 126.075 85.7249 126.531 86.6422 126.629C87.5594 126.726 88.4781 126.457 89.1964 125.881C89.9138 125.303 90.3716 124.466 90.4696 123.552C90.5675 122.639 90.2975 121.724 89.7187 121.009L52.4946 75.1656C52.1669 74.7633 51.7528 74.4392 51.2827 74.2172C50.8127 73.9952 50.2987 73.8808 49.7785 73.8826Z" fill="#606060"/>
<path d="M37.5898 130.094C35.9989 130.092 34.4567 129.547 33.2197 128.551V128.551C31.7876 127.393 30.8752 125.717 30.6826 123.89C30.49 122.064 31.033 120.235 32.1925 118.807L69.3992 72.9809C69.9444 72.1995 70.6453 71.5381 71.4582 71.038C72.2711 70.5379 73.1786 70.2098 74.1243 70.0739C75.0701 69.9381 76.0337 69.9976 76.9554 70.2485C77.877 70.4995 78.737 70.9367 79.4817 71.5329C80.2264 72.129 80.84 72.8715 81.2842 73.7139C81.7285 74.5563 81.9939 75.4808 82.0639 76.4298C82.134 77.3788 82.0072 78.332 81.6915 79.2301C81.3757 80.1282 80.8778 80.9519 80.2287 81.6502L43.0045 127.545C42.3492 128.345 41.5231 128.988 40.5864 129.429C39.6496 129.87 38.6259 130.097 37.5898 130.094ZM74.8488 73.8825C74.3285 73.8807 73.8145 73.9951 73.3445 74.2171C72.8745 74.4391 72.4604 74.7632 72.1327 75.1655L34.8041 121.009C34.2254 121.724 33.9553 122.639 34.0532 123.552C34.1512 124.466 34.6091 125.303 35.3264 125.881V125.881C36.0448 126.457 36.9634 126.726 37.8807 126.629C38.7979 126.531 39.6388 126.075 40.2188 125.361L77.53 79.5349C77.9433 79.0275 78.2043 78.4143 78.2829 77.7657C78.3615 77.1171 78.2546 76.4596 77.9744 75.869C77.6942 75.2783 77.2521 74.7784 76.6991 74.427C76.1462 74.0755 75.5047 73.8868 74.8488 73.8825V73.8825Z" fill="#606060"/>
<path d="M51.3969 6.99066C51.4045 7.13991 51.3733 7.28859 51.3061 7.42226C51.239 7.55593 51.1384 7.67006 51.0139 7.75356L48.0193 9.69547C47.9244 9.76264 47.8171 9.81054 47.7037 9.83644C47.5902 9.86233 47.4727 9.86572 47.3579 9.8464C47.2431 9.82708 47.1333 9.78543 47.0346 9.72384C46.936 9.66224 46.8505 9.5819 46.7831 9.48741C46.7156 9.39292 46.6675 9.28612 46.6415 9.17312C46.6155 9.06011 46.6121 8.94311 46.6315 8.8288C46.6509 8.71449 46.6928 8.6051 46.7546 8.50688C46.8165 8.40867 46.8971 8.32354 46.992 8.25637L49.9867 6.27978C50.1159 6.19272 50.2662 6.14184 50.4219 6.13245C50.5776 6.12305 50.733 6.15549 50.8718 6.22638C51.0106 6.29727 51.1277 6.40399 51.2109 6.53539C51.2941 6.66679 51.3403 6.81804 51.3447 6.97332L51.3969 6.99066Z" fill="#C2D0E1"/>
<path d="M50.8922 9.43507C50.9038 9.62658 50.8513 9.81652 50.7429 9.97512C50.6345 10.1337 50.4763 10.252 50.2932 10.3115C50.11 10.371 49.9122 10.3683 49.7307 10.3038C49.5493 10.2393 49.3944 10.1167 49.2904 9.95523L47.3056 6.99034C47.2247 6.89806 47.1643 6.78975 47.1285 6.67255C47.0927 6.55536 47.0823 6.43193 47.0978 6.31041C47.1134 6.18889 47.1546 6.07204 47.2189 5.96756C47.2831 5.86307 47.3688 5.77333 47.4704 5.70424C47.572 5.63515 47.6871 5.58829 47.8082 5.56674C47.9293 5.54519 48.0536 5.54945 48.173 5.57922C48.2923 5.609 48.4039 5.66362 48.5005 5.73949C48.5971 5.81536 48.6764 5.91075 48.7333 6.01938L50.7181 9.00161C50.8157 9.12707 50.876 9.27723 50.8922 9.43507Z" fill="#C2D0E1"/>
<path d="M22.6167 9.17511C22.6334 9.64372 22.5105 10.1068 22.2634 10.5059C22.0163 10.9051 21.6561 11.2225 21.2282 11.4182C20.8003 11.6138 20.3239 11.679 19.8588 11.6054C19.3938 11.5319 18.961 11.3229 18.615 11.0049C18.2691 10.6868 18.0253 10.2739 17.9146 9.81819C17.8038 9.36244 17.831 8.88425 17.9927 8.44385C18.1543 8.00345 18.4433 7.62056 18.8231 7.34341C19.2029 7.06626 19.6566 6.90725 20.127 6.88642C20.7614 6.86293 21.3794 7.09047 21.8459 7.51931C22.3124 7.94815 22.5895 8.54344 22.6167 9.17511V9.17511ZM19.1345 9.31382C19.1449 9.52536 19.2179 9.72913 19.3441 9.89956C19.4704 10.07 19.6444 10.1995 19.8443 10.2717C20.0442 10.344 20.2611 10.3559 20.4678 10.3058C20.6745 10.2558 20.8617 10.1461 21.0059 9.99043C21.1502 9.8348 21.245 9.6402 21.2786 9.43106C21.3122 9.22192 21.283 9.00756 21.1947 8.81489C21.1064 8.62222 20.9629 8.45981 20.7822 8.34807C20.6016 8.23633 20.3918 8.18023 20.1792 8.18681C19.8913 8.20032 19.6203 8.32613 19.4248 8.53702C19.2294 8.74792 19.1251 9.02696 19.1345 9.31382V9.31382Z" fill="#C2D0E1"/>
<path d="M77.2422 8.7589C77.9628 8.73046 78.5238 8.12565 78.4953 7.40803C78.4667 6.6904 77.8594 6.13172 77.1388 6.16016C76.4182 6.18861 75.8571 6.79342 75.8857 7.51104C75.9143 8.22866 76.5216 8.78735 77.2422 8.7589Z" fill="#C2D0E1"/>
<path d="M97.5872 3.07196C97.431 2.98683 97.3007 2.86142 97.21 2.7089C97.1192 2.55637 97.0713 2.38233 97.0713 2.20503C97.0713 2.02773 97.1192 1.85369 97.21 1.70116C97.3007 1.54863 97.431 1.42323 97.5872 1.3381L98.51 0.748589L99.4327 0.159078C99.584 0.0613934 99.7591 0.0065916 99.9393 0.000558279C100.12 -0.00547504 100.298 0.0374881 100.455 0.124833C100.613 0.212179 100.744 0.340606 100.833 0.496323C100.923 0.65204 100.969 0.829162 100.965 1.00867V2.101V3.19333C100.972 3.36594 100.933 3.53737 100.853 3.69051C100.773 3.84366 100.654 3.97317 100.507 4.06615C100.361 4.15912 100.193 4.21231 100.02 4.2204C99.8465 4.22849 99.6741 4.19121 99.5198 4.11227L98.5448 3.52276L97.5872 3.07196Z" fill="#C2D0E1"/>
<path d="M112.388 70.9525C112.242 70.9127 112.109 70.8358 112.003 70.7294C111.896 70.623 111.819 70.4907 111.779 70.3456L110.804 66.8779C110.741 66.648 110.773 66.4028 110.892 66.1963C111.012 65.9899 111.208 65.839 111.439 65.7769C111.67 65.7148 111.916 65.7466 112.124 65.8653C112.331 65.984 112.482 66.1798 112.545 66.4098L113.52 69.8775C113.562 70.0249 113.564 70.1808 113.526 70.3293C113.488 70.4779 113.411 70.6137 113.303 70.7229C113.195 70.8322 113.06 70.911 112.911 70.9513C112.763 70.9917 112.606 70.992 112.458 70.9525H112.388Z" fill="#C2D0E1"/>
<path d="M110.175 69.7215C109.944 69.7215 109.723 69.6301 109.56 69.4675C109.396 69.305 109.305 69.0845 109.305 68.8545C109.305 68.6246 109.396 68.4041 109.56 68.2415C109.723 68.0789 109.944 67.9876 110.175 67.9876L113.657 67.0166C113.888 66.9546 114.134 66.9864 114.342 67.105C114.549 67.2237 114.701 67.4196 114.763 67.6495C114.825 67.8794 114.793 68.1246 114.674 68.3311C114.555 68.5375 114.358 68.6884 114.127 68.7505L110.645 69.7215C110.492 69.7653 110.329 69.7653 110.175 69.7215V69.7215Z" fill="#C2D0E1"/>
<path d="M113.397 50.3369C112.938 50.2168 112.526 49.9644 112.211 49.6115C111.897 49.2585 111.694 48.8208 111.628 48.3533C111.563 47.8859 111.638 47.4096 111.844 46.9844C112.049 46.5592 112.377 46.2041 112.785 45.9637C113.192 45.7234 113.663 45.6085 114.136 45.6336C114.609 45.6587 115.064 45.8226 115.444 46.1048C115.824 46.3869 116.112 46.7746 116.271 47.2191C116.43 47.6637 116.454 48.1452 116.339 48.6031C116.262 48.9103 116.124 49.1993 115.934 49.4532C115.744 49.7071 115.505 49.9209 115.232 50.0822C114.958 50.2435 114.655 50.3491 114.34 50.3928C114.025 50.4365 113.704 50.4175 113.397 50.3369V50.3369ZM114.337 46.9906C114.132 46.934 113.914 46.9391 113.712 47.0052C113.51 47.0714 113.331 47.1957 113.2 47.3625C113.068 47.5293 112.989 47.7311 112.973 47.9425C112.956 48.1539 113.002 48.3655 113.106 48.5507C113.21 48.7359 113.367 48.8863 113.556 48.9831C113.746 49.0799 113.96 49.1187 114.171 49.0946C114.383 49.0706 114.582 48.9847 114.745 48.8479C114.908 48.7111 115.026 48.5294 115.086 48.3257C115.151 48.0547 115.11 47.7691 114.971 47.5274C114.831 47.2857 114.605 47.106 114.337 47.0253V46.9906Z" fill="#C2D0E1"/>
<path d="M116.648 81.3144C116.843 80.625 116.439 79.9089 115.747 79.715C115.054 79.521 114.335 79.9228 114.141 80.6122C113.946 81.3017 114.349 82.0178 115.042 82.2117C115.734 82.4056 116.453 82.0039 116.648 81.3144Z" fill="#C2D0E1"/>
<path d="M10.604 59.7343C10.4559 59.7194 10.3141 59.667 10.1922 59.582C10.0703 59.497 9.97227 59.3823 9.90754 59.2488L8.34057 56.0412C8.29027 55.9387 8.26073 55.8274 8.25363 55.7136C8.24653 55.5997 8.26202 55.4856 8.2992 55.3778C8.33639 55.2699 8.39454 55.1704 8.47035 55.0849C8.54616 54.9994 8.63813 54.9296 8.74102 54.8795C8.84391 54.8294 8.9557 54.8 9.07 54.7929C9.18431 54.7859 9.29889 54.8013 9.40721 54.8383C9.51553 54.8753 9.61547 54.9333 9.70132 55.0087C9.78716 55.0842 9.85724 55.1758 9.90754 55.2783L11.4745 58.4859C11.544 58.625 11.5747 58.7801 11.5634 58.9351C11.552 59.09 11.4991 59.239 11.4102 59.3666C11.3212 59.4942 11.1994 59.5957 11.0576 59.6603C10.9158 59.725 10.7591 59.7506 10.604 59.7343V59.7343Z" fill="#C2D0E1"/>
<path d="M8.20131 58.9195C8.01089 58.9028 7.8313 58.8242 7.69024 58.6957C7.54918 58.5672 7.45451 58.3961 7.42084 58.2087C7.38717 58.0213 7.41637 57.8281 7.50393 57.6589C7.59149 57.4896 7.73255 57.3538 7.90533 57.2724L11.1263 55.7119C11.2292 55.6618 11.341 55.6324 11.4553 55.6253C11.5696 55.6183 11.6842 55.6337 11.7925 55.6707C11.9008 55.7077 12.0008 55.7657 12.0866 55.8411C12.1725 55.9166 12.2425 56.0082 12.2928 56.1107C12.3431 56.2132 12.3727 56.3245 12.3798 56.4383C12.3869 56.5522 12.3714 56.6663 12.3342 56.7741C12.297 56.882 12.2389 56.9815 12.1631 57.067C12.0872 57.1525 11.9953 57.2223 11.8924 57.2724L8.68881 58.8329C8.53849 58.9091 8.36885 58.9393 8.20131 58.9195Z" fill="#C2D0E1"/>
<path d="M12.8319 43.2456C12.3633 43.1992 11.9191 43.0157 11.555 42.7183C11.191 42.4209 10.9235 42.0229 10.7862 41.5744C10.649 41.1259 10.6481 40.6469 10.7836 40.1979C10.9192 39.7488 11.1852 39.3498 11.5481 39.051C11.911 38.7523 12.3546 38.5672 12.823 38.519C13.2913 38.4709 13.7635 38.5618 14.18 38.7805C14.5966 38.9991 14.9388 39.3356 15.1636 39.7476C15.3885 40.1596 15.4858 40.6286 15.4435 41.0956C15.3817 41.7249 15.0724 42.3043 14.583 42.7071C14.0937 43.11 13.4641 43.3036 12.8319 43.2456V43.2456ZM13.1627 39.7779C12.9505 39.7584 12.7373 39.8019 12.5499 39.9029C12.3625 40.0039 12.2094 40.1579 12.1097 40.3454C12.01 40.533 11.9683 40.7457 11.9898 40.9568C12.0113 41.1679 12.095 41.3679 12.2305 41.5317C12.3659 41.6955 12.547 41.8157 12.7509 41.8772C12.9548 41.9387 13.1725 41.9387 13.3764 41.8772C13.5804 41.8158 13.7615 41.6956 13.8969 41.5318C14.0324 41.368 14.1162 41.168 14.1377 40.9569C14.1573 40.6753 14.0668 40.3971 13.8851 40.1805C13.7033 39.964 13.4444 39.8259 13.1627 39.7952V39.7779Z" fill="#C2D0E1"/>
<path d="M8.94868 74.8934C9.01667 74.1784 8.48976 73.5439 7.7718 73.4761C7.05384 73.4084 6.41669 73.9332 6.3487 74.6481C6.28071 75.3631 6.80761 75.9976 7.52557 76.0654C8.24354 76.1331 8.88068 75.6083 8.94868 74.8934Z" fill="#C2D0E1"/>
<path d="M1.42843 86.037C1.52716 85.888 1.66459 85.7683 1.82611 85.6908C1.98764 85.6133 2.16723 85.5809 2.3458 85.5969C2.52437 85.6129 2.69525 85.6768 2.84028 85.7817C2.98532 85.8867 3.09909 86.0288 3.16951 86.193L3.62219 87.1813L4.07486 88.1696C4.14522 88.3268 4.17317 88.4994 4.15596 88.6706C4.13875 88.8418 4.07697 89.0055 3.97673 89.1456C3.87649 89.2857 3.74126 89.3974 3.58442 89.4695C3.42757 89.5416 3.25455 89.5716 3.08245 89.5567L1.98558 89.4527L0.888702 89.3487C0.717591 89.3308 0.554094 89.2689 0.414254 89.169C0.274414 89.0692 0.163035 88.9349 0.0910463 88.7793C0.0190575 88.6237 -0.0110679 88.4521 0.00362623 88.2814C0.0183203 88.1107 0.077329 87.9467 0.174862 87.8055L0.801648 86.9213L1.42843 86.037Z" fill="#C2D0E1"/>
<path d="M25.7871 86.6612V30.9697H98.8077V86.6612" fill="white"/>
<path opacity="0.5" d="M97.1189 30.9177H27.7197V37.8531H97.1189V30.9177Z" fill="#AAAAAA"/>
<path d="M25.8045 88.4818C25.3428 88.4818 24.8999 88.2991 24.5734 87.974C24.2469 87.6488 24.0635 87.2078 24.0635 86.748V74.9057C24.0635 74.4459 24.2469 74.0049 24.5734 73.6797C24.8999 73.3546 25.3428 73.1719 25.8045 73.1719C26.2663 73.1719 26.7092 73.3546 27.0357 73.6797C27.3622 74.0049 27.5456 74.4459 27.5456 74.9057V86.748C27.5456 87.2078 27.3622 87.6488 27.0357 87.974C26.7092 88.2991 26.2663 88.4818 25.8045 88.4818Z" fill="#606060"/>
<path d="M25.8045 60.4452C25.3428 60.4452 24.8999 60.2626 24.5734 59.9374C24.2469 59.6122 24.0635 59.1712 24.0635 58.7114V30.9697C24.0635 30.5098 24.2469 30.0688 24.5734 29.7437C24.8999 29.4185 25.3428 29.2358 25.8045 29.2358C26.2663 29.2358 26.7092 29.4185 27.0357 29.7437C27.3622 30.0688 27.5456 30.5098 27.5456 30.9697V58.7114C27.5456 59.1712 27.3622 59.6122 27.0357 59.9374C26.7092 60.2626 26.2663 60.4452 25.8045 60.4452Z" fill="#606060"/>
<path d="M98.8065 88.4816C98.3447 88.4816 97.9019 88.2989 97.5754 87.9738C97.2489 87.6486 97.0654 87.2076 97.0654 86.7478V53.9085C97.0654 53.4487 97.2489 53.0077 97.5754 52.6825C97.9019 52.3574 98.3447 52.1747 98.8065 52.1747C99.2683 52.1747 99.7111 52.3574 100.038 52.6825C100.364 53.0077 100.548 53.4487 100.548 53.9085V86.7478C100.548 87.2076 100.364 87.6486 100.038 87.9738C99.7111 88.2989 99.2683 88.4816 98.8065 88.4816Z" fill="#606060"/>
<path d="M98.8065 44.4244C98.3447 44.4244 97.9019 44.2417 97.5754 43.9166C97.2489 43.5914 97.0654 43.1504 97.0654 42.6906V30.9697C97.0654 30.5098 97.2489 30.0688 97.5754 29.7437C97.9019 29.4185 98.3447 29.2358 98.8065 29.2358C99.2683 29.2358 99.7111 29.4185 100.038 29.7437C100.364 30.0688 100.548 30.5098 100.548 30.9697V42.6906C100.548 43.1504 100.364 43.5914 100.038 43.9166C99.7111 44.2417 99.2683 44.4244 98.8065 44.4244V44.4244Z" fill="#606060"/>
<path d="M106.59 30.9696H18.0213C17.205 30.9696 16.3968 30.8095 15.6427 30.4984C14.8886 30.1873 14.2034 29.7314 13.6262 29.1566C13.049 28.5818 12.5912 27.8995 12.2788 27.1485C11.9664 26.3975 11.8057 25.5926 11.8057 24.7797C11.8057 23.9668 11.9664 23.1619 12.2788 22.4109C12.5912 21.66 13.049 20.9776 13.6262 20.4028C14.2034 19.828 14.8886 19.3721 15.6427 19.061C16.3968 18.7499 17.205 18.5898 18.0213 18.5898H106.59C108.238 18.5898 109.819 19.242 110.985 20.4028C112.15 21.5636 112.805 23.1381 112.805 24.7797C112.805 26.4214 112.15 27.9958 110.985 29.1566C109.819 30.3174 108.238 30.9696 106.59 30.9696V30.9696Z" fill="#EBF0F9"/>
<path d="M112.788 23.2367H11.8057C11.8057 21.5951 12.4605 20.0207 13.6262 18.8598C14.7918 17.699 16.3728 17.0469 18.0213 17.0469H106.59C108.235 17.0515 109.812 17.7056 110.974 18.866C112.135 20.0263 112.788 21.5981 112.788 23.2367V23.2367Z" fill="#C2D0E1"/>
<path d="M106.59 32.7035H18.0212C15.9109 32.7035 13.8871 31.8687 12.3949 30.3827C10.9027 28.8967 10.0645 26.8813 10.0645 24.7798C10.0645 22.6783 10.9027 20.6629 12.3949 19.1769C13.8871 17.6909 15.9109 16.8561 18.0212 16.8561H30.2087C30.6704 16.8561 31.1133 17.0388 31.4398 17.3639C31.7663 17.6891 31.9497 18.1301 31.9497 18.5899C31.9497 19.0498 31.7663 19.4908 31.4398 19.816C31.1133 20.1411 30.6704 20.3238 30.2087 20.3238H18.0212C16.8344 20.3238 15.6963 20.7933 14.8572 21.6289C14.018 22.4646 13.5466 23.598 13.5466 24.7798C13.5466 25.9616 14.018 27.095 14.8572 27.9307C15.6963 28.7663 16.8344 29.2358 18.0212 29.2358H106.59C107.776 29.2358 108.914 28.7663 109.753 27.9307C110.593 27.095 111.064 25.9616 111.064 24.7798C111.064 23.598 110.593 22.4646 109.753 21.6289C108.914 20.7933 107.776 20.3238 106.59 20.3238H38.6877C38.2259 20.3238 37.7831 20.1411 37.4566 19.816C37.13 19.4908 36.9466 19.0498 36.9466 18.5899C36.9466 18.1301 37.13 17.6891 37.4566 17.3639C37.7831 17.0388 38.2259 16.8561 38.6877 16.8561H106.59C108.7 16.8561 110.724 17.6909 112.216 19.1769C113.708 20.6629 114.546 22.6783 114.546 24.7798C114.546 26.8813 113.708 28.8967 112.216 30.3827C110.724 31.8687 108.7 32.7035 106.59 32.7035V32.7035Z" fill="#606060"/>
<path d="M106.59 99.0409H18.0213C16.3728 99.0409 14.7918 98.3887 13.6262 97.2279C12.4605 96.0671 11.8057 94.4926 11.8057 92.851C11.8057 91.2093 12.4605 89.6349 13.6262 88.4741C14.7918 87.3133 16.3728 86.6611 18.0213 86.6611H106.59C108.238 86.6611 109.819 87.3133 110.985 88.4741C112.15 89.6349 112.805 91.2093 112.805 92.851C112.805 94.4926 112.15 96.0671 110.985 97.2279C109.819 98.3887 108.238 99.0409 106.59 99.0409Z" fill="#EBF0F9"/>
<path d="M112.788 92.8511H11.8057C11.8285 91.2245 12.4935 89.6723 13.6567 88.5301C14.8199 87.388 16.3878 86.7478 18.0213 86.7479H106.59C108.22 86.7523 109.784 87.3946 110.943 88.5362C112.102 89.6779 112.765 91.2275 112.788 92.8511V92.8511Z" fill="#C2D0E1"/>
<path d="M106.59 100.775H98.8243C98.3626 100.775 97.9197 100.592 97.5932 100.267C97.2667 99.9417 97.0833 99.5007 97.0833 99.0408C97.0833 98.581 97.2667 98.14 97.5932 97.8148C97.9197 97.4896 98.3626 97.307 98.8243 97.307H106.59C107.776 97.307 108.914 96.8375 109.753 96.0018C110.593 95.1662 111.064 94.0328 111.064 92.851C111.064 91.6692 110.593 90.5358 109.753 89.7001C108.914 88.8644 107.776 88.395 106.59 88.395H18.0212C16.8344 88.395 15.6963 88.8644 14.8572 89.7001C14.018 90.5358 13.5466 91.6692 13.5466 92.851C13.5466 94.0328 14.018 95.1662 14.8572 96.0018C15.6963 96.8375 16.8344 97.307 18.0212 97.307H86.8109C87.2727 97.307 87.7155 97.4896 88.042 97.8148C88.3686 98.14 88.552 98.581 88.552 99.0408C88.552 99.5007 88.3686 99.9417 88.042 100.267C87.7155 100.592 87.2727 100.775 86.8109 100.775H18.0212C15.9109 100.775 13.8871 99.9399 12.3949 98.4539C10.9027 96.9679 10.0645 94.9525 10.0645 92.851C10.0645 90.7495 10.9027 88.734 12.3949 87.248C13.8871 85.7621 15.9109 84.9272 18.0212 84.9272H106.59C108.7 84.9272 110.724 85.7621 112.216 87.248C113.708 88.734 114.546 90.7495 114.546 92.851C114.546 94.9525 113.708 96.9679 112.216 98.4539C110.724 99.9399 108.7 100.775 106.59 100.775V100.775Z" fill="#606060"/>
<path d="M83.554 49.9899H40.0272C39.5654 49.9899 39.1226 49.8072 38.7961 49.4821C38.4696 49.1569 38.2861 48.7159 38.2861 48.2561C38.2861 47.7962 38.4696 47.3552 38.7961 47.0301C39.1226 46.7049 39.5654 46.5222 40.0272 46.5222H83.554C84.0158 46.5222 84.4586 46.7049 84.7851 47.0301C85.1117 47.3552 85.2951 47.7962 85.2951 48.2561C85.2951 48.7159 85.1117 49.1569 84.7851 49.4821C84.4586 49.8072 84.0158 49.9899 83.554 49.9899Z" fill="#606060"/>
<path d="M55.6969 61.2602H40.0272C39.5654 61.2602 39.1226 61.0775 38.7961 60.7524C38.4696 60.4272 38.2861 59.9862 38.2861 59.5263C38.2861 59.0665 38.4696 58.6255 38.7961 58.3003C39.1226 57.9752 39.5654 57.7925 40.0272 57.7925H55.6969C56.1586 57.7925 56.6015 57.9752 56.928 58.3003C57.2545 58.6255 57.4379 59.0665 57.4379 59.5263C57.4379 59.9862 57.2545 60.4272 56.928 60.7524C56.6015 61.0775 56.1586 61.2602 55.6969 61.2602Z" fill="#606060"/>
<path d="M69.6254 72.5301H40.0272C39.5654 72.5301 39.1226 72.3474 38.7961 72.0223C38.4696 71.6971 38.2861 71.2561 38.2861 70.7962C38.2861 70.3364 38.4696 69.8954 38.7961 69.5702C39.1226 69.245 39.5654 69.0624 40.0272 69.0624H69.6254C70.0872 69.0624 70.53 69.245 70.8566 69.5702C71.1831 69.8954 71.3665 70.3364 71.3665 70.7962C71.3665 71.2561 71.1831 71.6971 70.8566 72.0223C70.53 72.3474 70.0872 72.5301 69.6254 72.5301Z" fill="#606060"/>
</svg>
