<svg width="1250" height="1080" viewBox="0 0 1250 1080" fill="none" xmlns="http://www.w3.org/2000/svg">
<rect width="923" height="1080" fill="#812A39"/>
<path d="M1163.65 0L1183.8 22.56C1203.96 45.24 1244.28 90.36 1249.4 135.36C1254.67 180.36 1224.59 225.24 1193.42 270.24C1162.1 315.24 1129.53 360.36 1128.29 405.36C1126.9 450.36 1156.98 495.24 1176.83 540.24C1196.67 585.24 1206.6 630.36 1201.17 675.36C1195.74 720.36 1174.97 765.24 1181.79 810.24C1188.46 855.24 1222.57 900.36 1236.22 945.36C1250.02 990.36 1243.19 1035.24 1239.94 1057.56L1236.53 1080H887.639V1057.56C887.639 1035.24 887.639 990.36 887.639 945.36C887.639 900.36 887.639 855.24 887.639 810.24C887.639 765.24 887.639 720.36 887.639 675.36C887.639 630.36 887.639 585.24 887.639 540.24C887.639 495.24 887.639 450.36 887.639 405.36C887.639 360.36 887.639 315.24 887.639 270.24C887.639 225.24 887.639 180.36 887.639 135.36C887.639 90.36 887.639 45.24 887.639 22.56V0L1163.65 0Z" fill="#103872"/>
<path d="M1000.55 0L1019.96 22.56C1039.2 45.24 1078.03 90.36 1082.88 135.36C1087.74 180.36 1058.96 225.24 1047.87 270.24C1036.95 315.24 1043.88 360.36 1042.5 405.36C1040.94 450.36 1031.23 495.24 1017.88 540.24C1004.54 585.24 987.897 630.36 988.07 675.36C988.417 720.36 1005.75 765.24 1004.36 810.24C1002.8 855.24 982.697 900.36 978.884 945.36C975.07 990.36 987.897 1035.24 994.137 1057.56L1000.55 1080H858.416V1057.56C858.416 1035.24 858.416 990.36 858.416 945.36C858.416 900.36 858.416 855.24 858.416 810.24C858.416 765.24 858.416 720.36 858.416 675.36C858.416 630.36 858.416 585.24 858.416 540.24C858.416 495.24 858.416 450.36 858.416 405.36C858.416 360.36 858.416 315.24 858.416 270.24C858.416 225.24 858.416 180.36 858.416 135.36C858.416 90.36 858.416 45.24 858.416 22.56V0L1000.55 0Z" fill="#812A39"/>
</svg>
