<svg width="1424" height="1770" viewBox="0 0 1424 1770" fill="none" xmlns="http://www.w3.org/2000/svg">
<g clip-path="url(#clip0_374_21)">
<path d="M99.8123 244.2C99.3123 678.4 99.5123 742.2 101.312 760.6C106.512 811.7 123.512 879.2 145.612 935.8C186.712 1041.2 242.512 1131.2 321.812 1220C331.412 1230.8 373.712 1273.3 383.812 1282.4C404.512 1301 411.612 1307.2 424.512 1317.9C493.512 1375.2 567.912 1423.1 655.512 1466.4C690.412 1483.7 702.112 1489 705.412 1489C708.512 1489 759.112 1468.2 781.512 1457.6C857.412 1422 929.212 1376.2 992.512 1323.2C1098.61 1234.2 1184.51 1126.6 1246.51 1004.5C1285.31 928.2 1310.01 856.6 1321.41 787.5C1326.11 759.2 1326.01 769.9 1326.01 372.8V0H713.012H100.012L99.8123 244.2ZM607.512 324V597.5L379.312 597.8L151.012 598V324.7C151.012 174.3 151.312 51 151.712 50.7C152.012 50.3 254.712 50.1 379.912 50.2L607.512 50.5V324ZM781.012 340V630L1027.81 630.2L1274.51 630.5V643.5V656.5L1014.81 656.8L755.012 657V355V53H710.512H666.012V355V657H408.512H151.012V643.5V630H395.512H640.012V340.7C640.012 181.5 640.312 51 640.712 50.7C641.012 50.3 672.812 50 711.212 50H781.012V340ZM1274.51 54.2C1274.81 56.6 1274.91 179.8 1274.81 328L1274.51 597.5L1043.81 597.8L813.012 598V324.7C813.012 174.3 813.312 51 813.712 50.7C814.012 50.3 917.712 50 1044.11 50H1273.91L1274.51 54.2ZM666.012 1078.5C666.012 1327.9 665.712 1412 664.912 1412C664.212 1412 658.412 1409.2 651.912 1405.8L640.012 1399.5L639.812 1086L639.512 772.5L397.012 772L154.512 771.5L153.912 767C153.512 764.5 152.912 758.4 152.512 753.5L151.812 744.5L408.912 744.8L666.012 745V1078.5ZM1273.91 748.2C1273.91 750 1273.31 756 1272.71 761.5L1271.51 771.5L1026.31 771.8L781.012 772V1086C781.012 1268.1 780.612 1400 780.112 1400C779.612 1400 774.512 1402.2 768.812 1404.9C763.012 1407.6 757.612 1410 756.712 1410.2C755.112 1410.5 755.012 1386.3 755.012 1078C755.012 895.1 755.012 745.4 755.012 745.2C755.012 745.1 871.812 745 1014.51 745H1274.01L1273.91 748.2ZM608.012 1091.8C608.012 1249.6 607.712 1379 607.412 1379.3C607.012 1379.6 604.712 1378.7 602.112 1377.3C495.412 1315.7 405.812 1241.8 334.412 1156.3C259.312 1066.4 202.612 960.7 172.612 854.5C167.912 837.7 161.012 809.4 161.012 806.6C161.012 805.1 179.212 805 384.512 805H608.012V1091.8ZM1265.01 806.8C1265.01 809.8 1256.41 842.9 1251.61 858.5C1220.91 957 1163.51 1062 1092.11 1150C1027.51 1229.5 947.812 1300.1 864.512 1351.6C847.612 1362 815.812 1380 814.312 1380C813.212 1380 813.012 1332.5 813.012 1092.5V805H1039.01C1254.21 805 1265.01 805.1 1265.01 806.8Z" fill="#0D1D41"/>
<path d="M446.512 81.5999C423.312 102.1 410.412 110.1 377.412 124.5C310.912 153.6 306.212 155.8 295.012 163.3C281.412 172.5 270.012 186.1 270.012 193.3C270.012 194.3 269.012 195.4 267.712 195.9C264.512 197.1 251.912 205.3 244.712 210.8C217.412 231.6 217.712 276.2 245.212 289.9C254.112 294.4 258.812 293.9 260.812 288.1C261.712 285.6 261.412 284.3 258.912 279.6C256.812 275.6 256.012 272.8 256.212 270.2C256.512 266.9 257.012 266.2 261.512 263.8C264.412 262.2 268.912 260.9 272.512 260.5C286.412 259 298.112 257 306.512 254.5C311.412 253.1 315.712 252.1 316.212 252.2C316.712 252.4 312.412 254.5 306.812 256.9C290.812 263.8 282.412 269.9 276.512 278.7C274.012 282.5 273.912 283.3 275.012 285.9C276.912 290.5 280.312 291.4 289.612 289.5C293.912 288.6 297.712 287.7 298.112 287.5C298.412 287.3 305.712 285.5 314.412 283.6C323.012 281.6 332.112 279.1 334.712 278C340.612 275.4 343.212 275.5 345.812 278.3C348.612 281.2 348.712 286.7 346.112 291.9C342.212 299.4 336.212 306.3 308.112 335.2C295.312 348.3 291.812 352.8 287.312 361.5C285.912 364.2 283.412 368 281.912 369.8C275.712 376.9 271.012 390.8 271.012 402.2C271.012 405.6 270.312 407 266.312 411.4C263.812 414.2 259.912 419.2 257.812 422.5L253.912 428.5L262.312 429C272.112 429.6 277.212 432.2 281.712 439.2C284.112 442.8 284.512 444.3 284.412 450.4C284.412 456.3 283.812 458.5 281.312 463.5C277.512 470.7 269.512 480 267.112 480C266.212 480 263.812 478.4 261.912 476.4C258.412 472.7 252.212 469 249.612 469C246.612 469 244.712 473.6 245.212 479.5C246.412 494.2 261.512 500.5 289.212 498C309.112 496.2 322.112 491 332.012 480.9C341.712 470.9 346.912 460.1 345.412 452.4C344.112 445.6 336.012 442.6 332.212 447.5C331.112 448.8 329.312 453.1 328.012 457C326.812 460.8 325.512 464 325.112 464C322.612 463.9 313.312 458 311.912 455.5C307.912 448.7 307.612 434.6 311.312 425.8C316.312 413.8 330.812 409.3 348.912 414L356.312 415.9L355.612 410.5C354.812 403.3 356.512 396 360.312 390.3C364.012 384.9 371.212 379 374.212 379C377.212 379 384.212 385.1 388.112 391.2C391.312 396.2 391.512 396.9 391.512 405.7C391.512 410.8 391.812 415 392.212 415C392.612 415 395.512 414.3 398.712 413.5C406.112 411.6 417.612 411.6 423.112 413.5C434.612 417.6 440.912 430.5 438.812 445.2C437.412 454.1 434.112 459.4 428.512 461.5C426.112 462.5 423.512 463 422.812 462.7C422.012 462.5 420.612 459.5 419.612 456.2C416.412 445.3 410.712 442.1 404.912 447.9C402.612 450.3 402.012 451.7 402.012 455.3C402.012 464.9 413.512 481.5 424.812 488.3C437.312 495.9 460.312 500.1 478.112 498.1C488.612 496.9 494.112 494.8 497.912 490.4C504.212 483.3 504.612 470.9 498.612 469.4C495.212 468.6 492.312 470.3 486.912 476.2L482.212 481.3L478.212 478.1C469.512 471.3 463.012 459.2 463.012 450.2C463.112 441.3 469.212 432.7 477.512 430C481.112 428.8 493.412 429.1 497.612 430.5C499.412 431 500.012 430.2 502.712 424.3C509.812 408.8 511.412 399.5 510.812 378.9L510.312 363.5L512.212 367.8C516.112 376.6 517.212 385.4 516.712 403.3C516.512 412.5 516.412 419.9 516.512 419.8C517.212 419 523.312 399.3 525.212 391.5C527.012 383.9 527.412 379.6 527.512 364.5C527.512 343.9 526.212 337.6 518.912 324.2L514.912 317H520.712C524.212 317 528.212 316.2 530.712 315.1C534.912 313.1 544.012 305.5 544.012 303.9C544.012 303.4 540.312 303.3 535.812 303.6C524.912 304.4 520.512 303.1 514.012 297.3C505.512 289.6 483.212 262.5 484.412 261.3C484.912 260.8 498.312 272.9 502.012 277.1C502.312 277.5 504.712 279.1 507.412 280.8C512.912 284.3 522.012 286.6 524.612 285.2C526.012 284.4 525.612 283.8 521.912 281.2C516.312 277.4 510.112 270.7 506.712 264.9C504.312 260.8 499.912 251 491.512 230.7L488.712 223.9L484.112 224.5L479.512 225.1L482.412 222.8C492.712 214.8 496.512 209.8 497.712 202.4C498.312 198.7 497.112 197.9 494.912 200.7C491.012 205.3 480.912 206.3 473.912 202.7C468.412 199.9 458.012 192.3 458.012 191C458.012 190 462.612 191.5 471.112 195.3C478.012 198.4 484.012 199.7 484.012 198.1C484.012 197.5 482.712 194.6 481.112 191.7C479.412 188.9 476.512 182.5 474.612 177.6C468.312 161.9 460.812 152.1 450.112 145.5L445.712 142.8L446.412 132.7C448.412 102.8 448.312 103.4 446.812 105C446.012 105.8 444.312 110.5 443.012 115.5C438.712 132.2 433.012 140.5 422.512 145.4C417.812 147.6 392.512 152.8 391.412 151.8C391.212 151.5 396.412 148 403.012 144.1C415.012 136.9 425.312 129.3 427.812 125.8C429.412 123.6 431.412 123.4 430.612 125.6C430.312 126.5 429.712 128.4 429.312 129.8L428.712 132.5L431.012 130.5C434.412 127.5 435.712 124.3 437.312 114.9C438.112 110.2 439.912 104.1 441.212 101.4C442.612 98.6999 445.612 92.7999 447.912 88.2999C453.712 76.7999 453.412 75.4999 446.512 81.5999ZM327.312 192.6C329.912 193.5 332.012 194.8 332.012 195.6C332.012 198.4 325.612 204 321.712 204.7C317.512 205.3 309.012 202.6 309.012 200.6C309.012 198.9 316.112 192.3 318.512 191.7C321.912 190.9 322.512 191 327.312 192.6ZM285.412 203.6C295.012 206.1 300.912 209.5 309.012 217.5C317.112 225.5 321.412 228 336.112 233.3C357.312 241 360.112 244 355.012 253.9C349.912 263.9 334.412 272.1 310.512 277.4C301.712 279.3 291.912 281.6 288.712 282.3C285.612 283.1 282.812 283.4 282.612 283.1C281.812 281.9 290.312 273.7 296.312 269.9C299.512 267.8 305.312 264.9 309.312 263.4C322.312 258.5 336.412 251.3 339.412 248.2L342.212 245.2L339.212 243.6C333.112 240.4 329.312 240.6 314.012 245C295.812 250.2 289.212 251.6 276.012 253C263.312 254.3 254.412 258 251.112 263.4C248.212 268 248.412 274.5 251.412 280.3C252.812 282.8 253.612 285.1 253.312 285.4C252.312 286.3 243.612 281.3 240.312 277.8C231.412 268.5 229.112 250.3 234.912 234.9C238.812 224.7 245.212 218.2 262.412 207.1C271.312 201.3 274.612 200.8 285.412 203.6ZM443.712 267.7C437.312 274.2 430.512 281.6 428.512 284.2C426.512 286.9 424.712 289 424.412 289C423.512 289 425.012 284.9 428.212 278.6C429.812 275.4 430.812 272.5 430.512 272.2C430.212 271.9 428.212 273.1 425.912 274.9C423.712 276.7 421.712 278 421.412 277.7C420.812 277.1 427.312 269.2 430.812 266.2C437.112 260.8 447.212 256.3 453.412 256.1C454.812 256 451.712 259.7 443.712 267.7ZM454.912 283.7C448.612 290.2 441.612 297.7 439.312 300.5L435.112 305.5L436.612 301.1C437.412 298.6 439.112 294.7 440.512 292.3C441.812 289.9 442.612 288 442.412 288C441.312 288 437.412 290.4 435.312 292.3C432.112 295.2 432.412 292.8 435.812 288.8C442.012 281.4 448.112 276.9 456.512 273.9C467.512 269.9 467.312 271 454.912 283.7ZM476.212 290.6C476.612 290.9 473.112 294.7 468.712 299C464.212 303.3 457.412 310.6 453.512 315.3C449.712 320 446.412 323.5 446.212 323C446.012 322.5 447.512 318.7 449.412 314.6C451.312 310.4 452.612 307 452.212 307C451.812 307 449.812 308.1 447.712 309.5C443.012 312.8 442.912 311.2 447.612 306C453.212 299.9 460.812 294.7 468.012 292.3C475.212 289.8 475.412 289.8 476.212 290.6Z" fill="#0D1D41"/>
<path d="M272.512 212.5C267.912 214.1 263.812 218.3 264.612 220.5C265.012 221.6 266.712 222 270.412 222H275.512L273.112 220.1L270.712 218.3L273.112 216.7C274.412 215.9 277.512 214.6 280.012 214C283.812 212.9 284.212 212.6 282.512 211.9C279.612 210.8 277.012 210.9 272.512 212.5Z" fill="#0D1D41"/>
<path d="M368.012 388.9C364.312 392.6 362.712 395.2 361.412 399.5C359.912 404.9 359.912 405.8 361.512 413.7C362.412 418.4 363.012 422.4 362.812 422.5C362.612 422.7 358.612 421.7 354.012 420.3C342.212 416.7 328.212 416.5 322.912 419.8C318.212 422.7 316.312 425.6 314.412 433.1C313.112 438.3 313.012 440.2 314.112 445.8C315.312 452.3 318.312 457 321.212 457C321.912 457 323.412 454.7 324.412 451.8C327.012 444.4 331.712 440 336.812 440C339.212 440 342.012 440.9 344.112 442.3C353.912 448.9 352.412 463.7 340.412 479C327.412 495.5 307.912 503.2 278.512 503.4C262.312 503.5 253.612 500.9 247.012 494.2C240.212 487.1 238.112 477.4 241.812 470C245.812 462 254.212 462.5 263.812 471.4L267.112 474.5L271.112 470C277.112 463 279.512 457.5 279.512 450.3C279.512 445 279.112 443.7 276.412 440.4C272.012 434.9 264.412 432.4 257.212 434C252.012 435.2 247.312 438.7 243.912 443.9L242.412 446.3L233.412 437.7C220.512 425.5 218.312 424.5 203.712 424.6C197.212 424.7 191.512 425.1 191.012 425.6C190.412 426.2 192.512 429.9 196.112 435C217.112 464.3 230.412 498.3 234.612 533.5C235.612 541.2 236.412 547.6 236.512 547.8C236.612 547.9 240.312 546.9 244.612 545.6C270.012 537.6 298.312 531.4 326.012 527.9C351.012 524.7 391.612 524.7 418.012 527.9C445.312 531.2 473.412 536.9 499.012 544.4C505.312 546.2 510.812 547.6 511.112 547.4C511.512 547.2 512.112 543.3 512.412 538.8C515.612 501.8 530.312 464.1 554.612 430.9C556.512 428.3 558.012 426 558.012 425.6C558.012 425.3 551.912 425 544.512 425C528.212 425 528.012 425.1 515.712 436.4C510.812 440.9 506.512 444.6 506.012 444.8C505.512 445 503.012 442.9 500.312 440.2C494.212 433.9 489.012 432.1 482.212 433.8C476.912 435.2 473.512 437.4 470.612 441.4C468.912 443.6 468.512 445.6 468.512 450.8C468.612 458.5 470.512 462.9 476.812 470L480.712 474.4L485.812 469.8C492.012 464.3 496.412 463.1 501.512 465.6C508.112 468.7 509.712 476.3 506.012 486.4C503.312 493.6 498.212 498.1 489.412 501.1C483.312 503.2 480.812 503.5 468.512 503.4C451.212 503.2 438.412 500.7 427.212 495.3C408.812 486.3 393.912 463.4 397.812 450.1C399.512 444.4 404.012 440.8 409.812 440.2C414.412 439.8 415.012 440 418.212 443.3C420.212 445.3 422.512 449.1 423.512 451.9C424.412 454.7 425.612 457 426.112 457C432.812 457 436.812 440.6 432.712 429.8C430.512 424 424.412 418.4 419.412 417.4C412.812 416.2 400.012 417.6 392.612 420.4C388.812 421.9 385.512 422.8 385.212 422.5C384.912 422.2 385.312 418.4 386.212 414C388.012 404.7 387.412 400.1 383.612 393.6C381.212 389.6 375.512 384 373.612 384C373.212 384 370.712 386.2 368.012 388.9Z" fill="#8E1536"/>
<path d="M975.012 179.5C944.412 185.3 913.512 200.3 862.812 234L856.012 238.5V363.1C856.012 458.6 856.312 487.9 857.212 488.8C858.912 490.5 862.512 490.3 866.812 488.1C878.312 482.2 910.212 473.6 937.712 469C971.412 463.3 994.712 461.6 1040.01 461.6C1082.21 461.6 1097.91 462.5 1130.51 467.1C1162.81 471.6 1195.41 479.8 1213.71 488.1C1218.81 490.4 1222.61 490.5 1223.41 488.4C1223.71 487.5 1224.01 430.9 1224.01 362.5V238.2L1205.51 226.1C1167.71 201.3 1140.61 188.1 1113.21 181.3C1103.91 178.9 1100.61 178.6 1088.01 178.6C1076.41 178.7 1072.21 179.1 1067.01 180.7C1057.61 183.7 1049.61 187.7 1044.71 192.1L1040.31 195.9L1036.41 192.5C1031.41 188 1023.21 183.7 1014.51 181C1005.41 178.2 985.912 177.4 975.012 179.5ZM1005.41 205.9C1013.71 208.4 1023.41 212.8 1029.51 217L1034.01 220.1V241.4C1034.01 253.1 1033.71 263 1033.31 263.4C1032.91 263.7 1029.41 260.9 1025.61 257.1C1014.41 246.1 1000.91 240.1 987.312 240C980.212 240 963.312 243.4 953.012 246.9C944.612 249.7 944.512 249.8 944.712 253C944.912 257.9 945.912 258.3 953.112 256.1C972.012 250.4 993.912 248.8 1005.51 252.3C1010.81 254 1012.61 255.4 1022.71 265.4L1034.01 276.5V299.7C1034.01 312.7 1033.61 323.1 1033.11 323.5C1032.61 323.8 1029.51 321.3 1026.31 317.9C1023.11 314.5 1017.61 310 1014.01 307.9C1007.21 303.9 994.412 300 988.012 300C981.812 300 966.112 303.1 955.012 306.4L944.512 309.6L944.712 313.5C944.912 315.6 945.212 317.5 945.412 317.8C945.712 318 951.412 316.7 958.212 314.9C969.812 311.7 971.512 311.5 987.012 311.5C1002.91 311.5 1003.71 311.6 1009.01 314.2C1012.61 316 1017.81 320.2 1024.01 326.5L1033.51 336L1033.81 356.2C1034.01 367.2 1033.71 376.7 1033.21 377.2C1032.71 377.7 1029.41 375.2 1025.31 371.2C1006.41 352.9 988.412 350.4 953.612 361.1L943.812 364.1L944.512 367.8C944.912 369.8 945.312 371.7 945.512 371.9C945.712 372.1 950.512 371.1 956.212 369.7C973.412 365.4 978.112 364.8 991.112 365.2C1006.81 365.8 1010.11 367.1 1021.51 378.1C1033.51 389.6 1034.11 390.9 1033.81 401.7C1033.51 411.9 1033.91 411.7 1022.51 407.6C1002.01 400.3 968.312 402 926.912 412.5C919.412 414.4 912.112 416.4 910.612 417C909.112 417.5 906.512 418 904.912 418H902.012V326.1V234.2L910.812 228.2C928.812 215.9 952.012 206.5 971.512 203.6C978.512 202.6 998.612 204 1005.41 205.9ZM1120.61 205.9C1136.61 209.8 1154.21 217.8 1169.01 227.8L1177.51 233.6L1177.81 325.8L1178.01 418H1175.81C1174.51 418 1168.81 416.7 1163.01 415.1C1117.31 402.4 1080.71 399.7 1058.81 407.5C1045.81 412.1 1047.01 412.8 1047.01 400.7V390.2L1055.31 381.8C1070.71 366.1 1074.71 364.5 1095.91 365.3C1106.71 365.7 1112.01 366.4 1121.51 368.9C1128.11 370.6 1133.81 372 1134.21 372C1134.81 372 1137.01 366.5 1137.01 365C1137.01 364.6 1133.71 363.2 1129.81 362C1125.81 360.8 1120.71 359.2 1118.51 358.5C1116.21 357.7 1109.41 356.4 1103.31 355.5C1093.01 353.9 1091.81 353.9 1084.01 355.4C1071.61 358 1061.71 363.7 1052.71 373.6C1050.51 376 1048.31 378 1047.81 378C1047.41 378 1047.01 368.6 1047.01 357V336.1L1056.81 326.1C1070.61 312 1072.01 311.5 1093.01 311.5C1107.91 311.5 1110.51 311.8 1120.01 314.4C1135.81 318.6 1134.71 318.5 1135.41 315.7C1135.71 314.3 1136.31 312.5 1136.61 311.7C1137.91 308.2 1100.71 299.2 1089.51 300.4C1076.11 301.8 1064.91 307.3 1054.91 317.2C1051.21 321 1047.91 324 1047.61 324C1047.31 324 1047.01 313.2 1047.01 300V275.9L1056.01 266.6C1060.91 261.5 1067.21 256.1 1069.81 254.7C1082.01 248.1 1104.21 249.1 1132.51 257.5C1134.21 258 1134.81 257.4 1135.91 254.5C1136.61 252.4 1136.81 250.4 1136.41 250C1133.41 247.2 1102.31 240 1093.21 240C1079.31 240 1066.21 245.8 1055.31 256.7C1051.31 260.7 1047.81 264 1047.51 264C1047.21 264 1047.01 253.9 1047.01 241.5V219.1L1053.81 215.1C1062.11 210.1 1072.31 206.2 1081.51 204.4C1090.81 202.6 1110.01 203.3 1120.61 205.9ZM892.812 351.9L893.012 439.3L897.512 438.6C900.012 438.3 913.912 435.1 928.312 431.6C968.112 421.8 975.012 420.6 992.012 420.7C1007.91 420.7 1021.71 423 1033.61 427.5L1040.11 429.9L1045.31 428C1060.01 422.6 1081.51 419.4 1096.01 420.5C1108.51 421.4 1118.41 423.3 1150.01 431.1C1165.71 435 1180.51 438.2 1183.01 438.3L1187.51 438.5L1187.81 351.2L1188.01 264H1194.01H1200.01V360.6V457.3L1194.81 456.6C1187.01 455.6 1175.81 453.2 1164.51 449.9C1149.41 445.6 1127.91 440.4 1115.01 437.9C1105.71 436 1100.01 435.6 1085.51 435.5C1065.01 435.5 1060.31 436.6 1055.11 442.6L1052.11 446H1040.11C1028.41 446 1028.21 446 1026.51 443.4C1025.61 442 1022.31 439.6 1019.21 438.2C1013.61 435.6 1013.01 435.5 995.012 435.6C979.412 435.7 974.512 436.1 963.412 438.3C948.512 441.2 930.012 445.8 915.712 450C905.612 453.1 886.712 457 882.412 457H880.012V361.2C880.012 308.5 880.312 265 880.712 264.6C881.112 264.2 883.912 264 887.012 264.2L892.512 264.5L892.812 351.9Z" fill="#0D1D41"/>
<path d="M244.312 836.9C242.612 844.3 238.412 852.3 234.112 856.8C231.912 859 226.112 862.9 221.112 865.5C211.412 870.5 206.712 874.9 205.112 880.4C202.912 888.6 208.812 898 222.712 908.4L231.512 915L232.112 910.8C233.012 904.1 234.312 901.9 241.912 894.1C257.612 877.9 260.012 861.7 249.912 839.1C248.212 835.2 246.412 832 246.112 832C245.812 832 244.912 834.2 244.312 836.9Z" fill="#8E1536"/>
<path d="M379.512 881.6C367.712 883.5 364.012 884.7 364.012 886.9C364.012 889.2 369.712 891.8 379.512 893.9C386.812 895.5 387.512 895.9 387.512 898.1C387.512 900.3 387.012 900.6 380.512 901.3C350.712 904.6 318.512 917.5 299.812 933.7C295.212 937.7 285.912 942 281.912 942C277.812 942 273.312 939.1 264.512 930.8C243.512 911.2 244.712 912 242.712 914.3C242.012 915.1 238.112 919.1 234.012 923.4L226.512 931.1L249.112 953.3C265.112 969 271.912 976.4 272.412 978.5C273.412 982.8 279.512 994.3 285.312 1003C292.812 1014.1 309.512 1030.2 322.512 1038.9C334.012 1046.6 350.912 1055.2 362.012 1059.1C368.012 1061.2 368.812 1061.8 372.812 1067.6C376.912 1073.8 377.012 1074.1 377.012 1082.5C377.012 1087.8 376.612 1091 375.912 1091C372.412 1091 357.712 1099.6 358.312 1101.3C359.112 1103.7 380.712 1108 395.012 1108.7C411.512 1109.5 439.612 1105.7 440.712 1102.5C441.212 1100.8 435.012 1095 429.812 1092.4L425.012 1090V1078.6C425.012 1070.7 425.412 1067 426.312 1066.3C426.912 1065.8 431.612 1063.9 436.512 1062.1C457.012 1054.6 486.812 1038.5 507.812 1023.4C513.712 1019.2 519.612 1015.4 521.012 1015C522.412 1014.6 527.112 1012.6 531.512 1010.7C565.212 995.7 586.612 977.9 592.012 960.3C595.412 949.4 594.212 941.9 588.112 935.9C579.112 926.9 561.712 926.8 539.012 935.7C535.412 937.1 531.312 938.9 529.812 939.6C527.212 941 526.812 940.8 521.112 936.3C499.912 919.2 465.912 906.8 429.512 902.8C423.512 902.2 418.312 901.5 418.212 901.4C418.012 901.3 418.112 900.2 418.512 899.1C418.912 897.6 420.012 897 421.912 897C425.612 897 432.912 894.4 435.212 892.3C440.012 888 435.212 884 422.112 881.6C411.612 879.7 392.112 879.7 379.512 881.6ZM424.512 922C439.012 923.2 451.112 925.2 465.012 928.7C476.312 931.5 498.312 938.8 505.212 942.1L509.512 944.1L506.012 943.7C504.112 943.5 496.812 942.1 489.812 940.7C436.312 929.7 376.212 927.9 332.712 936.1C326.512 937.2 318.112 939.1 314.012 940.2C309.912 941.3 305.612 942.4 304.512 942.6C300.512 943.4 313.412 937.7 323.212 934.4C355.612 923.4 390.012 919.2 424.512 922ZM566.312 943.7C570.412 945.8 572.312 951.1 571.712 958.5C570.612 972.8 559.612 984.3 538.512 993.1C533.412 995.2 528.512 997 527.712 997C526.312 997 526.212 994.8 526.712 980.2C527.312 964 527.412 963.4 530.112 959.4C535.212 951.9 544.212 945.2 552.612 942.6C557.812 941 561.712 941.3 566.312 943.7ZM436.012 947C457.012 948.6 476.112 951.7 500.912 957.6C512.912 960.5 517.312 962.5 509.512 961.5C506.812 961.2 502.012 960.7 498.912 960.3L493.312 959.7L492.612 967.6C489.812 998.5 481.012 1017.1 462.612 1030.7C459.412 1033.1 456.512 1034.8 456.212 1034.5C455.912 1034.2 457.212 1032.3 459.212 1030.2C476.412 1012.1 487.012 986.1 485.812 964.5L485.512 958.5L475.512 957.3C470.012 956.7 463.712 956.1 461.412 956.1L457.312 956L456.112 970.3C453.812 998.5 446.212 1021.7 434.212 1037.4C429.112 1044.2 427.212 1044.4 430.912 1037.9C441.412 1019.3 447.212 995.2 447.312 970.2C447.312 962.4 447.112 955.7 446.712 955.4C445.012 953.7 375.912 952.1 366.812 953.6L363.112 954.2L362.812 961.9C361.612 988.4 367.012 1014.8 377.612 1035.1C379.612 1038.9 381.012 1042.3 380.712 1042.6C379.712 1043.6 372.412 1033.3 367.812 1024.4C359.512 1008.3 354.712 988.7 353.312 965.2L352.712 954L349.612 954.4C347.912 954.7 341.112 955.4 334.612 956.1L322.712 957.3L323.312 967.4C323.912 977.1 325.912 986.4 329.412 996C333.012 1005.8 342.612 1020.6 349.912 1027.4C351.612 1029.1 353.012 1030.8 353.012 1031.3C353.012 1033 344.612 1027.4 338.912 1021.7C326.012 1008.8 318.512 990.5 316.512 966.4L315.812 958.4L307.212 960C299.012 961.6 297.012 961.7 298.212 960.5C299.012 959.7 311.212 956.5 322.012 954.2C335.212 951.4 357.812 948 370.212 947.1C385.612 945.9 420.712 945.9 436.012 947Z" fill="#0D1D41"/>
<path d="M346.712 1109.4C339.612 1111.3 334.212 1117.4 337.412 1119.8C339.812 1121.8 353.112 1126.4 364.512 1129.4C376.012 1132.3 377.412 1132.4 397.512 1132.5C414.412 1132.5 420.112 1132.1 426.512 1130.7C444.112 1126.6 460.012 1120.7 460.012 1118.1C460.012 1114.7 454.112 1110.7 446.712 1109C442.912 1108.2 441.512 1108.3 437.812 1109.9C422.212 1116.8 392.112 1117.4 366.512 1111.4C351.412 1107.8 352.112 1107.9 346.712 1109.4Z" fill="#0D1D41"/>
<path d="M997.012 827.3C983.612 832.1 968.912 841.3 965.912 846.8C964.712 848.9 964.212 849 960.612 848.3C958.312 847.9 950.912 847.5 944.012 847.5C932.612 847.5 931.012 847.8 925.812 850.2C916.412 854.5 910.212 865.6 908.512 880.7L907.812 886.8L900.512 887.2C895.412 887.5 892.212 888.3 889.912 889.8C888.012 891 885.212 892.8 883.512 893.7C875.412 898.5 870.012 906.4 870.012 913.7C870.012 915.5 869.112 916.2 865.912 917C847.512 922 831.612 939 833.412 951.8C833.712 954.3 835.112 958.2 836.412 960.4L838.812 964.5L836.212 969.5C831.212 979.2 833.212 990.8 841.512 999.3C843.912 1001.8 846.112 1003 849.212 1003.5C860.112 1005.1 859.512 1004.8 861.312 1009.8C863.712 1016.9 869.012 1022.4 877.212 1026.4C881.112 1028.4 885.312 1030 886.612 1030C889.212 1030 890.312 1031.1 895.312 1038C899.912 1044.4 907.312 1048 916.012 1048C922.612 1048 922.612 1048 923.512 1044.8C924.212 1042.4 925.312 1041.3 927.512 1040.6C929.212 1040.1 933.312 1038.4 936.712 1036.7C942.112 1034.1 943.712 1033.8 948.712 1034.3C951.912 1034.6 956.412 1035.5 958.812 1036.3C961.212 1037.1 963.312 1037.4 963.612 1036.9C965.912 1033.2 958.312 1023.8 948.312 1017.8C941.812 1014 938.412 1009.4 939.512 1006C940.812 1001.8 948.412 1002.8 955.212 1008.1C957.212 1009.7 959.112 1011 959.412 1011C959.712 1011 960.012 1009.3 960.012 1007.1C960.012 1002.5 961.612 993.5 963.112 989.9C964.412 986.6 968.412 984.6 971.012 986C973.112 987.1 974.512 990.4 973.512 992C973.112 992.6 972.412 996.6 971.912 1000.8C971.312 1005 970.712 1010.4 970.412 1012.8C969.912 1016.4 970.412 1018.3 973.112 1023.8C975.812 1029.3 976.612 1032.1 977.012 1039C977.612 1047.3 977.712 1047.7 983.212 1055.8L988.812 1064.2L996.112 1051.9L1003.51 1039.6V1030V1020.4L998.512 1013.2C987.712 997.7 987.012 995.2 987.012 971.5C987.112 954.4 987.712 952 992.412 952C996.112 952 996.712 953.3 997.412 963.5C998.212 975.4 998.812 978 1004.51 993C1012.41 1013.8 1013.31 1015.4 1019.41 1019.5C1022.41 1021.5 1025.21 1024 1025.51 1025.1C1026.31 1027.4 1026.81 1027.5 1031.11 1025.2C1034.91 1023.3 1048.21 1022.8 1055.61 1024.4C1059.51 1025.2 1060.01 1025 1063.71 1021.6C1068.41 1017.4 1070.41 1017.1 1072.41 1020.2C1074.91 1024.2 1073.31 1027.7 1065.41 1035.3C1061.31 1039.2 1058.01 1043 1058.01 1043.6C1058.01 1045.8 1066.21 1050.9 1070.91 1051.6C1077.01 1052.5 1096.51 1050.5 1101.51 1048.4C1106.21 1046.5 1114.61 1041.1 1118.41 1037.5C1120.41 1035.7 1121.01 1034.1 1121.01 1031C1121.01 1028.6 1121.51 1026.8 1122.31 1026.6C1122.91 1026.4 1126.71 1025.6 1130.51 1024.6C1140.81 1022.2 1150.61 1017 1157.91 1010.1C1161.41 1006.7 1164.61 1004 1165.01 1004C1167.11 1004 1169.41 998.1 1169.51 992C1169.71 987.1 1170.61 983.4 1173.41 976.8C1177.91 966.1 1179.91 954.1 1178.21 948.2C1176.81 943.7 1173.41 941 1168.11 940.3L1164.51 939.8V928.7C1164.51 918.5 1164.31 917 1161.61 911.2C1156.71 900.7 1144.51 890.9 1131.51 887C1127.81 885.9 1127.21 885.3 1125.21 880C1122.51 873.1 1117.11 867.7 1111.01 865.9C1107.91 865 1104.61 864.9 1096.91 865.8C1088.71 866.7 1086.11 866.6 1082.81 865.4C1080.61 864.6 1077.11 864 1075.01 864C1071.31 864 1071.31 864 1070.71 859.4C1070.11 853.8 1067.61 850.9 1059.81 847C1052.81 843.6 1042.81 841.2 1030.71 840.2L1021.81 839.5L1020.51 835.6C1017.11 825.8 1009.11 822.9 997.012 827.3Z" fill="#0D1D41"/>
<path d="M991.512 974.2C991.612 985.6 992.112 992.9 993.012 995.5C993.712 997.7 997.412 1004 1001.11 1009.5L1008.01 1019.6V1029.6C1008.01 1040.8 1008.01 1040.7 998.112 1057.2C992.312 1066.8 989.812 1069.5 987.612 1068.7C986.012 1068 975.612 1052.7 974.012 1048.6C973.512 1047.1 973.012 1043 973.012 1039.6C973.012 1034.3 972.412 1032.1 969.312 1025.9C965.412 1018.2 964.612 1011.5 967.012 1007.1C967.512 1006 968.012 1002.9 968.012 1000.1C968.012 997.4 968.412 994 969.012 992.6C969.712 990.6 969.612 990 968.512 990C966.712 990 966.212 991.9 964.612 1003.8C963.912 1009.2 963.012 1014.2 962.612 1014.9C961.412 1016.7 957.212 1015.4 953.312 1011.9C950.012 1009.1 945.412 1007.2 944.312 1008.3C943.512 1009.2 948.712 1013.6 954.512 1016.9C960.012 1020 966.612 1027.4 967.612 1031.7C968.312 1034.5 967.612 1042.8 966.512 1043.8C966.212 1044.2 964.012 1043.4 961.712 1042.1C958.512 1040.3 955.412 1039.6 949.212 1039.2C941.612 1038.8 940.612 1039 937.712 1041C936.012 1042.3 933.312 1043.6 931.612 1043.9C930.012 1044.3 928.512 1045.1 928.212 1045.8C927.712 1047.5 931.612 1048.8 941.212 1050C950.012 1051.1 955.512 1053.8 958.612 1058.6C960.812 1061.9 962.512 1079.8 962.412 1098.5C962.312 1117.7 960.112 1125 950.012 1138.5C941.512 1149.9 936.812 1161.5 940.012 1163.5C940.512 1163.8 943.512 1162.8 946.712 1161.1C957.212 1155.9 962.012 1154.9 984.512 1154C1004.01 1153.1 1006.11 1153.2 1014.01 1155.1C1020.81 1156.7 1041.61 1161 1042.81 1161C1042.91 1161 1043.01 1160.1 1043.01 1158.9C1043.01 1157.7 1040.31 1153.2 1037.01 1148.8C1029.51 1138.9 1019.61 1119.5 1017.61 1111C1016.71 1107.2 1016.01 1099.7 1016.01 1092.9C1016.01 1080.8 1016.91 1076.6 1022.01 1065.5C1023.31 1062.7 1025.51 1057.8 1027.01 1054.4C1031.71 1044 1038.21 1040 1050.61 1040C1053.31 1040 1055.31 1038.9 1060.31 1034.3C1069.31 1026.1 1073.91 1018.5 1065.21 1026.1C1061.71 1029.2 1061.51 1029.2 1055.11 1028.4C1051.51 1028 1045.51 1027.6 1041.91 1027.6C1036.01 1027.6 1034.61 1028 1029.21 1031.3C1021.51 1036.1 1019.71 1036.2 1022.11 1031.9C1023.51 1029.2 1021.41 1026.1 1015.51 1022C1010.71 1018.7 1007.71 1013.8 1003.31 1002C1002.01 998.4 999.812 992.7 998.412 989.2C995.412 981.5 993.012 969.8 993.012 962.4C993.012 959.4 992.612 957 992.212 957C991.812 957 991.512 964.8 991.512 974.2Z" fill="#8E1536"/>
<path d="M110.012 1274.7C100.112 1279.8 97.9123 1284.9 86.0123 1331.5L80.4123 1353.4L67.4123 1357.2C60.3123 1359.2 46.6123 1362.8 37.0123 1365C9.81227 1371.5 7.31227 1372.7 2.61227 1382.2C-0.78773 1389.1 -0.88773 1395.9 2.51227 1402.6C7.91227 1413.3 60.3123 1459.5 98.3123 1486.9C104.012 1491 106.912 1493.8 106.612 1494.7C106.312 1495.4 98.4123 1507.5 89.1123 1521.5C70.9123 1548.8 69.5123 1551.9 71.1123 1560.6C72.8123 1569.7 76.0123 1572.9 96.5123 1586C106.612 1592.4 138.912 1612 139.412 1612C139.512 1612 145.012 1615.1 151.612 1618.8C165.412 1626.7 204.912 1646.7 219.512 1653.3C225.012 1655.8 232.012 1658.9 235.012 1660.3C292.812 1686.6 375.612 1713.5 443.512 1728C449.012 1729.1 456.412 1730.7 460.012 1731.6C479.912 1736 526.912 1743.5 556.512 1747C582.012 1749.9 580.812 1749.6 582.612 1753.2C584.612 1757.1 588.512 1760.7 593.312 1763.2C596.312 1764.7 602.312 1765.6 621.812 1767.2C643.312 1769.1 653.912 1769.4 703.512 1769.4C753.312 1769.4 763.612 1769.1 785.212 1767.2C805.012 1765.5 810.612 1764.7 813.812 1763.1C817.512 1761.2 821.312 1757.8 824.312 1753.7C825.012 1752.6 827.212 1751.7 829.512 1751.4C831.712 1751.2 842.312 1750.1 853.012 1749C908.612 1743.2 970.312 1732 1024.51 1718C1037.51 1714.6 1045.41 1712.4 1069.01 1705.5C1147.21 1682.8 1248.11 1637.3 1317.01 1593.7C1344.41 1576.4 1348.81 1573.2 1351.61 1568.4C1354.81 1562.9 1355.81 1555 1354.01 1549.5C1353.31 1547.4 1345.11 1534.3 1335.81 1520.3C1326.51 1506.3 1318.61 1494.2 1318.41 1493.5C1318.11 1492.8 1318.51 1492 1319.21 1491.7C1323.51 1490.1 1363.21 1458.8 1381.51 1442.6C1404.41 1422.5 1419.31 1407.5 1421.61 1402.5C1427.71 1389.5 1420.41 1373.3 1407.11 1370.1C1384.51 1364.8 1363.51 1359.4 1354.51 1356.7L1343.51 1353.4L1338.81 1334.5C1333.01 1311.4 1326.41 1288.8 1323.81 1283.7C1320.11 1276.4 1309.81 1271.2 1301.21 1272.4C1294.61 1273.3 1291.41 1275.4 1278.01 1288.1C1237.51 1326.1 1194.31 1357.3 1152.11 1379.1C1137.51 1386.6 1132.01 1391.4 1130.11 1398.3C1127.81 1406.4 1129.11 1412 1136.41 1426.5L1143.01 1439.5L1136.71 1442.5C1104.01 1458.2 1045.01 1481.3 1002.51 1494.9C958.712 1508.9 907.612 1521.7 868.512 1528.4C850.712 1531.5 823.512 1535.4 819.612 1535.5C819.112 1535.5 818.012 1532.8 817.312 1529.5C815.612 1522 811.912 1516.6 806.112 1513.2C800.412 1509.9 796.412 1509.8 762.512 1512.4C722.412 1515.5 666.312 1514.9 624.112 1510.9C617.812 1510.3 610.712 1510.1 608.412 1510.5C600.212 1511.7 591.512 1519.7 590.312 1527.2C590.012 1529.3 589.512 1531.2 589.112 1531.4C587.912 1532.2 552.812 1525.9 522.012 1519.5C478.012 1510.3 415.512 1491.7 363.012 1472.3C339.412 1463.6 284.912 1441 282.612 1438.9C282.112 1438.4 284.512 1432.4 288.312 1424.8C294.312 1412.9 295.012 1410.8 295.012 1405.5C295.012 1398.8 292.612 1392.9 288.312 1388.8C286.712 1387.3 280.612 1383.6 274.512 1380.4C230.212 1357.2 187.912 1327 149.912 1291.3C145.712 1287.3 140.712 1282.7 138.912 1280.9C132.212 1274.7 128.412 1272.8 121.812 1272.3C116.312 1271.9 114.812 1272.2 110.012 1274.7ZM131.712 1306C159.612 1333.2 195.612 1360.8 231.312 1382.5C238.312 1386.7 243.912 1390.4 243.712 1390.6C242.712 1391.6 221.512 1393.3 200.512 1393.9C179.012 1394.5 176.212 1394.8 173.512 1396.5C169.512 1399.2 167.212 1401.8 165.312 1405.9C164.512 1407.8 154.112 1423.9 142.312 1441.7L120.712 1474.1L118.112 1472.4C110.812 1467.8 84.2123 1447.5 74.9123 1439.5C73.0123 1437.9 68.7123 1434.2 65.5123 1431.5C51.7123 1419.9 23.3123 1393.3 24.0123 1392.7C24.3123 1392.4 33.1123 1390.1 43.5123 1387.5C61.1123 1383.1 92.2123 1374.3 98.0123 1372C100.312 1371 100.912 1369.4 104.912 1352.2C108.412 1337.1 117.412 1303.1 119.512 1297.2C120.312 1295.1 121.212 1295.8 131.712 1306ZM1309.41 1314C1313.91 1330.1 1318.21 1347.5 1321.81 1363.5L1323.61 1371.5L1340.51 1376.7C1349.91 1379.6 1367.11 1384.3 1378.71 1387.2C1390.41 1390.1 1399.81 1392.9 1399.71 1393.5C1399.21 1395 1370.81 1421.3 1356.91 1433.1C1338.51 1448.8 1309.41 1471.2 1305.61 1472.6C1304.81 1472.9 1295.71 1460.2 1280.81 1437.8C1267.81 1418.4 1256.21 1401.5 1255.11 1400.3C1250.11 1395 1248.21 1394.6 1221.51 1393.9C1199.21 1393.2 1181.61 1391.9 1180.51 1390.8C1180.31 1390.6 1184.91 1387.5 1190.81 1384C1204.81 1375.5 1227.01 1360.6 1239.51 1351.2C1258.91 1336.6 1270.51 1326.8 1296.51 1302.6C1300.41 1299.1 1303.81 1296.4 1304.11 1296.8C1304.51 1297.2 1306.81 1304.9 1309.41 1314ZM190.912 1420.1C194.812 1422.5 239.812 1445 250.512 1450C254.412 1451.8 260.912 1454.8 265.012 1456.7C332.012 1488 425.412 1520.7 493.012 1536.6C496.612 1537.4 504.012 1539.2 509.512 1540.5C525.612 1544.3 582.712 1555 587.212 1555C588.312 1555 587.912 1571.6 586.012 1606.5C585.512 1615.8 584.312 1639.9 583.412 1660C582.612 1680.1 581.512 1703 581.212 1711L580.512 1725.5L574.012 1725.3C570.412 1725.3 557.012 1723.8 544.212 1722.1C399.612 1702.6 266.512 1658.5 151.712 1592.1C146.812 1589.3 142.712 1587 142.512 1587C142.112 1587 122.112 1574.7 112.112 1568.3C107.412 1565.3 101.412 1561.4 98.8123 1559.7C96.1123 1558 94.0123 1556.5 94.0123 1556.3C94.0123 1555.4 186.112 1418 186.812 1418C187.212 1418 189.012 1418.9 190.912 1420.1ZM1285.41 1486.6C1310.61 1524.3 1330.91 1555.8 1330.61 1556.5C1330.11 1558 1301.91 1576 1281.01 1588.2C1195.91 1638 1100.11 1676.2 1001.01 1699.9C962.312 1709.1 932.712 1714.8 897.512 1719.9C862.012 1725 828.312 1728.7 827.212 1727.6C826.712 1727 825.812 1710.9 822.112 1627.5C821.012 1602.7 819.812 1577.2 819.512 1570.7C819.012 1562.4 819.212 1559 820.012 1559C820.612 1559 829.112 1557.9 838.812 1556.5C961.512 1539 1081.81 1498.7 1212.51 1431.6C1226.81 1424.2 1238.81 1418.2 1239.11 1418.1C1239.41 1418 1260.31 1448.9 1285.41 1486.6ZM633.512 1535C639.012 1535.5 657.012 1536.5 673.612 1537.2C706.312 1538.5 749.412 1537.4 778.412 1534.5C786.612 1533.7 793.612 1533.2 794.012 1533.5C794.412 1533.7 795.012 1541.7 795.312 1551.2C795.912 1566.7 797.412 1599.4 802.512 1707.9C803.412 1726.2 803.912 1741.5 803.512 1741.8C802.712 1742.6 776.012 1744.7 748.012 1746.1C710.012 1748 628.812 1745.9 606.612 1742.4L602.812 1741.8L603.412 1731.1C604.112 1720.4 607.612 1643.7 610.512 1576C611.412 1555.9 612.412 1538 612.612 1536.2L613.112 1533L618.312 1533.5C621.212 1533.8 628.012 1534.5 633.512 1535Z" fill="#0D1D41"/>
<path d="M195.912 1479.3C193.012 1484.4 187.412 1494.1 183.512 1501C167.412 1528.9 155.012 1551 155.012 1551.7C155.012 1552.2 157.412 1554 160.312 1555.7L165.512 1558.9L167.012 1556.8C167.812 1555.6 172.612 1547.5 177.612 1538.6C182.512 1529.7 192.312 1512.6 199.312 1500.4C206.312 1488.3 212.012 1477.9 212.012 1477.4C212.012 1476.9 209.612 1475 206.612 1473.3L201.112 1470.2L195.912 1479.3Z" fill="#0D1D41"/>
<path d="M222.712 1483.8C222.112 1484.7 212.412 1503.5 194.112 1539.2L179.912 1566.9L185.912 1570L192.012 1573L200.212 1556.8C204.712 1547.8 210.812 1535.3 213.712 1529C222.612 1509.8 222.112 1510.5 221.512 1517.5C220.712 1525.3 219.312 1550.4 218.512 1570.5L217.812 1586.5L223.512 1589.3C226.712 1590.9 229.612 1591.8 230.012 1591.3C230.412 1590.9 236.512 1579.2 243.512 1565.5C250.512 1551.7 259.812 1533.7 264.112 1525.3C268.512 1516.9 272.012 1509.6 272.012 1509C272.012 1507.9 261.312 1502.3 260.612 1503.1C259.312 1504.5 238.712 1546 235.512 1553.8C233.412 1558.9 231.512 1562.8 231.312 1562.6C231.112 1562.4 231.312 1556 231.912 1548.4C232.512 1540.7 233.212 1528.2 233.512 1520.5C233.812 1512.8 234.312 1502.6 234.612 1497.8L235.212 1489.1L229.212 1486.1C225.812 1484.4 222.912 1483.4 222.712 1483.8Z" fill="#0D1D41"/>
<path d="M284.012 1520.9C275.512 1525.4 273.012 1529.4 261.012 1556.9C253.112 1575.3 251.612 1579.3 251.212 1585.2C250.612 1594.4 252.612 1599.6 259.212 1605.5C264.412 1610.2 273.912 1614 280.412 1614C285.412 1614 292.212 1611.3 296.112 1607.7C299.812 1604.5 304.012 1598.4 304.012 1596.4C304.012 1595.8 301.512 1594.3 298.512 1593.1L293.012 1590.8L290.712 1593.6C289.512 1595.1 288.312 1596.7 288.012 1597C287.012 1598.4 281.112 1601 279.112 1601C275.312 1601 269.012 1597.8 266.912 1594.8C264.112 1590.9 264.612 1582.6 268.212 1575C269.612 1572 273.412 1563.5 276.512 1556.1C279.612 1548.7 283.312 1540.9 284.612 1538.8C290.012 1530.3 299.712 1529.7 307.012 1537.5C309.212 1539.8 309.512 1541.1 309.512 1547.1V1554L314.712 1556.5L320.012 1558.9L321.212 1556.7C321.812 1555.5 322.612 1551.1 322.812 1546.9C323.212 1540.3 322.912 1538.6 320.912 1534.5C318.012 1528.8 311.912 1523.5 305.012 1520.9C298.412 1518.4 288.812 1518.4 284.012 1520.9Z" fill="#0D1D41"/>
<path d="M332.712 1549.2C313.612 1600.3 305.012 1624.4 305.712 1625C306.112 1625.4 315.512 1628.9 326.512 1633C337.512 1637 347.112 1640.5 347.812 1640.8C349.012 1641.2 351.212 1637.1 352.512 1631.8C353.112 1629.4 352.812 1629.1 344.312 1626.1C327.512 1620 321.912 1617.6 322.312 1616.6C326.712 1603.5 331.812 1591 332.612 1591C333.312 1591 339.112 1593 345.612 1595.5C352.212 1597.9 358.112 1600 358.912 1600.2C360.412 1600.5 364.512 1590 363.312 1589C362.812 1588.6 356.612 1586.2 349.312 1583.5L336.112 1578.8L339.412 1569.6C345.112 1554 345.812 1552.7 347.712 1553.5C354.512 1556.2 375.512 1564 376.012 1564C376.912 1564 380.412 1553.1 379.712 1552.4C379.412 1552.1 373.812 1549.8 367.312 1547.4C360.812 1545 351.912 1541.7 347.512 1540.1C343.112 1538.4 339.012 1537 338.412 1537C337.812 1537 335.212 1542.5 332.712 1549.2Z" fill="#0D1D41"/>
<path d="M388.512 1556.1C388.312 1556.9 383.112 1573.9 377.012 1594C370.812 1614.1 365.012 1633.2 363.912 1636.4C361.112 1645.1 361.212 1645.4 367.612 1647.4C370.712 1648.4 373.612 1648.8 374.012 1648.3C374.412 1647.9 376.712 1641.2 379.012 1633.5C381.312 1625.8 383.612 1619.1 384.012 1618.7C384.412 1618.2 387.612 1618.7 391.112 1619.8C404.812 1624 414.012 1623.2 421.012 1617.3C431.712 1608.4 436.512 1587.1 430.312 1575.9C426.012 1567.9 421.312 1565 404.012 1559.7C397.712 1557.8 391.712 1555.9 390.812 1555.5C389.712 1555.1 388.812 1555.3 388.512 1556.1ZM409.712 1575.2C417.012 1578.2 419.512 1581.5 419.412 1588.3C419.312 1595.3 417.412 1600.5 413.312 1605.1C410.112 1608.7 409.312 1609 404.612 1609C399.712 1609 390.612 1606.7 388.712 1605C388.012 1604.4 394.112 1582.7 397.512 1573.1C398.112 1571.4 401.812 1572.1 409.712 1575.2Z" fill="#0D1D41"/>
<path d="M437.112 1574.7C436.412 1577.4 435.712 1580.2 435.412 1581.1C435.112 1582.4 436.812 1583.1 444.212 1585C449.312 1586.2 453.612 1587.4 453.812 1587.5C453.912 1587.6 449.812 1604.9 444.512 1625.8C439.312 1646.8 435.012 1664.6 435.012 1665.3C435.012 1666.2 437.312 1667.3 441.212 1668.3C444.612 1669.2 447.512 1669.8 447.612 1669.7C447.712 1669.6 452.212 1651.9 457.512 1630.5C462.912 1609 467.412 1591.3 467.612 1591.1C467.812 1590.9 471.512 1591.7 475.912 1592.8C486.812 1595.8 486.712 1595.9 488.112 1589.5C488.812 1586.5 489.112 1583.7 488.712 1583.4C488.412 1583.1 477.612 1580.1 464.812 1576.9C452.012 1573.6 440.812 1570.7 439.912 1570.5C438.612 1570.1 438.012 1571 437.112 1574.7Z" fill="#0D1D41"/>
<path d="M501.112 1589.6C495.812 1592.3 491.112 1597.5 488.412 1603.6C487.012 1607 482.012 1630.9 479.512 1646.1C477.312 1659.8 479.012 1667.6 485.512 1674.8C494.112 1684.4 512.612 1686.8 523.112 1679.7C527.512 1676.8 532.612 1669.1 534.512 1662.6C536.912 1654.4 543.012 1620 543.012 1615C543.012 1598 531.312 1587 513.112 1587C507.912 1587 505.212 1587.6 501.112 1589.6ZM521.012 1601.4C526.012 1603.2 529.012 1608.1 529.012 1614.4C529.012 1619.6 524.012 1648.3 521.312 1657.9C518.512 1668.3 510.512 1673 501.512 1669.5C495.112 1667.1 492.512 1663 492.612 1655.5C492.612 1648.2 499.612 1612.9 501.912 1608C505.212 1601 512.712 1598.4 521.012 1601.4Z" fill="#0D1D41"/>
<path d="M1234.01 1465.3C1229.51 1468 1228.51 1469.1 1228.71 1471.1C1230.21 1484.9 1234.21 1518.7 1235.01 1522.9C1235.61 1525.9 1235.81 1528.5 1235.61 1528.7C1235.41 1529 1229.91 1524.7 1223.31 1519.3C1208.01 1506.6 1188.41 1491 1187.61 1491C1187.21 1491 1178.01 1496.3 1176.21 1497.6C1176.01 1497.7 1177.81 1501.4 1180.31 1505.7C1182.71 1510 1193.01 1528.3 1203.01 1546.5C1213.01 1564.6 1221.31 1579.6 1221.51 1579.7C1221.71 1580 1233.01 1574 1233.01 1573.5C1233.01 1572.8 1214.01 1539.3 1207.51 1528.5C1203.51 1521.9 1200.41 1516.3 1200.61 1516.1C1200.91 1515.7 1204.01 1518 1211.31 1524.3C1229.71 1540.3 1236.71 1545.9 1237.91 1546C1238.61 1546 1241.41 1544.8 1244.21 1543.2L1249.21 1540.5L1248.51 1534.5C1247.91 1528.8 1246.31 1517.7 1243.61 1500.7C1242.91 1496.5 1242.61 1493 1243.11 1493C1243.51 1493 1246.21 1497.6 1249.01 1503.2C1257.51 1519.9 1274.21 1550 1275.01 1550C1275.61 1550 1284.61 1545.3 1285.91 1544.4C1286.11 1544.2 1284.91 1541.7 1283.31 1538.8C1281.61 1535.9 1278.61 1530.3 1276.51 1526.5C1274.41 1522.6 1272.41 1519 1272.01 1518.5C1271.61 1517.9 1268.61 1512.5 1265.31 1506.5C1262.01 1500.4 1256.11 1489.8 1252.11 1482.8C1248.21 1475.8 1244.11 1468.3 1242.91 1466C1241.71 1463.8 1240.51 1462 1240.11 1462C1239.81 1462 1237.01 1463.5 1234.01 1465.3Z" fill="#0D1D41"/>
<path d="M1144.31 1511.9C1141.01 1513.5 1139.01 1515.2 1139.01 1516.2C1139.01 1517.1 1141.01 1528.1 1143.41 1540.7C1150.61 1577.8 1154.91 1600.2 1155.61 1604.8C1156.01 1607.1 1156.61 1609.3 1157.11 1609.6C1157.51 1609.8 1160.61 1608.7 1163.81 1607.1L1169.71 1604.1L1167.91 1595.8C1166.91 1591.2 1166.01 1587 1166.01 1586.4C1166.01 1585.4 1181.81 1577.2 1186.71 1575.6C1188.31 1575.1 1189.81 1576.4 1194.51 1582.5C1197.61 1586.6 1200.41 1590 1200.61 1590C1200.91 1590 1203.81 1588.6 1207.11 1587L1213.11 1583.9L1204.71 1573.7C1195.41 1562.3 1188.71 1554 1172.01 1533.5C1155.21 1512.7 1151.91 1509 1150.61 1509.2C1150.01 1509.2 1147.11 1510.5 1144.31 1511.9ZM1157.91 1534.9C1160.11 1538.1 1166.01 1546.1 1171.11 1552.5C1176.11 1558.9 1179.81 1564.5 1179.41 1564.9C1177.21 1566.6 1164.01 1572.3 1163.41 1571.7C1163.01 1571.3 1161.01 1563.5 1158.91 1554.3C1156.81 1545 1154.61 1535.9 1154.01 1534C1152.01 1527.1 1152.81 1527.3 1157.91 1534.9Z" fill="#0D1D41"/>
<path d="M1099.61 1531.5C1087.01 1536.7 1076.51 1541.1 1076.31 1541.4C1076.01 1541.7 1079.61 1551.4 1080.61 1552.8C1080.71 1553 1084.71 1551.5 1089.61 1549.6C1094.41 1547.6 1098.71 1546.3 1099.11 1546.7C1099.41 1547.2 1101.61 1552.2 1103.91 1558C1122.61 1604.5 1129.61 1621 1130.41 1621C1131.71 1621 1142.01 1616 1142.01 1615.4C1142.01 1615.1 1139.51 1608.8 1136.61 1601.6C1124.31 1572 1112.01 1541.7 1112.01 1541C1112.01 1540.6 1115.71 1538.8 1120.31 1537C1124.81 1535.2 1128.81 1533.5 1129.11 1533.1C1130.11 1532.1 1125.21 1522 1123.81 1522.1C1123.11 1522.1 1112.21 1526.4 1099.61 1531.5Z" fill="#0D1D41"/>
<path d="M1050.01 1548.7C1027.61 1556.5 1025.91 1583.6 1047.11 1594.5C1048.71 1595.4 1056.01 1597.6 1063.31 1599.4C1070.61 1601.2 1078.01 1603.5 1079.81 1604.4C1083.31 1606.2 1086.61 1610.7 1087.51 1615.2C1089.11 1622.1 1081.21 1629.3 1072.11 1629.3C1068.31 1629.3 1067.21 1628.8 1064.51 1625.8C1062.71 1623.9 1061.11 1621.7 1060.81 1620.9C1060.41 1619.7 1059.31 1619.9 1054.41 1621.6C1051.21 1622.8 1048.41 1624.3 1048.21 1625.1C1047.81 1627.5 1053.71 1635.7 1057.71 1638.4C1063.91 1642.5 1069.91 1643.6 1077.21 1642.1C1084.71 1640.6 1087.91 1639 1093.21 1634.2C1098.51 1629.4 1101.01 1624 1101.01 1616.9C1101.01 1600.4 1091.71 1591.6 1069.01 1587C1055.71 1584.2 1050.61 1582 1048.01 1577.8C1042.71 1569.1 1048.61 1560 1059.71 1560C1062.31 1560 1064.01 1560.8 1066.41 1563.2C1068.21 1565 1069.91 1567.1 1070.11 1567.9C1070.51 1569 1071.81 1568.8 1076.81 1567C1080.21 1565.8 1083.01 1564.5 1083.01 1564.3C1083.01 1562.7 1078.61 1555.9 1075.81 1553.3C1069.31 1547.1 1059.61 1545.3 1050.01 1548.7Z" fill="#0D1D41"/>
<path d="M1011.81 1562.8C1009.21 1563.7 1006.91 1564.8 1006.51 1565.1C1006.21 1565.5 1007.51 1571.1 1009.51 1577.6C1013.81 1591.6 1018.51 1606.9 1023.51 1623.5C1027.21 1635.5 1033.11 1654.3 1033.41 1654.7C1033.51 1654.8 1036.31 1654.1 1039.51 1653C1043.11 1651.9 1045.51 1650.6 1045.41 1649.8C1045.31 1648.6 1036.11 1618 1025.31 1583C1022.81 1575 1020.41 1566.8 1019.81 1564.7C1018.61 1560.5 1018.41 1560.5 1011.81 1562.8Z" fill="#0D1D41"/>
<path d="M972.812 1572C968.412 1573.1 962.512 1576.7 959.312 1580.1C953.912 1586 952.312 1597.7 955.912 1605.6C959.712 1614 966.912 1618.7 984.012 1624.1C1000.61 1629.2 1005.01 1633 1005.01 1642.1C1005.01 1648.1 1002.51 1651.4 996.212 1653.4C988.512 1656 983.112 1653.9 979.612 1647.2C977.712 1643.5 977.212 1643.4 970.112 1645.6C964.312 1647.3 964.212 1647.8 968.412 1655.5C975.112 1667.9 992.912 1671.2 1007.21 1662.7C1020.21 1654.9 1023.01 1637.1 1013.21 1624.3C1009.71 1619.6 1002.21 1615.7 988.312 1611.4C974.412 1607.2 969.712 1604.1 967.912 1598.1C966.512 1593.3 968.012 1589.6 972.912 1586.3C979.212 1582.1 987.012 1583.9 990.512 1590.4C991.612 1592.4 992.612 1594 992.712 1594C992.912 1594 995.812 1593.2 999.112 1592.3C1004.81 1590.7 1005.11 1590.5 1004.51 1588.1C1003.51 1584 998.812 1577.8 994.312 1574.7C990.912 1572.3 989.012 1571.7 983.312 1571.4C979.612 1571.2 974.812 1571.5 972.812 1572Z" fill="#0D1D41"/>
<path d="M941.912 1581.4C941.712 1581.6 932.312 1583.7 921.012 1586C909.712 1588.3 900.212 1590.4 899.912 1590.6C899.612 1590.8 899.912 1593.8 900.612 1597.2C901.312 1600.7 903.512 1611.1 905.412 1620.5C914.812 1666.1 918.212 1681.6 918.812 1682.2C919.212 1682.6 922.212 1682.3 925.512 1681.5C928.812 1680.8 938.712 1678.8 947.512 1677C956.312 1675.2 963.812 1673.4 964.212 1673.1C964.512 1672.8 964.312 1670 963.612 1667C962.112 1660.6 963.712 1660.8 944.712 1664.6C937.712 1666 931.212 1667 930.312 1666.8C929.112 1666.6 928.012 1663.3 925.912 1653.5C924.412 1646.3 923.512 1640.2 923.912 1639.7C924.312 1639.3 930.812 1637.8 938.312 1636.2C953.612 1633.2 953.412 1633.4 950.912 1624.7C950.112 1621.8 949.512 1621 948.212 1621.4C942.312 1623.2 921.512 1626.9 920.912 1626.3C920.212 1625.5 914.912 1600.7 915.412 1600.3C915.512 1600.1 922.612 1598.6 931.112 1596.9C939.612 1595.1 946.612 1593.6 946.812 1593.5C946.912 1593.4 946.412 1590.7 945.712 1587.5C944.512 1582.2 943.212 1580.2 941.912 1581.4Z" fill="#0D1D41"/>
<path d="M851.312 1597.9C845.212 1598.8 839.812 1599.8 839.512 1600.2C838.812 1600.8 841.112 1617.2 849.112 1671.5C850.812 1683 852.312 1692.7 852.512 1692.9C853.212 1693.5 875.312 1690 881.512 1688.3C889.212 1686.1 897.212 1678.7 899.012 1671.9C900.612 1666.1 899.812 1652.8 896.512 1632C892.812 1608.3 888.612 1601.1 876.612 1597.5C870.512 1595.7 865.812 1595.7 851.312 1597.9ZM874.112 1610.7C879.612 1613.9 880.912 1618.6 885.612 1651.7C887.212 1663.1 887.212 1664.1 885.712 1668.2C883.612 1673.5 879.912 1676 871.212 1677.6C866.612 1678.5 864.812 1678.5 864.212 1677.6C863.812 1677 863.012 1672.9 862.312 1668.5C861.712 1664.1 859.612 1649.5 857.612 1636.1C855.612 1622.7 854.312 1611.3 854.712 1610.9C857.112 1608.6 870.412 1608.5 874.112 1610.7Z" fill="#0D1D41"/>
<path d="M647.512 1606C646.412 1608 645.312 1633.3 643.612 1695L643.512 1699.5L649.812 1700C655.512 1700.5 656.112 1700.3 656.612 1698.5C656.812 1697.4 657.412 1682.2 657.812 1664.6L658.512 1632.8L662.412 1643.6C664.512 1649.6 667.812 1658.1 669.612 1662.5C671.412 1666.9 675.712 1677.2 679.112 1685.5C682.412 1693.7 685.712 1700.8 686.312 1701.2C687.012 1701.6 690.012 1702 693.112 1702H698.712L699.412 1691.2C699.712 1685.3 700.412 1667.2 701.012 1651C701.612 1634.8 702.212 1618.5 702.412 1614.8L702.712 1608.1L697.412 1607.4C694.412 1607.1 691.412 1607 690.612 1607.3C688.912 1608 687.612 1635.6 688.212 1659.3C688.412 1667.4 688.212 1674 687.812 1674C687.512 1674 686.612 1672.3 685.912 1670.2C684.812 1666.8 673.912 1639.4 664.312 1616L660.412 1606.5L654.112 1606C650.612 1605.7 647.712 1605.7 647.512 1606Z" fill="#0D1D41"/>
<path d="M736.812 1607C724.912 1607.3 714.912 1607.7 714.712 1608C714.212 1608.5 716.012 1701.2 716.512 1701.8C716.612 1701.9 727.312 1701.7 740.312 1701.3L764.012 1700.7V1696.6C764.012 1694.3 763.712 1691.4 763.312 1690.2L762.712 1687.8L746.112 1688.2L729.512 1688.5L729.212 1674.4L728.912 1660.3L737.212 1659.7C741.812 1659.3 748.512 1659 752.312 1659H759.012V1653V1647.1L743.812 1646.8L728.512 1646.5L728.212 1633.4L727.912 1620.3L744.212 1619.6C753.212 1619.2 760.612 1618.7 760.812 1618.5C761.412 1617.9 759.712 1606 759.112 1606.2C758.812 1606.3 748.712 1606.7 736.812 1607Z" fill="#0D1D41"/>
<path d="M671 54H667V658H171.5H152V745H152.5H661.5H667.5L665.5 1412.5L707.5 1431L757 1411L756 1400.5L755 1368V1344V1316.27V1248V1216.5V746V745H1274L1275 658H1231H1135.5H1015.5H895.5H853.5H802H756.5H755V657.08V54H671Z" fill="#8E1536" stroke="#8E1536"/>
</g>
<defs>
<clipPath id="clip0_374_21">
<rect width="1423.82" height="1769.36" fill="white"/>
</clipPath>
</defs>
</svg>
