<svg width="130" height="45" viewBox="0 0 130 45" fill="none" xmlns="http://www.w3.org/2000/svg">
<rect width="30" height="30" rx="5" fill="#812A39"/>
<rect x="15" y="15" width="30" height="30" rx="5" fill="#103872"/>
<path d="M78.4806 13.152L74.0886 30H69.1206L66.4326 18.912L63.6486 30H58.6806L54.4086 13.152H58.8006L61.2246 25.416L64.2246 13.152H68.7366L71.6166 25.416L74.0646 13.152H78.4806ZM90.7388 21.36C91.7148 21.568 92.4988 22.056 93.0908 22.824C93.6828 23.576 93.9788 24.44 93.9788 25.416C93.9788 26.824 93.4828 27.944 92.4908 28.776C91.5148 29.592 90.1468 30 88.3868 30H80.5388V13.152H88.1228C89.8348 13.152 91.1708 13.544 92.1308 14.328C93.1068 15.112 93.5948 16.176 93.5948 17.52C93.5948 18.512 93.3308 19.336 92.8028 19.992C92.2908 20.648 91.6028 21.104 90.7388 21.36ZM84.6428 19.968H87.3308C88.0028 19.968 88.5148 19.824 88.8668 19.536C89.2348 19.232 89.4188 18.792 89.4188 18.216C89.4188 17.64 89.2348 17.2 88.8668 16.896C88.5148 16.592 88.0028 16.44 87.3308 16.44H84.6428V19.968ZM87.6668 26.688C88.3548 26.688 88.8828 26.536 89.2508 26.232C89.6348 25.912 89.8268 25.456 89.8268 24.864C89.8268 24.272 89.6268 23.808 89.2268 23.472C88.8428 23.136 88.3068 22.968 87.6188 22.968H84.6428V26.688H87.6668ZM110.951 13.152V30H106.847V23.064H100.463V30H96.3591V13.152H100.463V19.752H106.847V13.152H110.951ZM120.01 30.168C118.778 30.168 117.674 29.968 116.698 29.568C115.722 29.168 114.938 28.576 114.346 27.792C113.77 27.008 113.466 26.064 113.434 24.96H117.802C117.866 25.584 118.082 26.064 118.45 26.4C118.818 26.72 119.298 26.88 119.89 26.88C120.498 26.88 120.978 26.744 121.33 26.472C121.682 26.184 121.858 25.792 121.858 25.296C121.858 24.88 121.714 24.536 121.426 24.264C121.154 23.992 120.81 23.768 120.394 23.592C119.994 23.416 119.418 23.216 118.666 22.992C117.578 22.656 116.69 22.32 116.002 21.984C115.314 21.648 114.722 21.152 114.226 20.496C113.73 19.84 113.482 18.984 113.482 17.928C113.482 16.36 114.05 15.136 115.186 14.256C116.322 13.36 117.802 12.912 119.626 12.912C121.482 12.912 122.978 13.36 124.114 14.256C125.25 15.136 125.858 16.368 125.938 17.952H121.498C121.466 17.408 121.266 16.984 120.898 16.68C120.53 16.36 120.058 16.2 119.482 16.2C118.986 16.2 118.586 16.336 118.282 16.608C117.978 16.864 117.826 17.24 117.826 17.736C117.826 18.28 118.082 18.704 118.594 19.008C119.106 19.312 119.906 19.64 120.994 19.992C122.082 20.36 122.962 20.712 123.634 21.048C124.322 21.384 124.914 21.872 125.41 22.512C125.906 23.152 126.154 23.976 126.154 24.984C126.154 25.944 125.906 26.816 125.41 27.6C124.93 28.384 124.226 29.008 123.298 29.472C122.37 29.936 121.274 30.168 120.01 30.168Z" fill="black"/>
</svg>
