<svg width="368" height="470" viewBox="0 0 368 470" fill="none" xmlns="http://www.w3.org/2000/svg">
<path d="M255.602 3.595C232.402 24.095 219.502 32.095 186.502 46.495C120.002 75.595 115.302 77.795 104.102 85.295C90.5017 94.495 79.1017 108.095 79.1017 115.295C79.1017 116.295 78.1017 117.395 76.8017 117.895C73.6017 119.095 61.0017 127.295 53.8017 132.795C26.5017 153.595 26.8017 198.195 54.3017 211.895C63.2017 216.395 67.9017 215.895 69.9017 210.095C70.8017 207.595 70.5017 206.295 68.0017 201.595C65.9017 197.595 65.1017 194.795 65.3017 192.195C65.6017 188.895 66.1017 188.195 70.6017 185.795C73.5017 184.195 78.0017 182.895 81.6017 182.495C95.5017 180.995 107.202 178.995 115.602 176.495C120.502 175.095 124.802 174.095 125.302 174.195C125.802 174.395 121.502 176.495 115.902 178.895C99.9017 185.795 91.5017 191.895 85.6017 200.695C83.1017 204.495 83.0017 205.295 84.1017 207.895C86.0017 212.495 89.4017 213.395 98.7017 211.495C103.002 210.595 106.802 209.695 107.202 209.495C107.502 209.295 114.802 207.495 123.502 205.595C132.102 203.595 141.202 201.095 143.802 199.995C149.702 197.395 152.302 197.495 154.902 200.295C157.702 203.195 157.802 208.695 155.202 213.895C151.302 221.395 145.302 228.295 117.202 257.195C104.402 270.295 100.902 274.795 96.4017 283.495C95.0017 286.195 92.5017 289.995 91.0017 291.795C84.8017 298.895 80.1017 312.795 80.1017 324.195C80.1017 327.595 79.4017 328.995 75.4017 333.395C72.9017 336.195 69.0017 341.195 66.9017 344.495L63.0017 350.495L71.4017 350.995C81.2017 351.595 86.3017 354.195 90.8017 361.195C93.2017 364.795 93.6017 366.295 93.5017 372.395C93.5017 378.295 92.9017 380.495 90.4017 385.495C86.6017 392.695 78.6017 401.995 76.2017 401.995C75.3017 401.995 72.9017 400.395 71.0017 398.395C67.5017 394.695 61.3017 390.995 58.7017 390.995C55.7017 390.995 53.8017 395.595 54.3017 401.495C55.5017 416.195 70.6017 422.495 98.3017 419.995C118.202 418.195 131.202 412.995 141.102 402.895C150.802 392.895 156.002 382.095 154.502 374.395C153.202 367.595 145.102 364.595 141.302 369.495C140.202 370.795 138.402 375.095 137.102 378.995C135.902 382.795 134.602 385.995 134.202 385.995C131.702 385.895 122.402 379.995 121.002 377.495C117.002 370.695 116.702 356.595 120.402 347.795C125.402 335.795 139.902 331.295 158.002 335.995L165.402 337.895L164.702 332.495C163.902 325.295 165.602 317.995 169.402 312.295C173.102 306.895 180.302 300.995 183.302 300.995C186.302 300.995 193.302 307.095 197.202 313.195C200.402 318.195 200.602 318.895 200.602 327.695C200.602 332.795 200.902 336.995 201.302 336.995C201.702 336.995 204.602 336.295 207.802 335.495C215.202 333.595 226.702 333.595 232.202 335.495C243.702 339.595 250.002 352.495 247.902 367.195C246.502 376.095 243.202 381.395 237.602 383.495C235.202 384.495 232.602 384.995 231.902 384.695C231.102 384.495 229.702 381.495 228.702 378.195C225.502 367.295 219.802 364.095 214.002 369.895C211.702 372.295 211.102 373.695 211.102 377.295C211.102 386.895 222.602 403.495 233.902 410.295C246.402 417.895 269.402 422.095 287.202 420.095C297.702 418.895 303.202 416.795 307.002 412.395C313.302 405.295 313.702 392.895 307.702 391.395C304.302 390.595 301.402 392.295 296.002 398.195L291.302 403.295L287.302 400.095C278.602 393.295 272.102 381.195 272.102 372.195C272.202 363.295 278.302 354.695 286.602 351.995C290.202 350.795 302.502 351.095 306.702 352.495C308.502 352.995 309.102 352.195 311.802 346.295C318.902 330.795 320.502 321.495 319.902 300.895L319.402 285.495L321.302 289.795C325.202 298.595 326.302 307.395 325.802 325.295C325.602 334.495 325.502 341.895 325.602 341.795C326.302 340.995 332.402 321.295 334.302 313.495C336.102 305.895 336.502 301.595 336.602 286.495C336.602 265.895 335.302 259.595 328.002 246.195L324.002 238.995H329.802C333.302 238.995 337.302 238.195 339.802 237.095C344.002 235.095 353.102 227.495 353.102 225.895C353.102 225.395 349.402 225.295 344.902 225.595C334.002 226.395 329.602 225.095 323.102 219.295C314.602 211.595 292.302 184.495 293.502 183.295C294.002 182.795 307.402 194.895 311.102 199.095C311.402 199.495 313.802 201.095 316.502 202.795C322.002 206.295 331.102 208.595 333.702 207.195C335.102 206.395 334.702 205.795 331.002 203.195C325.402 199.395 319.202 192.695 315.802 186.895C313.402 182.795 309.002 172.995 300.602 152.695L297.802 145.895L293.202 146.495L288.602 147.095L291.502 144.795C301.802 136.795 305.602 131.795 306.802 124.395C307.402 120.695 306.202 119.895 304.002 122.695C300.102 127.295 290.002 128.295 283.002 124.695C277.502 121.895 267.102 114.295 267.102 112.995C267.102 111.995 271.702 113.495 280.202 117.295C287.102 120.395 293.102 121.695 293.102 120.095C293.102 119.495 291.802 116.595 290.202 113.695C288.502 110.895 285.602 104.495 283.702 99.595C277.402 83.895 269.902 74.095 259.202 67.495L254.802 64.795L255.502 54.695C257.502 24.795 257.402 25.395 255.902 26.995C255.102 27.795 253.402 32.495 252.102 37.495C247.802 54.195 242.102 62.495 231.602 67.395C226.902 69.595 201.602 74.795 200.502 73.795C200.302 73.495 205.502 69.995 212.102 66.095C224.102 58.895 234.402 51.295 236.902 47.795C238.502 45.595 240.502 45.395 239.702 47.595C239.402 48.495 238.802 50.395 238.402 51.795L237.802 54.495L240.102 52.495C243.502 49.495 244.802 46.295 246.402 36.895C247.202 32.195 249.002 26.095 250.302 23.395C251.702 20.695 254.702 14.795 257.002 10.295C262.802 -1.20499 262.502 -2.505 255.602 3.595ZM136.402 114.595C139.002 115.495 141.102 116.795 141.102 117.595C141.102 120.395 134.702 125.995 130.802 126.695C126.602 127.295 118.102 124.595 118.102 122.595C118.102 120.895 125.202 114.295 127.602 113.695C131.002 112.895 131.602 112.995 136.402 114.595ZM94.5017 125.595C104.102 128.095 110.002 131.495 118.102 139.495C126.202 147.495 130.502 149.995 145.202 155.295C166.402 162.995 169.202 165.995 164.102 175.895C159.002 185.895 143.502 194.095 119.602 199.395C110.802 201.295 101.002 203.595 97.8017 204.295C94.7017 205.095 91.9017 205.395 91.7017 205.095C90.9017 203.895 99.4017 195.695 105.402 191.895C108.602 189.795 114.402 186.895 118.402 185.395C131.402 180.495 145.502 173.295 148.502 170.195L151.302 167.195L148.302 165.595C142.202 162.395 138.402 162.595 123.102 166.995C104.902 172.195 98.3017 173.595 85.1017 174.995C72.4017 176.295 63.5017 179.995 60.2017 185.395C57.3017 189.995 57.5017 196.495 60.5017 202.295C61.9017 204.795 62.7017 207.095 62.4017 207.395C61.4017 208.295 52.7017 203.295 49.4017 199.795C40.5017 190.495 38.2017 172.295 44.0017 156.895C47.9017 146.695 54.3017 140.195 71.5017 129.095C80.4017 123.295 83.7017 122.795 94.5017 125.595ZM252.802 189.695C246.402 196.195 239.602 203.595 237.602 206.195C235.602 208.895 233.802 210.995 233.502 210.995C232.602 210.995 234.102 206.895 237.302 200.595C238.902 197.395 239.902 194.495 239.602 194.195C239.302 193.895 237.302 195.095 235.002 196.895C232.802 198.695 230.802 199.995 230.502 199.695C229.902 199.095 236.402 191.195 239.902 188.195C246.202 182.795 256.302 178.295 262.502 178.095C263.902 177.995 260.802 181.695 252.802 189.695ZM264.002 205.695C257.702 212.195 250.702 219.695 248.402 222.495L244.202 227.495L245.702 223.095C246.502 220.595 248.202 216.695 249.602 214.295C250.902 211.895 251.702 209.995 251.502 209.995C250.402 209.995 246.502 212.395 244.402 214.295C241.202 217.195 241.502 214.795 244.902 210.795C251.102 203.395 257.202 198.895 265.602 195.895C276.602 191.895 276.402 192.995 264.002 205.695ZM285.302 212.595C285.702 212.895 282.202 216.695 277.802 220.995C273.302 225.295 266.502 232.595 262.602 237.295C258.802 241.995 255.502 245.495 255.302 244.995C255.102 244.495 256.602 240.695 258.502 236.595C260.402 232.395 261.702 228.995 261.302 228.995C260.902 228.995 258.902 230.095 256.802 231.495C252.102 234.795 252.002 233.195 256.702 227.995C262.302 221.895 269.902 216.695 277.102 214.295C284.302 211.795 284.502 211.795 285.302 212.595Z" fill="#0D1D41"/>
<path d="M177.102 310.895C173.402 314.595 171.802 317.195 170.502 321.495C169.002 326.895 169.002 327.795 170.602 335.695C171.502 340.395 172.102 344.395 171.902 344.495C171.702 344.695 167.702 343.695 163.102 342.295C151.302 338.695 137.302 338.495 132.002 341.795C127.302 344.695 125.402 347.595 123.502 355.095C122.202 360.295 122.102 362.195 123.202 367.795C124.402 374.295 127.402 378.995 130.302 378.995C131.002 378.995 132.502 376.695 133.502 373.795C136.102 366.395 140.802 361.995 145.902 361.995C148.302 361.995 151.102 362.895 153.202 364.295C163.002 370.895 161.502 385.695 149.502 400.995C136.502 417.495 117.002 425.195 87.6017 425.395C71.4017 425.495 62.7017 422.895 56.1017 416.195C49.3017 409.095 47.2017 399.395 50.9017 391.995C54.9017 383.995 63.3017 384.495 72.9017 393.395L76.2017 396.495L80.2017 391.995C86.2017 384.995 88.6017 379.495 88.6017 372.295C88.6017 366.995 88.2017 365.695 85.5017 362.395C81.1017 356.895 73.5017 354.395 66.3017 355.995C61.1017 357.195 56.4017 360.695 53.0017 365.895L51.5017 368.295L42.5017 359.695C29.6017 347.495 27.4017 346.495 12.8017 346.595C6.30171 346.695 0.60171 347.095 0.10171 347.595C-0.49829 348.195 1.60171 351.895 5.20171 356.995C26.2017 386.295 39.5017 420.295 43.7017 455.495C44.7017 463.195 45.5017 469.595 45.6017 469.795C45.7017 469.895 49.4017 468.895 53.7017 467.595C79.1017 459.595 107.402 453.395 135.102 449.895C160.102 446.695 200.702 446.695 227.102 449.895C254.402 453.195 282.502 458.895 308.102 466.395C314.402 468.195 319.902 469.595 320.202 469.395C320.602 469.195 321.202 465.295 321.502 460.795C324.702 423.795 339.402 386.095 363.702 352.895C365.602 350.295 367.102 347.995 367.102 347.595C367.102 347.295 361.002 346.995 353.602 346.995C337.302 346.995 337.102 347.095 324.802 358.395C319.902 362.895 315.602 366.595 315.102 366.795C314.602 366.995 312.102 364.895 309.402 362.195C303.302 355.895 298.102 354.095 291.302 355.795C286.002 357.195 282.602 359.395 279.702 363.395C278.002 365.595 277.602 367.595 277.602 372.795C277.702 380.495 279.602 384.895 285.902 391.995L289.802 396.395L294.902 391.795C301.102 386.295 305.502 385.095 310.602 387.595C317.202 390.695 318.802 398.295 315.102 408.395C312.402 415.595 307.302 420.095 298.502 423.095C292.402 425.195 289.902 425.495 277.602 425.395C260.302 425.195 247.502 422.695 236.302 417.295C217.902 408.295 203.002 385.395 206.902 372.095C208.602 366.395 213.102 362.795 218.902 362.195C223.502 361.795 224.102 361.995 227.302 365.295C229.302 367.295 231.602 371.095 232.602 373.895C233.502 376.695 234.702 378.995 235.202 378.995C241.902 378.995 245.902 362.595 241.802 351.795C239.602 345.995 233.502 340.395 228.502 339.395C221.902 338.195 209.102 339.595 201.702 342.395C197.902 343.895 194.602 344.795 194.302 344.495C194.002 344.195 194.402 340.395 195.302 335.995C197.102 326.695 196.502 322.095 192.702 315.595C190.302 311.595 184.602 305.995 182.702 305.995C182.302 305.995 179.802 308.195 177.102 310.895Z" fill="#8E1536"/>
</svg>
