<svg width="103" height="121" viewBox="0 0 103 121" fill="none" xmlns="http://www.w3.org/2000/svg">
<path opacity="0.15" d="M95.8883 10.4813H41.369C37.4416 10.4813 34.2578 13.661 34.2578 17.5833V111.685C34.2578 115.607 37.4416 118.787 41.369 118.787H95.8883C99.8157 118.787 103 115.607 103 111.685V17.5833C103 13.661 99.8157 10.4813 95.8883 10.4813Z" fill="#676A72"/>
<path opacity="0.15" d="M11.1473 6.3385C9.26134 6.3385 7.45257 7.08674 6.11896 8.41862C4.78535 9.7505 4.03613 11.5569 4.03613 13.4405V107.542C4.03613 111.448 4.27317 114.644 8.18434 114.644L7.59174 119.378C11.5029 119.378 16.4808 111.448 16.4808 107.542L18.2586 13.4405C18.2586 12.5078 18.0746 11.5843 17.7173 10.7227C17.3599 9.86102 16.8361 9.0781 16.1757 8.41862C15.5154 7.75914 14.7315 7.23601 13.8687 6.87911C13.0059 6.5222 12.0812 6.3385 11.1473 6.3385Z" fill="#676A72"/>
<path d="M92.4337 6.04858H30.2462C27.173 6.04858 24.6816 8.53667 24.6816 11.6059V109.388C24.6816 112.458 27.173 114.946 30.2462 114.946H92.4337C95.5069 114.946 97.9982 112.458 97.9982 109.388V11.6059C97.9982 8.53667 95.5069 6.04858 92.4337 6.04858Z" fill="#676A72"/>
<path d="M52.0306 112.413C51.1742 113.321 50.111 114.009 48.9313 114.419C47.2815 114.888 45.5665 115.088 43.8527 115.011L37.506 115.052C33.5415 115.052 28.3977 116.017 25.9443 112.904C24.1665 110.625 24.6702 106.311 24.6702 103.434C24.6702 74.5096 24.6821 45.5848 24.7058 16.6601C24.7058 14.3578 24.1547 11.9254 25.3695 9.96644C27.6154 6.35627 30.8629 6.00117 35.1178 6.0426L44.9609 6.11362C45.2605 6.07576 45.5648 6.10153 45.8538 6.18924C46.1428 6.27695 46.41 6.42462 46.6379 6.62259C47.0646 7.13157 46.9283 7.88319 46.7565 8.52237C44.8009 15.8256 41.2216 22.1345 37.903 28.834C32.2318 40.3097 31.7992 52.5369 32.6348 65.0778C33.0259 70.9488 33.6718 77.0328 36.1252 82.4481C38.4186 87.5023 42.7683 90.7041 47.1535 93.8408C53.0262 98.0251 58.2766 105.885 52.0306 112.413Z" fill="#818487"/>
<path d="M98.2474 12.4996L97.0622 106.133C97.0622 111.004 94.1585 114.946 90.5436 114.946H68.8604C71.3019 114.946 75.9716 104.884 76.8605 103.109C84.4754 87.8634 85.7198 69.5995 85.1095 52.8447C84.7713 45.5941 84.0552 38.3659 82.9643 31.1896C82.2901 26.9031 81.9828 22.5671 82.0457 18.2285C82.0813 16.9797 82.8931 6.04858 84.3154 6.04858H90.591C94.1526 6.04858 98.2474 7.62878 98.2474 12.4996Z" fill="#4E515C"/>
<path d="M34.5014 5.58093H32.7236V114.478H34.5014V5.58093Z" fill="#515862"/>
<path opacity="0.15" d="M32.777 6.3385H31.5918V115.236H32.777V6.3385Z" fill="#2B0F2B"/>
<path d="M98.0045 72.2331H24.682L24.2139 53.9277H98.0045V72.2331Z" fill="white"/>
<path d="M98.2471 54.1704L97.0619 71.2921H24.3319L24.2549 68.475H86.5195C88.3128 68.475 90.0326 67.7636 91.3006 66.4972C92.5687 65.2308 93.2811 63.5132 93.2811 61.7222V53.5786L98.2471 54.1704Z" fill="#CFE1F0"/>
<path d="M98.247 77.6602V106.133C98.247 111.004 96.1966 114.946 93.6603 114.946H92.6055V92.0713C92.6055 85.9991 94.8573 80.6667 98.247 77.6602Z" fill="#3E4250"/>
<path d="M92.4461 115.833H30.223C28.5119 115.832 26.8713 115.152 25.6614 113.944C24.4515 112.736 23.7711 111.097 23.7695 109.388V11.6058C23.7711 9.89696 24.4515 8.25855 25.6614 7.05021C26.8713 5.84187 28.5119 5.16233 30.223 5.16077H92.4461C94.1571 5.16233 95.7977 5.84187 97.0076 7.05021C98.2175 8.25855 98.8979 9.89696 98.8995 11.6058V109.394C98.8964 111.102 98.2152 112.739 97.0055 113.946C95.7958 115.153 94.1561 115.832 92.4461 115.833V115.833ZM30.223 6.93626C28.9834 6.93783 27.795 7.4303 26.9185 8.30567C26.042 9.18104 25.5489 10.3679 25.5473 11.6058V109.394C25.5505 110.631 26.0443 111.816 26.9206 112.691C27.797 113.565 28.9844 114.056 30.223 114.058H92.4461C93.6856 114.056 94.874 113.564 95.7505 112.688C96.627 111.813 97.1201 110.626 97.1217 109.388V11.6058C97.1201 10.3679 96.627 9.18104 95.7505 8.30567C94.874 7.4303 93.6856 6.93783 92.4461 6.93626H30.223Z" fill="#515862"/>
<path d="M93.0563 16.376H91.6696C91.015 16.376 90.4844 16.9059 90.4844 17.5596V30.213C90.4844 30.8667 91.015 31.3967 91.6696 31.3967H93.0563C93.7108 31.3967 94.2415 30.8667 94.2415 30.213V17.5596C94.2415 16.9059 93.7108 16.376 93.0563 16.376Z" fill="#3E4250"/>
<path d="M28.7889 87.7213H28.0955C27.7682 87.7213 27.5029 87.9863 27.5029 88.3131V100.274C27.5029 100.601 27.7682 100.866 28.0955 100.866H28.7889C29.1162 100.866 29.3815 100.601 29.3815 100.274V88.3131C29.3815 87.9863 29.1162 87.7213 28.7889 87.7213Z" fill="#A4A4A4"/>
<path d="M28.7889 102.742H28.0955C27.7682 102.742 27.5029 103.007 27.5029 103.334V104.026C27.5029 104.353 27.7682 104.618 28.0955 104.618H28.7889C29.1162 104.618 29.3815 104.353 29.3815 104.026V103.334C29.3815 103.007 29.1162 102.742 28.7889 102.742Z" fill="#A4A4A4"/>
<path d="M97.9982 71.3453H24.6816V73.1208H97.9982V71.3453Z" fill="#515862"/>
<path d="M98.0045 53.0399H24.2139V54.8154H98.0045V53.0399Z" fill="#515862"/>
<path d="M84.6944 0.420166H81.2218C79.5854 0.420166 78.2588 1.74503 78.2588 3.37932V116.686C78.2588 118.32 79.5854 119.645 81.2218 119.645H84.6944C86.3309 119.645 87.6574 118.32 87.6574 116.686V3.37932C87.6574 1.74503 86.3309 0.420166 84.6944 0.420166Z" fill="#ED4043"/>
<path d="M84.2259 121H80.7533C79.7322 120.998 78.7533 120.593 78.0313 119.872C77.3093 119.15 76.9029 118.173 76.9014 117.153V3.84691C76.9029 2.82712 77.3093 1.84956 78.0313 1.12846C78.7533 0.407366 79.7322 0.00156529 80.7533 0L84.2259 0C85.247 0.00156529 86.2259 0.407366 86.9479 1.12846C87.6699 1.84956 88.0763 2.82712 88.0778 3.84691V117.153C88.0763 118.173 87.6699 119.15 86.9479 119.872C86.2259 120.593 85.247 120.998 84.2259 121V121ZM80.7533 1.7755C80.2032 1.7755 79.6756 1.99373 79.2867 2.3822C78.8977 2.77066 78.6792 3.29753 78.6792 3.84691V117.153C78.6792 117.702 78.8977 118.229 79.2867 118.618C79.6756 119.006 80.2032 119.225 80.7533 119.225H84.2259C84.776 119.225 85.3036 119.006 85.6925 118.618C86.0815 118.229 86.3 117.702 86.3 117.153V3.84691C86.3 3.29753 86.0815 2.77066 85.6925 2.3822C85.3036 1.99373 84.776 1.7755 84.2259 1.7755H80.7533Z" fill="#515862"/>
<path d="M80.4393 1.82874H79.8467V119.645H80.4393V1.82874Z" fill="#515862"/>
<path opacity="0.35" d="M82.3182 1.82874H81.7256V119.645H82.3182V1.82874Z" fill="#2B0F2B"/>
<path d="M82.911 1.82874H82.3184V119.645H82.911V1.82874Z" fill="#515862"/>
<path d="M84.7889 1.82874H84.1963V119.645H84.7889V1.82874Z" fill="#515862"/>
<path d="M13.1853 106.968V9.31542C13.1743 7.70267 12.5264 6.15944 11.3823 5.02125C10.2382 3.88306 8.69041 3.24195 7.07554 3.2373V3.2373C5.45658 3.24199 3.90528 3.88636 2.7605 5.02965C1.61572 6.17294 0.970511 7.72224 0.96582 9.33909V106.991L5.54663 117.556C5.6763 117.852 5.88972 118.104 6.16076 118.281C6.43179 118.458 6.74867 118.553 7.07258 118.553C7.39648 118.553 7.71336 118.458 7.9844 118.281C8.25543 118.104 8.46885 117.852 8.59852 117.556L13.1853 106.968Z" fill="#FEC451"/>
<path d="M13.1852 11.2152V108.867L9.33921 117.745C9.14771 118.185 8.83175 118.559 8.43012 118.822C8.02849 119.085 7.55869 119.225 7.07843 119.225C6.59818 119.225 6.12838 119.085 5.72675 118.822C5.32512 118.559 5.00915 118.185 4.81766 117.745L0.97168 108.867V98.9542C1.19188 98.9329 1.40992 98.8933 1.62354 98.8358C3.72727 98.3269 5.33915 96.5277 6.14509 94.5155C6.95102 92.5032 7.11103 90.3312 7.23547 88.1829C8.16586 72.3632 8.2666 56.508 7.97622 40.6647C7.834 33.0419 7.60881 25.3895 8.56883 17.8318C9.0235 14.0105 9.85724 10.2437 11.0578 6.58704C11.7273 7.15812 12.2645 7.8679 12.6318 8.6671C12.9992 9.4663 13.188 10.3358 13.1852 11.2152V11.2152Z" fill="#F7AC3D"/>
<path d="M13.1853 105.938V106.968L8.53334 117.686C8.41035 117.97 8.20678 118.212 7.94774 118.382C7.6887 118.552 7.38551 118.643 7.07554 118.643C6.76557 118.643 6.46238 118.552 6.20334 118.382C5.9443 118.212 5.74073 117.97 5.61774 117.686L0.96582 106.968V105.938L4.14809 103.215L7.06369 100.848L9.97928 103.215L13.1853 105.938Z" fill="#EEC3A6"/>
<path d="M12.2495 105.938V106.968L7.55014 117.775C7.43007 118.047 7.23338 118.278 6.98401 118.44C6.73464 118.603 6.44337 118.689 6.14568 118.689C5.84798 118.689 5.55671 118.603 5.30734 118.44C5.05798 118.278 4.86128 118.047 4.74121 117.775L9.44054 106.944V105.938L6.24642 103.215L4.74121 102.032L6.1516 100.896L9.0672 103.263L12.2495 105.938Z" fill="#DFAE8F"/>
<path d="M0.96582 25.7624H13.1853V18.2521H0.96582V25.7624Z" fill="white"/>
<path d="M12.2488 19.1931V26.7035H8.10059V19.1931H12.2488Z" fill="#CFE1F0"/>
<path d="M12.2729 106.251L8.66993 103.352C8.19533 102.973 7.60607 102.767 6.99879 102.767C6.39151 102.767 5.80225 102.973 5.32766 103.352L1.72464 106.251L0.592773 104.867L4.19579 101.967C4.98663 101.336 5.96878 100.992 6.98101 100.992C7.99324 100.992 8.9754 101.336 9.76624 101.967L13.3693 104.867L12.2729 106.251Z" fill="#515862"/>
<path d="M13.1081 25.3481H0.888672V27.1236H13.1081V25.3481Z" fill="#515862"/>
<path d="M13.1141 9.3391V18.2521H0.96582V9.3391C0.970568 7.82796 1.53391 6.37181 2.54776 5.25005C3.5616 4.1283 4.95452 3.41997 6.45923 3.26099C6.64084 3.25138 6.82282 3.25138 7.00442 3.26099C7.20986 3.26099 7.40739 3.26099 7.59703 3.26099C9.10601 3.41451 10.5047 4.12046 11.5234 5.24277C12.5421 6.36508 13.1088 7.82429 13.1141 9.3391V9.3391Z" fill="#ED4043"/>
<path d="M13.1141 10.2742V19.1931H0.96582V15.6421C0.96582 15.944 4.20735 15.3995 4.52143 15.3107C5.44702 15.0844 6.2909 14.6043 6.95789 13.9246C7.62487 13.2449 8.08843 12.3926 8.2963 11.4638C8.57293 9.95109 8.36559 8.38979 7.70369 7.00139C7.4548 6.40956 6.51849 4.13101 5.71848 4.33815C5.96194 4.27568 6.20945 4.2302 6.45923 4.20203C6.64084 4.19242 6.82282 4.19242 7.00442 4.20203C7.20986 4.20203 7.40739 4.20203 7.59703 4.20203C9.10499 4.35544 10.5028 5.06055 11.5214 6.18161C12.54 7.30268 13.1073 8.76043 13.1141 10.2742Z" fill="#B7202F"/>
<path d="M6.99866 119.651C6.52934 119.655 6.0693 119.52 5.67685 119.263C5.2844 119.006 4.9772 118.638 4.79418 118.207L1.52302 110.673C0.513544 108.353 -0.00496763 105.851 3.58693e-05 103.322V9.33914C3.58693e-05 7.4854 0.737388 5.70759 2.04988 4.3968C3.36238 3.086 5.14251 2.34961 6.99866 2.34961C8.8548 2.34961 10.6349 3.086 11.9474 4.3968C13.2599 5.70759 13.9973 7.4854 13.9973 9.33914V103.322C13.9929 105.853 13.4643 108.356 12.4447 110.673L9.1735 118.213C8.99153 118.638 8.68852 119.002 8.30196 119.257C7.9154 119.513 7.46227 119.65 6.99866 119.651ZM6.99866 4.14286C5.61756 4.14441 4.29322 4.69181 3.31497 5.66546C2.33673 6.63911 1.7841 7.95985 1.77784 9.33914V103.322C1.77479 105.607 2.24489 107.868 3.1586 109.962L6.42976 117.502C6.47774 117.614 6.5575 117.709 6.65915 117.776C6.7608 117.843 6.87987 117.879 7.00162 117.879C7.12337 117.879 7.24244 117.843 7.34409 117.776C7.44573 117.709 7.52549 117.614 7.57348 117.502L10.8446 109.962C11.7575 107.867 12.2276 105.607 12.2254 103.322V9.33914C12.2191 7.95883 11.6657 6.63719 10.6862 5.66337C9.70664 4.68955 8.38078 4.14285 6.99866 4.14286V4.14286Z" fill="#515862"/>
<path d="M13.1081 17.8378H0.888672V19.6133H13.1081V17.8378Z" fill="#515862"/>
<path d="M10.1571 29.5206H9.56445V96.6403H10.1571V29.5206Z" fill="#515862"/>
<path d="M7.33674 29.5206H6.74414V96.6403H7.33674V29.5206Z" fill="#515862"/>
<path d="M4.51545 29.5206H3.92285V96.6403H4.51545V29.5206Z" fill="#515862"/>
</svg>
