<svg width="208" height="207" viewBox="0 0 208 207" fill="none" xmlns="http://www.w3.org/2000/svg">
<g clip-path="url(#clip0_217:64)">
<path d="M189.262 18.7646H17.6333C9.84254 18.7646 3.52686 25.0656 3.52686 32.8383V182.957C3.52686 190.73 9.84254 197.031 17.6333 197.031H189.262C197.053 197.031 203.369 190.73 203.369 182.957V32.8383C203.369 25.0656 197.053 18.7646 189.262 18.7646Z" fill="#812A39"/>
<path d="M202.193 34.0112V42.2208C202.193 38.4882 200.707 34.9085 198.062 32.2692C195.416 29.6299 191.828 28.1471 188.087 28.1471H16.458C12.7168 28.1471 9.12873 29.6299 6.48325 32.2692C3.83778 34.9085 2.35156 38.4882 2.35156 42.2208V34.0112C2.35156 30.2786 3.83778 26.6989 6.48325 24.0596C9.12873 21.4203 12.7168 19.9375 16.458 19.9375H188.087C191.828 19.9375 195.416 21.4203 198.062 24.0596C200.707 26.6989 202.193 30.2786 202.193 34.0112V34.0112Z" fill="#BF354C"/>
<path d="M188.674 198.204H17.0456C12.8385 198.198 8.80562 196.528 5.8308 193.56C2.85599 190.592 1.182 186.568 1.17578 182.371L1.17578 32.2523C1.182 28.0551 2.85599 24.0315 5.8308 21.0636C8.80562 18.0957 12.8385 16.4256 17.0456 16.4194H188.674C192.881 16.4256 196.914 18.0957 199.889 21.0636C202.864 24.0315 204.538 28.0551 204.544 32.2523V182.371C204.538 186.568 202.864 190.592 199.889 193.56C196.914 196.528 192.881 198.198 188.674 198.204ZM17.0456 19.9378C13.7729 19.941 10.6352 21.2394 8.32107 23.5481C6.00695 25.8568 4.70551 28.9873 4.7024 32.2523V182.371C4.70551 185.636 6.00695 188.767 8.32107 191.075C10.6352 193.384 13.7729 194.683 17.0456 194.686H188.674C191.947 194.683 195.085 193.384 197.399 191.075C199.713 188.767 201.014 185.636 201.018 182.371V32.2523C201.014 28.9873 199.713 25.8568 197.399 23.5481C195.085 21.2394 191.947 19.941 188.674 19.9378H17.0456Z" fill="#515862"/>
<path d="M172.617 32.8384H30.5645C22.7737 32.8384 16.458 39.1394 16.458 46.912V170.643C16.458 178.416 22.7737 184.717 30.5645 184.717H172.617C180.408 184.717 186.723 178.416 186.723 170.643V46.912C186.723 39.1394 180.408 32.8384 172.617 32.8384Z" fill="#BF354C"/>
<path d="M66.3475 188.235H49.8899C45.3453 188.235 41.6611 191.911 41.6611 196.445C41.6611 200.979 45.3453 204.655 49.8899 204.655H66.3475C70.8921 204.655 74.5762 200.979 74.5762 196.445C74.5762 191.911 70.8921 188.235 66.3475 188.235Z" fill="#A63245"/>
<path d="M154.513 188.235H138.055C133.511 188.235 129.827 191.911 129.827 196.445C129.827 200.979 133.511 204.655 138.055 204.655H154.513C159.058 204.655 162.742 200.979 162.742 196.445C162.742 191.911 159.058 188.235 154.513 188.235Z" fill="#A63245"/>
<path d="M74.2354 194.099C74.6016 195.325 74.6758 196.619 74.4521 197.878C74.2283 199.137 73.7128 200.327 72.9467 201.352C72.1805 202.377 71.1849 203.209 70.0392 203.783C68.8934 204.356 67.6293 204.655 66.3475 204.654H49.8899C47.7075 204.654 45.6145 203.789 44.0713 202.25C42.5281 200.71 41.6612 198.622 41.6612 196.445C41.659 195.65 41.7738 194.86 42.0021 194.099C42.5085 195.794 43.5498 197.28 44.971 198.336C46.3923 199.393 48.1175 199.964 49.8899 199.963H66.3475C68.1199 199.964 69.8451 199.393 71.2664 198.336C72.6876 197.28 73.729 195.794 74.2354 194.099V194.099Z" fill="#812A39"/>
<path d="M162.742 196.445C162.742 198.622 161.875 200.71 160.332 202.25C158.788 203.789 156.695 204.654 154.513 204.654H138.055C135.873 204.654 133.78 203.789 132.237 202.25C130.694 200.71 129.827 198.622 129.827 196.445C129.824 195.65 129.939 194.86 130.168 194.099C130.674 195.794 131.715 197.28 133.137 198.336C134.558 199.393 136.283 199.964 138.055 199.963H154.513C156.285 199.964 158.011 199.393 159.432 198.336C160.853 197.28 161.894 195.794 162.401 194.099C162.629 194.86 162.744 195.65 162.742 196.445Z" fill="#812A39"/>
<path d="M66.0537 207H49.5961C46.946 207 44.4045 205.95 42.5306 204.08C40.6567 202.211 39.604 199.675 39.604 197.031C39.604 194.387 40.6567 191.852 42.5306 189.982C44.4045 188.113 46.946 187.062 49.5961 187.062H66.0537C68.7037 187.062 71.2453 188.113 73.1191 189.982C74.993 191.852 76.0457 194.387 76.0457 197.031C76.0457 199.675 74.993 202.211 73.1191 204.08C71.2453 205.95 68.7037 207 66.0537 207ZM49.5961 190.581C47.8813 190.581 46.2368 191.261 45.0243 192.47C43.8118 193.68 43.1306 195.321 43.1306 197.031C43.1306 198.742 43.8118 200.383 45.0243 201.592C46.2368 202.802 47.8813 203.482 49.5961 203.482H66.0537C67.7684 203.482 69.4129 202.802 70.6254 201.592C71.8379 200.383 72.5191 198.742 72.5191 197.031C72.5191 195.321 71.8379 193.68 70.6254 192.47C69.4129 191.261 67.7684 190.581 66.0537 190.581H49.5961Z" fill="#515862"/>
<path d="M172.029 184.717H29.9767C25.7697 184.711 21.7368 183.041 18.762 180.073C15.7871 177.105 14.1132 173.081 14.1069 168.884V45.1532C14.1132 40.9559 15.7871 36.9324 18.762 33.9645C21.7368 30.9966 25.7697 29.3265 29.9767 29.3203H172.029C176.236 29.3265 180.269 30.9966 183.244 33.9645C186.219 36.9324 187.892 40.9559 187.899 45.1532V168.884C187.892 173.081 186.219 177.105 183.244 180.073C180.269 183.041 176.236 184.711 172.029 184.717V184.717ZM29.9767 32.8739C26.7102 32.877 23.5778 34.1706 21.2646 36.4717C18.9515 38.7728 17.646 41.8942 17.6336 45.1532V168.884C17.6367 172.149 18.9381 175.28 21.2522 177.588C23.5663 179.897 26.7041 181.195 29.9767 181.198H172.029C175.302 181.195 178.439 179.897 180.753 177.588C183.068 175.28 184.369 172.149 184.372 168.884V45.1532C184.369 41.8881 183.068 38.7577 180.753 36.449C178.439 34.1402 175.302 32.8418 172.029 32.8387L29.9767 32.8739Z" fill="#515862"/>
<path opacity="0.5" d="M187.898 49.2578V137.805C180.986 137.398 174.066 137.206 167.138 137.23C158.087 137.23 148.988 137.664 140.101 139.669C125.912 142.883 112.746 150.096 98.9571 154.998C72.7474 164.249 44.2691 164.951 17.6333 157.003V87.0573C44.6707 65.3839 78.9142 54.9225 112.111 58.5816C122.186 59.684 132.178 62.0297 142.311 62.1704C158.157 62.3932 173.698 57.2094 187.898 49.2578Z" fill="#812A39"/>
<path d="M154.219 207H137.762C135.112 207 132.57 205.95 130.696 204.08C128.822 202.211 127.77 199.675 127.77 197.031C127.77 194.387 128.822 191.852 130.696 189.982C132.57 188.113 135.112 187.062 137.762 187.062H154.219C156.869 187.062 159.411 188.113 161.285 189.982C163.159 191.852 164.211 194.387 164.211 197.031C164.211 199.675 163.159 202.211 161.285 204.08C159.411 205.95 156.869 207 154.219 207ZM137.762 190.581C136.047 190.581 134.402 191.261 133.19 192.47C131.977 193.68 131.296 195.321 131.296 197.031C131.296 198.742 131.977 200.383 133.19 201.592C134.402 202.802 136.047 203.482 137.762 203.482H154.219C155.934 203.482 157.578 202.802 158.791 201.592C160.003 200.383 160.685 198.742 160.685 197.031C160.685 195.321 160.003 193.68 158.791 192.47C157.578 191.261 155.934 190.581 154.219 190.581H137.762Z" fill="#515862"/>
<path d="M2.57471 181.198V172.989C2.57471 176.721 4.06092 180.301 6.7064 182.94C9.35188 185.58 12.9399 187.062 16.6812 187.062H188.31C192.051 187.062 195.639 185.58 198.285 182.94C200.93 180.301 202.416 176.721 202.416 172.989V181.198C202.416 184.931 200.93 188.511 198.285 191.15C195.639 193.789 192.051 195.272 188.31 195.272H16.6812C12.9399 195.272 9.35188 193.789 6.7064 191.15C4.06092 188.511 2.57471 184.931 2.57471 181.198V181.198Z" fill="#B6354B"/>
<path d="M102.002 148.149C93.3993 148.149 84.99 145.604 77.8373 140.836C70.6846 136.068 65.1097 129.29 61.8177 121.361C58.5257 113.432 57.6643 104.707 59.3426 96.2894C61.0209 87.8718 65.1634 80.1398 71.2462 74.0711C77.3291 68.0024 85.0792 63.8695 93.5164 62.1951C101.954 60.5208 110.699 61.3801 118.647 64.6645C126.594 67.9489 133.387 73.5108 138.167 80.6468C142.946 87.7829 145.497 96.1726 145.497 104.755C145.497 116.264 140.914 127.301 132.757 135.439C124.601 143.577 113.537 148.149 102.002 148.149V148.149ZM102.002 64.8798C94.0968 64.8798 86.3694 67.2184 79.7966 71.6C73.2238 75.9815 68.101 82.2092 65.0759 89.4955C62.0508 96.7817 61.2593 104.799 62.8015 112.534C64.3436 120.269 68.1503 127.375 73.7399 132.951C79.3296 138.528 86.4513 142.326 94.2044 143.864C101.957 145.403 109.994 144.613 117.297 141.595C124.6 138.577 130.843 133.466 135.234 126.909C139.626 120.351 141.97 112.642 141.97 104.755C141.97 94.1795 137.759 84.0371 130.264 76.559C122.768 69.0809 112.602 64.8798 102.002 64.8798Z" fill="#515862"/>
<path d="M103.177 133.7C119.849 133.7 133.365 120.215 133.365 103.582C133.365 86.9485 119.849 73.4644 103.177 73.4644C86.5048 73.4644 72.9893 86.9485 72.9893 103.582C72.9893 120.215 86.5048 133.7 103.177 133.7Z" fill="#EBEFF7"/>
<path d="M102.002 136.632C95.6849 136.62 89.5133 134.741 84.2667 131.231C79.0201 127.721 74.934 122.739 72.5247 116.913C70.1154 111.087 69.491 104.68 70.7305 98.5C71.97 92.3204 75.0177 86.6459 79.4884 82.1937C83.9592 77.7416 89.6525 74.7114 95.8488 73.4862C102.045 72.2609 108.466 72.8956 114.301 75.31C120.136 77.7244 125.123 81.8102 128.631 87.051C132.139 92.2918 134.012 98.4526 134.012 104.755C134.002 113.216 130.625 121.328 124.622 127.305C118.62 133.283 110.483 136.638 102.002 136.632ZM102.002 76.3963C96.3824 76.4079 90.8926 78.0809 86.226 81.204C81.5593 84.3271 77.9252 88.7602 75.7829 93.943C73.6405 99.1258 73.086 104.826 74.1894 110.323C75.2928 115.82 78.0046 120.868 81.9821 124.828C85.9597 128.788 91.0246 131.483 96.5368 132.572C102.049 133.662 107.761 133.097 112.952 130.949C118.142 128.801 122.578 125.166 125.699 120.504C128.819 115.841 130.485 110.361 130.485 104.755C130.476 97.2263 127.47 90.0098 122.129 84.6919C116.787 79.374 109.548 76.3901 102.002 76.3963V76.3963Z" fill="#515862"/>
<path opacity="0.2" d="M98.534 96.651L94.3608 75.2121C94.0354 73.5307 94.1008 71.7972 94.552 70.1449C95.0032 68.4926 95.8282 66.9655 96.9635 65.6811C98.0988 64.3966 99.5142 63.389 101.101 62.7357C102.688 62.0824 104.403 61.8008 106.116 61.9125V61.9125C107.769 62.0258 109.377 62.5028 110.823 63.3093C112.27 64.1158 113.52 65.2318 114.483 66.5772C115.446 67.9226 116.098 69.4639 116.394 71.0907C116.689 72.7175 116.62 74.3893 116.191 75.9862L110.266 97.4485" fill="#0F0F0F"/>
<path opacity="0.2" d="M114.98 96.5103L136.751 98.7269C138.466 98.8949 140.119 99.4547 141.583 100.363C143.046 101.271 144.281 102.503 145.19 103.964C146.099 105.425 146.659 107.075 146.827 108.786C146.994 110.497 146.764 112.224 146.155 113.833C145.569 115.377 144.647 116.772 143.457 117.919C142.266 119.067 140.836 119.937 139.269 120.468C137.702 120.999 136.036 121.178 134.392 120.992C132.747 120.806 131.164 120.26 129.756 119.392L110.818 107.476" fill="#0F0F0F"/>
<path opacity="0.2" d="M108.244 114.478L119.27 133.348C120.132 134.83 120.642 136.49 120.759 138.2C120.877 139.91 120.6 141.624 119.949 143.21C119.298 144.796 118.291 146.212 117.006 147.349C115.721 148.486 114.191 149.313 112.534 149.767V149.767C110.942 150.194 109.275 150.266 107.651 149.978C106.028 149.689 104.488 149.047 103.141 148.098C101.795 147.148 100.674 145.915 99.8597 144.484C99.045 143.054 98.5562 141.462 98.428 139.822L96.9468 117.539" fill="#0F0F0F"/>
<path opacity="0.2" d="M94.5253 106.831L75.9518 118.394C74.4924 119.302 72.8437 119.863 71.1327 120.034C69.4217 120.205 67.6942 119.981 66.0835 119.381C64.4727 118.78 63.0218 117.818 61.8427 116.569C60.6635 115.321 59.7877 113.819 59.2826 112.179V112.179C58.7986 110.6 58.6703 108.934 58.9069 107.3C59.1435 105.667 59.7392 104.105 60.6513 102.728C61.5634 101.351 62.7694 100.191 64.1829 99.3335C65.5965 98.4755 67.1827 97.9398 68.828 97.7649L91.081 95.6304" fill="#0F0F0F"/>
<path d="M96.2063 91.1856L90.5637 70.0751C90.1225 68.4168 90.0691 66.6796 90.4076 64.9974C90.746 63.3152 91.4673 61.7331 92.5158 60.3732C93.5643 59.0132 94.9119 57.9117 96.4547 57.1538C97.9975 56.3958 99.6942 56.0015 101.414 56.0015V56.0015C103.068 56.0027 104.701 56.3684 106.197 57.0726C107.693 57.7768 109.014 58.802 110.066 60.075C111.119 61.3479 111.876 62.8371 112.285 64.4361C112.693 66.0351 112.742 67.7044 112.429 69.3245L107.962 91.1856" fill="#EFC69A"/>
<path d="M97.5699 68.6089L103.213 89.7194H97.3348L91.6922 68.6089C91.2486 66.9504 91.1934 65.2124 91.5308 63.5292C91.8683 61.8461 92.5894 60.2629 93.6384 58.9024C94.6873 57.5418 96.036 56.4402 97.58 55.6829C99.124 54.9257 100.822 54.533 102.542 54.5352C103.531 54.5314 104.516 54.6616 105.47 54.9223C102.606 55.697 100.167 57.5723 98.686 60.1376C97.2054 62.7029 96.8041 65.749 97.5699 68.6089Z" fill="#A98A61"/>
<path d="M94.5136 91.6314L88.871 70.521C88.4116 68.658 88.3745 66.7163 88.7623 64.8372C89.1501 62.9581 89.9531 61.189 91.1128 59.6586C92.2725 58.1283 93.7598 56.8753 95.4662 55.9908C97.1726 55.1063 99.0553 54.6127 100.977 54.5459C102.899 54.4791 104.812 54.8407 106.576 55.6045C108.34 56.3683 109.911 57.515 111.174 58.9611C112.438 60.4072 113.362 62.1162 113.88 63.9638C114.398 65.8114 114.497 67.751 114.169 69.6414L109.69 91.479L106.234 90.7753L110.701 68.9142C110.924 67.5443 110.841 66.1419 110.456 64.8082C110.07 63.4745 109.393 62.2427 108.473 61.2015C107.553 60.1603 106.413 59.3357 105.135 58.7872C103.857 58.2386 102.473 57.9798 101.083 58.0293C99.6928 58.0789 98.3308 58.4356 97.0954 59.0736C95.8599 59.7117 94.7817 60.6154 93.9385 61.7194C93.0953 62.8234 92.5082 64.1003 92.2194 65.458C91.9306 66.8157 91.9473 68.2205 92.2683 69.571L97.9109 90.6815L94.5136 91.6314Z" fill="#515862"/>
<path d="M89.6588 108.097L68.4991 113.727C66.8369 114.167 65.0956 114.22 63.4095 113.882C61.7234 113.545 60.1376 112.825 58.7745 111.779C57.4113 110.733 56.3073 109.389 55.5476 107.849C54.7878 106.31 54.3926 104.617 54.3926 102.902V102.902C54.3938 101.252 54.7604 99.6221 55.4662 98.1299C56.1721 96.6376 57.1997 95.3194 58.4756 94.2694C59.7515 93.2195 61.2442 92.4637 62.8469 92.0563C64.4496 91.6488 66.1228 91.5997 67.7467 91.9125L89.6588 96.3691" fill="#EFC69A"/>
<path d="M69.0279 108.039L90.3287 102.949L90.1759 108.813L68.8869 113.903C67.2141 114.303 65.4716 114.313 63.7941 113.934C62.1165 113.555 60.5489 112.795 59.2125 111.715C57.8761 110.634 56.8068 109.262 56.0872 107.703C55.3676 106.144 55.017 104.441 55.0625 102.726C55.0827 101.74 55.237 100.762 55.521 99.8174C56.2257 102.691 58.0423 105.169 60.5735 106.71C63.1047 108.25 66.1445 108.728 69.0279 108.039V108.039Z" fill="#A98A61"/>
<path d="M65.5833 115.873C63.7752 115.867 61.9882 115.484 60.3369 114.749C58.6855 114.015 57.206 112.944 55.9932 111.606C54.7804 110.268 53.8609 108.692 53.2936 106.98C52.7263 105.267 52.5237 103.455 52.6987 101.659C52.8737 99.8636 53.4226 98.1243 54.3101 96.5527C55.1976 94.981 56.4042 93.6114 57.8527 92.5317C59.3012 91.452 60.9597 90.6859 62.7221 90.2824C64.4844 89.8789 66.3118 89.847 68.0872 90.1886L90.0111 94.6452L89.341 98.0933L67.4289 93.6366C66.0558 93.4135 64.6502 93.4971 63.3134 93.8813C61.9765 94.2656 60.7418 94.941 59.6982 95.8588C58.6546 96.7766 57.8281 97.914 57.2783 99.189C56.7285 100.464 56.469 101.845 56.5187 103.232C56.5683 104.619 56.9258 105.978 57.5654 107.21C58.205 108.443 59.1107 109.519 60.2173 110.36C61.3239 111.201 62.6038 111.787 63.9647 112.075C65.3256 112.363 66.7336 112.347 68.0872 112.026L89.247 106.397L90.1521 109.798L68.9924 115.427C67.8806 115.725 66.7344 115.875 65.5833 115.873V115.873Z" fill="#515862"/>
<path d="M107.797 118.16L113.44 139.271C113.881 140.929 113.934 142.666 113.596 144.348C113.257 146.031 112.536 147.613 111.488 148.973C110.439 150.333 109.091 151.434 107.549 152.192C106.006 152.95 104.309 153.344 102.589 153.344C100.935 153.343 99.3022 152.977 97.8065 152.273C96.3107 151.569 94.9894 150.544 93.937 149.271C92.8846 147.998 92.1271 146.509 91.7187 144.91C91.3103 143.311 91.2611 141.641 91.5746 140.021L96.0416 118.16" fill="#EFC69A"/>
<path d="M107.644 138.942L101.097 118.09L106.974 117.832L113.522 138.684C114.038 140.322 114.168 142.056 113.905 143.752C113.641 145.448 112.989 147.061 112.001 148.466C111.012 149.871 109.712 151.03 108.203 151.853C106.693 152.677 105.014 153.143 103.295 153.215C102.308 153.262 101.319 153.175 100.356 152.957C103.182 152.057 105.535 150.078 106.901 147.451C108.267 144.824 108.534 141.765 107.644 138.942V138.942Z" fill="#A98A61"/>
<path d="M102.589 155.103C100.671 155.114 98.774 154.699 97.0362 153.888C95.2984 153.076 93.7633 151.89 92.5423 150.413C91.3212 148.937 90.4448 147.208 89.9765 145.351C89.5082 143.495 89.4599 141.558 89.8349 139.681L94.3019 117.808L97.758 118.512L93.291 140.373C93.0498 141.75 93.12 143.163 93.4965 144.509C93.8729 145.855 94.5461 147.101 95.4668 148.154C96.3875 149.208 97.5325 150.043 98.8181 150.598C100.104 151.153 101.497 151.415 102.897 151.364C104.297 151.313 105.668 150.951 106.91 150.304C108.152 149.657 109.233 148.741 110.074 147.623C110.916 146.506 111.496 145.215 111.773 143.845C112.05 142.475 112.017 141.06 111.676 139.704L106.034 118.594L109.443 117.691L115.085 138.801C115.609 140.72 115.681 142.734 115.296 144.685C114.91 146.637 114.078 148.473 112.863 150.05C111.649 151.627 110.086 152.903 108.295 153.778C106.505 154.652 104.536 155.102 102.542 155.092L102.589 155.103Z" fill="#515862"/>
<path d="M115.521 97.7182L136.68 92.0887C138.342 91.6486 140.084 91.5953 141.77 91.9329C143.456 92.2706 145.042 92.9902 146.405 94.0363C147.768 95.0823 148.872 96.4268 149.632 97.966C150.391 99.5052 150.787 101.198 150.787 102.914C150.786 104.564 150.419 106.193 149.713 107.685C149.007 109.178 147.98 110.496 146.704 111.546C145.428 112.596 143.935 113.352 142.332 113.759C140.73 114.166 139.057 114.216 137.433 113.903L115.521 109.446" fill="#EFC69A"/>
<path d="M137.197 98.1285L116.296 104.673L116.038 98.8088L136.939 92.2763C138.58 91.7619 140.318 91.6313 142.019 91.8945C143.719 92.1577 145.335 92.8077 146.744 93.7941C148.152 94.7806 149.313 96.077 150.139 97.5831C150.964 99.0892 151.431 100.765 151.504 102.48C151.551 103.464 151.464 104.45 151.245 105.412C150.346 102.591 148.362 100.24 145.729 98.8749C143.096 97.5098 140.028 97.2414 137.197 98.1285V98.1285Z" fill="#A98A61"/>
<path d="M139.584 115.873C138.751 115.874 137.921 115.796 137.103 115.639L115.203 111.17L115.908 107.722L137.82 112.179C139.199 112.413 140.613 112.337 141.958 111.957C143.304 111.578 144.547 110.903 145.599 109.983C146.65 109.063 147.482 107.921 148.035 106.64C148.588 105.358 148.848 103.97 148.795 102.576C148.743 101.182 148.379 99.817 147.731 98.5808C147.083 97.3446 146.166 96.2681 145.049 95.4298C143.931 94.5915 142.64 94.0124 141.269 93.7347C139.899 93.457 138.484 93.4877 137.127 93.8246L115.967 99.4541L115.062 96.0529L136.222 90.4235C137.975 90.0273 139.792 90.0004 141.557 90.3444C143.322 90.6884 144.995 91.3958 146.47 92.4214C147.945 93.4469 149.19 94.7682 150.124 96.3006C151.059 97.8331 151.663 99.5432 151.897 101.322C152.132 103.1 151.993 104.908 151.488 106.629C150.983 108.351 150.123 109.949 148.964 111.32C147.806 112.692 146.373 113.807 144.758 114.595C143.143 115.383 141.38 115.827 139.584 115.897V115.873Z" fill="#515862"/>
<path d="M102.143 118.735C110.128 118.735 116.602 112.276 116.602 104.309C116.602 96.3423 110.128 89.8838 102.143 89.8838C94.1572 89.8838 87.6836 96.3423 87.6836 104.309C87.6836 112.276 94.1572 118.735 102.143 118.735Z" fill="#BF354C"/>
<path d="M102.143 120.494C98.9344 120.494 95.7979 119.545 93.1302 117.766C90.4624 115.988 88.3831 113.46 87.1553 110.503C85.9274 107.545 85.6062 104.291 86.2321 101.152C86.8581 98.0122 88.4031 95.1284 90.6719 92.8649C92.9406 90.6014 95.8312 89.06 98.978 88.4355C102.125 87.811 105.387 88.1315 108.351 89.3565C111.315 90.5815 113.849 92.6559 115.631 95.3175C117.414 97.979 118.365 101.108 118.365 104.309C118.359 108.6 116.648 112.713 113.607 115.747C110.566 118.781 106.443 120.488 102.143 120.494ZM102.143 91.6429C99.6319 91.6429 97.1773 92.3858 95.0894 93.7776C93.0016 95.1694 91.3744 97.1476 90.4134 99.462C89.4525 101.777 89.2011 104.323 89.691 106.78C90.1809 109.237 91.39 111.494 93.1656 113.266C94.9411 115.037 97.2033 116.243 99.666 116.732C102.129 117.221 104.681 116.97 107.001 116.011C109.321 115.053 111.304 113.429 112.699 111.346C114.094 109.263 114.839 106.814 114.839 104.309C114.836 100.951 113.497 97.7309 111.117 95.3562C108.736 92.9815 105.509 91.646 102.143 91.6429V91.6429Z" fill="#515862"/>
<path d="M44.1182 29.5196C46.0913 23.592 47.5696 17.5118 48.5382 11.3411C48.908 8.6791 50.2327 6.2411 52.2668 4.47918C54.3008 2.71725 56.9063 1.75092 59.6 1.75933H83.1108C85.9921 1.75968 88.762 2.86988 90.8427 4.85834C92.9234 6.84679 94.1542 9.55995 94.2784 12.4319C94.5606 18.507 95.454 25.7315 97.8051 29.9066" fill="#EBEFF7"/>
<path opacity="0.2" d="M97.7933 31.0795H95.9477C94.9506 26.8865 94.3834 22.6033 94.255 18.2959C94.1279 15.425 92.8962 12.7135 90.8161 10.7256C88.736 8.73776 85.9678 7.62661 83.0873 7.62337H59.5765C56.8835 7.61743 54.2794 8.58464 52.2458 10.3461C50.2123 12.1076 48.8869 14.5442 48.5147 17.2052C47.8389 21.7683 46.8451 26.2789 45.5406 30.7042H44.1064C46.0832 24.7776 47.5616 18.6971 48.5265 12.5257C48.896 9.86253 50.2203 7.42317 52.2541 5.65932C54.2879 3.89546 56.8935 2.92661 59.5883 2.93215H83.0991C85.9795 2.93539 88.7478 4.04654 90.8278 6.03441C92.9079 8.02227 94.1396 10.7338 94.2667 13.6047C94.5253 19.6798 95.3952 26.9043 97.7933 31.0795Z" fill="#0F0F0F"/>
<path d="M96.265 30.7744C94.149 27.0801 92.8795 20.9346 92.4915 12.5021C92.3914 10.0814 91.3565 7.79322 89.6036 6.11653C87.8507 4.43983 85.5156 3.50463 83.0872 3.50669H59.5764C57.3123 3.50663 55.1242 4.32148 53.4139 5.80158C51.7036 7.28169 50.5859 9.32769 50.2661 11.5639C49.2865 17.8475 47.7804 24.0381 45.7638 30.0707L42.4253 28.8979C44.3627 23.0959 45.8213 17.1456 46.7865 11.1065C47.2204 8.02466 48.7563 5.2032 51.111 3.16215C53.4657 1.1211 56.4806 -0.00195349 59.5999 5.3863e-06H83.1107C86.4466 -0.00303389 89.6546 1.28024 92.0643 3.58165C94.4741 5.88307 95.8991 9.02455 96.0417 12.3496C96.3943 20.1019 97.5699 25.8721 99.3332 29.0386L96.265 30.7744Z" fill="#515862"/>
<path d="M187.781 91.6782C191.714 92.9809 195.748 93.9577 199.842 94.5985C201.612 94.8426 203.233 95.7188 204.405 97.0645C205.576 98.4103 206.219 100.134 206.214 101.917V117.468C206.213 119.367 205.48 121.194 204.167 122.569C202.854 123.944 201.062 124.764 199.16 124.857C195.116 125.045 190.32 125.619 187.534 127.202" fill="#EBEFF7"/>
<path opacity="0.2" d="M186.747 127.202V126.03C189.529 125.353 192.372 124.96 195.234 124.857C197.134 124.761 198.925 123.941 200.238 122.566C201.55 121.191 202.284 119.367 202.287 117.468V101.917C202.29 100.135 201.647 98.4123 200.475 97.067C199.304 95.7218 197.685 94.845 195.916 94.5985C192.9 94.1558 189.919 93.5053 186.993 92.6516V91.6899C190.933 92.9963 194.976 93.9731 199.078 94.6102C200.847 94.8567 202.466 95.7335 203.638 97.0788C204.809 98.424 205.452 100.147 205.449 101.929V117.48C205.446 119.378 204.712 121.203 203.4 122.578C202.088 123.952 200.297 124.772 198.396 124.869C194.329 125.044 189.521 125.619 186.747 127.202Z" fill="#0F0F0F"/>
<path d="M188.404 128.727L186.652 125.678C189.192 124.223 193.365 123.332 199.066 123.098C200.52 123.034 201.894 122.414 202.902 121.365C203.909 120.316 204.472 118.92 204.474 117.468V101.917C204.478 100.559 203.991 99.2464 203.1 98.2201C202.21 97.1939 200.977 96.524 199.63 96.3341C195.411 95.6824 191.255 94.678 187.205 93.3317L188.38 90.001C192.214 91.2696 196.146 92.2228 200.136 92.8509C202.327 93.1566 204.334 94.2427 205.786 95.9089C207.238 97.5751 208.037 99.7089 208.035 101.917V117.468C208.038 119.829 207.125 122.099 205.488 123.804C203.852 125.508 201.618 126.516 199.254 126.616C194.164 126.851 190.438 127.578 188.404 128.727Z" fill="#515862"/>
<path d="M189.392 46.748H182.174C180.272 46.748 178.729 48.2865 178.729 50.1844V74.9774C178.729 76.8753 180.272 78.4138 182.174 78.4138H189.392C191.294 78.4138 192.836 76.8753 192.836 74.9774V50.1844C192.836 48.2865 191.294 46.748 189.392 46.748Z" fill="#BF354C"/>
<path d="M189.392 132.363H182.174C180.272 132.363 178.729 133.901 178.729 135.799V160.592C178.729 162.49 180.272 164.029 182.174 164.029H189.392C191.294 164.029 192.836 162.49 192.836 160.592V135.799C192.836 133.901 191.294 132.363 189.392 132.363Z" fill="#BF354C"/>
<path d="M193.964 51.357V55.626C193.433 55.4788 192.89 55.373 192.342 55.3093C187.64 54.7346 183.232 56.7988 179.858 60.1178V51.357C179.859 50.8992 179.952 50.4462 180.131 50.0246C180.31 49.603 180.571 49.2211 180.899 48.9012C181.227 48.5813 181.616 48.3299 182.043 48.1615C182.47 47.9932 182.926 47.9113 183.385 47.9206H190.602C191.501 47.945 192.354 48.3174 192.982 48.9589C193.609 49.6004 193.962 50.4605 193.964 51.357Z" fill="#812A39"/>
<path d="M193.964 134.626V138.895C193.433 138.748 192.89 138.642 192.342 138.579C187.64 138.004 183.232 140.068 179.858 143.387V134.626C179.861 133.716 180.225 132.844 180.87 132.2C181.515 131.556 182.39 131.193 183.302 131.19H190.52C191.433 131.193 192.307 131.556 192.952 132.2C193.597 132.844 193.961 133.716 193.964 134.626V134.626Z" fill="#812A39"/>
<path d="M189.979 80.0792H182.75C182.063 80.0838 181.382 79.9528 180.746 79.6938C180.11 79.4348 179.532 79.0528 179.045 78.5699C178.557 78.087 178.17 77.5127 177.907 76.88C177.643 76.2474 177.507 75.5689 177.507 74.8836V50.0788C177.507 48.7009 178.055 47.3794 179.032 46.405C180.009 45.4307 181.333 44.8833 182.714 44.8833H189.944C191.323 44.8864 192.645 45.4352 193.619 46.4092C194.593 47.3832 195.14 48.7029 195.14 50.0788V74.8836C195.14 76.2535 194.598 77.5679 193.631 78.5409C192.665 79.514 191.352 80.0668 189.979 80.0792V80.0792ZM182.75 48.4134C182.527 48.4088 182.306 48.4483 182.098 48.5298C181.891 48.6112 181.702 48.733 181.542 48.8879C181.383 49.0429 181.255 49.228 181.168 49.4324C181.081 49.6369 181.035 49.8566 181.033 50.0788V74.8836C181.033 75.3284 181.211 75.755 181.526 76.0695C181.841 76.3841 182.269 76.5607 182.714 76.5607H189.944C190.388 76.5577 190.812 76.3796 191.125 76.0654C191.438 75.7512 191.613 75.3264 191.613 74.8836V50.0788C191.613 49.634 191.436 49.2074 191.121 48.8929C190.806 48.5784 190.378 48.4017 189.932 48.4017L182.75 48.4134Z" fill="#515862"/>
<path d="M189.979 165.694H182.75C182.066 165.694 181.389 165.56 180.757 165.298C180.125 165.037 179.551 164.655 179.067 164.172C178.584 163.69 178.2 163.117 177.938 162.487C177.677 161.856 177.542 161.181 177.542 160.498V135.694C177.542 134.316 178.091 132.994 179.067 132.02C180.044 131.045 181.368 130.498 182.75 130.498H189.979C191.352 130.51 192.665 131.063 193.631 132.036C194.598 133.009 195.14 134.324 195.14 135.694V160.498C195.14 161.868 194.598 163.183 193.631 164.156C192.665 165.129 191.352 165.682 189.979 165.694V165.694ZM182.75 134.028C182.527 134.024 182.305 134.063 182.098 134.145C181.891 134.226 181.702 134.348 181.542 134.503C181.383 134.658 181.255 134.843 181.168 135.047C181.081 135.252 181.035 135.471 181.033 135.694V160.498C181.033 160.943 181.21 161.37 181.526 161.684C181.841 161.999 182.269 162.175 182.714 162.175H189.944C190.39 162.175 190.817 161.999 191.133 161.684C191.448 161.37 191.625 160.943 191.625 160.498V135.694C191.625 135.249 191.448 134.822 191.133 134.508C190.817 134.193 190.39 134.016 189.944 134.016L182.75 134.028Z" fill="#515862"/>
</g>
<defs>
<clipPath id="clip0_217:64">
<rect width="208" height="207" fill="white"/>
</clipPath>
</defs>
</svg>
