<svg width="455" height="528" viewBox="0 0 455 528" fill="none" xmlns="http://www.w3.org/2000/svg">
<path opacity="0.08" d="M442.59 58.446H23.97C17.442 58.446 12.15 63.7313 12.15 70.251V322.631C12.15 329.151 17.442 334.436 23.97 334.436H442.59C449.118 334.436 454.41 329.151 454.41 322.631V70.251C454.41 63.7313 449.118 58.446 442.59 58.446Z" fill="#4B2E4C"/>
<path d="M301.87 442.17C301.87 433.4 294.751 426.29 285.97 426.29C277.189 426.29 270.07 433.4 270.07 442.17V510.384C270.07 519.154 277.189 526.264 285.97 526.264C294.751 526.264 301.87 519.154 301.87 510.384V442.17Z" fill="#584E60"/>
<path d="M304.18 351.275C304.18 341.446 296.202 333.478 286.36 333.478C276.518 333.478 268.54 341.446 268.54 351.275V452.058C268.54 461.887 276.518 469.855 286.36 469.855C296.202 469.855 304.18 461.887 304.18 452.058V351.275Z" fill="#584E60"/>
<path d="M430.44 46.1216H11.82C5.29199 46.1216 0 51.4069 0 57.9266V310.307C0 316.827 5.29199 322.112 11.82 322.112H430.44C436.968 322.112 442.26 316.827 442.26 310.307V57.9266C442.26 51.4069 436.968 46.1216 430.44 46.1216Z" fill="white"/>
<path d="M173.06 66.7055H23.2V89.4667H173.06V66.7055Z" fill="#812A39"/>
<path d="M173.06 116.373H23.2V126.05H173.06V116.373Z" fill="black"/>
<path d="M173.06 139.274H23.2V148.951H173.06V139.274Z" fill="black"/>
<path d="M91.4299 162.205H23.2V171.822H91.4299V162.205Z" fill="black"/>
<path d="M31.84 295.276C29.6351 295.274 27.4804 294.619 25.6481 293.394C23.8158 292.17 22.3882 290.43 21.5458 288.395C20.7034 286.36 20.4841 284.121 20.9154 281.962C21.3468 279.802 22.4095 277.819 23.9693 276.262C25.529 274.706 27.5158 273.646 29.6784 273.218C31.841 272.789 34.0824 273.01 36.1192 273.853C38.156 274.696 39.8968 276.123 41.1215 277.954C42.3463 279.786 43 281.938 43 284.14C42.9973 287.095 41.8204 289.927 39.7277 292.015C37.6351 294.103 34.798 295.276 31.84 295.276ZM31.84 278.008C30.6236 278.01 29.4352 278.372 28.4249 279.049C27.4146 279.725 26.6279 280.686 26.1643 281.809C25.7006 282.932 25.5809 284.167 25.8201 285.358C26.0593 286.549 26.6468 287.643 27.5083 288.5C28.3698 289.358 29.4666 289.941 30.66 290.176C31.8533 290.411 33.0897 290.288 34.2127 289.821C35.3357 289.354 36.2949 288.565 36.969 287.554C37.6432 286.543 38.0019 285.355 38 284.14C38 283.333 37.8405 282.534 37.5307 281.789C37.2209 281.044 36.7668 280.367 36.1945 279.797C35.6223 279.227 34.943 278.776 34.1958 278.469C33.4485 278.162 32.648 278.005 31.84 278.008Z" fill="#812A39"/>
<path d="M44.5 272.295C44.0798 272.295 43.6704 272.162 43.33 271.916C42.9007 271.605 42.6122 271.138 42.5278 270.615C42.4435 270.093 42.5701 269.558 42.88 269.129L50.51 258.672C50.6587 258.448 50.8514 258.256 51.0763 258.107C51.3013 257.959 51.5539 257.858 51.8191 257.81C52.0843 257.761 52.3565 257.767 52.6194 257.826C52.8822 257.886 53.1304 257.998 53.3489 258.155C53.5674 258.313 53.7518 258.513 53.8909 258.744C54.03 258.974 54.121 259.23 54.1585 259.497C54.196 259.764 54.1791 260.035 54.1089 260.295C54.0387 260.555 53.9166 260.798 53.75 261.009L46.12 271.526C45.9285 271.771 45.6824 271.969 45.4012 272.102C45.1199 272.236 44.8113 272.302 44.5 272.295ZM118.12 256.255C117.854 256.257 117.591 256.206 117.346 256.105C117.1 256.003 116.877 255.854 116.69 255.666L111.51 250.423C111.31 250.24 111.15 250.019 111.038 249.772C110.927 249.526 110.867 249.259 110.862 248.988C110.856 248.718 110.906 248.449 111.008 248.199C111.11 247.948 111.262 247.721 111.454 247.53C111.647 247.34 111.876 247.191 112.128 247.092C112.38 246.992 112.65 246.946 112.921 246.954C113.191 246.962 113.458 247.025 113.703 247.138C113.949 247.252 114.169 247.415 114.35 247.616L117.92 251.222L119.92 248.585C120.242 248.164 120.719 247.888 121.245 247.818C121.771 247.747 122.303 247.889 122.725 248.211C123.147 248.532 123.423 249.008 123.493 249.534C123.564 250.059 123.422 250.591 123.1 251.012L119.68 255.476C119.506 255.703 119.286 255.89 119.034 256.024C118.783 256.158 118.505 256.237 118.22 256.255H118.12ZM60.35 250.473C59.9802 250.474 59.6175 250.372 59.302 250.18C58.9864 249.987 58.7306 249.711 58.5627 249.382C58.3949 249.053 58.3216 248.684 58.3512 248.316C58.3807 247.948 58.5118 247.595 58.73 247.297L66.37 236.79C66.5179 236.563 66.7107 236.368 66.9365 236.217C67.1623 236.067 67.4165 235.963 67.6835 235.914C67.9505 235.865 68.2248 235.87 68.4896 235.93C68.7544 235.99 69.0042 236.104 69.2238 236.263C69.4433 236.423 69.6281 236.625 69.7667 236.858C69.9054 237.092 69.995 237.35 70.0302 237.619C70.0654 237.888 70.0454 238.162 69.9715 238.422C69.8975 238.683 69.7711 238.927 69.6 239.137L62 249.684C61.8076 249.937 61.5576 250.141 61.2706 250.278C60.9836 250.415 60.668 250.482 60.35 250.473ZM103.09 241.065C102.826 241.065 102.565 241.013 102.321 240.912C102.077 240.811 101.856 240.662 101.67 240.475L92.54 231.237C92.3403 231.054 92.1798 230.833 92.0683 230.586C91.9569 230.34 91.8967 230.073 91.8915 229.803C91.8863 229.532 91.9362 229.264 92.0382 229.013C92.1401 228.762 92.2919 228.535 92.4845 228.345C92.677 228.154 92.9063 228.005 93.1583 227.906C93.4104 227.807 93.68 227.76 93.9507 227.768C94.2215 227.776 94.4878 227.839 94.7335 227.953C94.9792 228.067 95.1991 228.229 95.38 228.431L104.52 237.669C104.796 237.95 104.982 238.306 105.056 238.693C105.13 239.079 105.088 239.479 104.935 239.842C104.783 240.204 104.526 240.514 104.198 240.732C103.869 240.949 103.484 241.065 103.09 241.065ZM130 240.695C129.563 240.694 129.138 240.551 128.79 240.286C128.369 239.965 128.092 239.49 128.021 238.966C127.95 238.442 128.09 237.911 128.41 237.489L136.31 227.172C136.632 226.751 137.109 226.475 137.635 226.405C138.161 226.335 138.693 226.476 139.115 226.798C139.537 227.12 139.813 227.596 139.883 228.121C139.954 228.646 139.812 229.178 139.49 229.599L131.59 239.916C131.403 240.159 131.162 240.356 130.886 240.491C130.61 240.626 130.307 240.696 130 240.695ZM76.2 228.64C75.8327 228.638 75.4732 228.535 75.1608 228.342C74.8484 228.15 74.5951 227.875 74.4288 227.548C74.2625 227.22 74.1896 226.854 74.218 226.488C74.2465 226.123 74.3751 225.772 74.59 225.474L80.77 216.955C80.9407 216.72 81.1606 216.525 81.4145 216.384C81.6684 216.242 81.9501 216.158 82.24 216.136C82.5288 216.115 82.8188 216.157 83.0898 216.259C83.3609 216.36 83.6066 216.52 83.81 216.726L85.54 218.483C85.7397 218.666 85.9002 218.887 86.0116 219.134C86.1231 219.381 86.1833 219.647 86.1884 219.918C86.1936 220.188 86.1438 220.457 86.0418 220.708C85.9399 220.958 85.7881 221.186 85.5955 221.376C85.4029 221.566 85.1737 221.715 84.9216 221.815C84.6696 221.914 84.4 221.961 84.1293 221.953C83.8585 221.945 83.5922 221.882 83.3465 221.768C83.1008 221.654 82.8809 221.491 82.7 221.29L82.62 221.21L77.82 227.811C77.6349 228.068 77.3915 228.277 77.1099 228.421C76.8283 228.565 76.5164 228.64 76.2 228.64ZM223.36 221.549C223.076 221.549 222.795 221.488 222.537 221.371C222.278 221.254 222.047 221.083 221.86 220.87L213.26 211.133C212.937 210.732 212.781 210.222 212.825 209.709C212.869 209.196 213.109 208.72 213.496 208.38C213.883 208.04 214.387 207.862 214.901 207.884C215.416 207.905 215.903 208.125 216.26 208.496L224.86 218.234C225.21 218.631 225.387 219.151 225.353 219.679C225.319 220.207 225.077 220.7 224.68 221.05C224.315 221.371 223.846 221.549 223.36 221.549ZM146.43 219.262C146.058 219.262 145.693 219.158 145.377 218.961C145.061 218.765 144.805 218.485 144.64 218.151C144.475 217.818 144.406 217.446 144.441 217.075C144.477 216.705 144.615 216.352 144.84 216.056L152.73 205.739C153.052 205.318 153.529 205.042 154.055 204.972C154.581 204.902 155.113 205.043 155.535 205.365C155.957 205.687 156.233 206.163 156.303 206.688C156.374 207.213 156.232 207.745 155.91 208.166L148 218.483C147.815 218.724 147.577 218.919 147.305 219.054C147.033 219.189 146.734 219.26 146.43 219.262ZM232.43 214.688C232.049 214.688 231.675 214.58 231.354 214.375C231.032 214.17 230.776 213.878 230.615 213.533C230.454 213.188 230.395 212.804 230.446 212.426C230.497 212.049 230.654 211.693 230.9 211.402L239.27 201.465C239.612 201.06 240.101 200.807 240.63 200.762C241.159 200.717 241.684 200.883 242.09 201.225C242.496 201.567 242.749 202.056 242.794 202.584C242.839 203.112 242.672 203.636 242.33 204.042L233.96 213.979C233.774 214.211 233.538 214.399 233.27 214.529C233.002 214.658 232.708 214.726 232.41 214.728L232.43 214.688ZM314.43 209.105C313.907 209.106 313.404 208.901 313.03 208.536L303.77 199.417C303.421 199.041 303.231 198.544 303.239 198.031C303.247 197.518 303.452 197.028 303.812 196.662C304.172 196.296 304.66 196.083 305.173 196.066C305.686 196.049 306.187 196.23 306.57 196.571L315.83 205.689C316.111 205.968 316.303 206.323 316.382 206.71C316.46 207.097 316.422 207.499 316.273 207.864C316.123 208.23 315.868 208.543 315.54 208.764C315.212 208.985 314.826 209.104 314.43 209.105ZM324.08 208.915C323.693 208.916 323.313 208.805 322.988 208.595C322.663 208.385 322.406 208.085 322.248 207.732C322.09 207.378 322.039 206.987 322.099 206.605C322.16 206.223 322.331 205.867 322.59 205.58L331.26 195.902C331.611 195.533 332.091 195.311 332.6 195.284C333.11 195.256 333.61 195.423 334 195.752C334.197 195.927 334.357 196.139 334.472 196.376C334.586 196.612 334.653 196.869 334.668 197.132C334.683 197.395 334.646 197.658 334.558 197.906C334.471 198.154 334.336 198.383 334.16 198.578L325.49 208.256C325.302 208.464 325.072 208.631 324.815 208.744C324.559 208.858 324.281 208.916 324 208.915H324.08ZM205.55 201.325C205.266 201.325 204.985 201.264 204.727 201.147C204.468 201.03 204.237 200.859 204.05 200.646L195.45 190.908C195.127 190.507 194.971 189.997 195.015 189.485C195.059 188.972 195.299 188.496 195.686 188.156C196.073 187.816 196.577 187.638 197.091 187.66C197.606 187.681 198.093 187.9 198.45 188.272L207.05 198.009C207.304 198.298 207.469 198.653 207.526 199.033C207.582 199.412 207.528 199.8 207.37 200.15C207.212 200.5 206.956 200.797 206.633 201.005C206.31 201.213 205.934 201.325 205.55 201.325ZM162.87 197.839C162.433 197.839 162.008 197.695 161.66 197.43C161.24 197.108 160.966 196.632 160.896 196.108C160.827 195.584 160.968 195.054 161.29 194.633L169.18 184.317C169.34 184.108 169.539 183.933 169.766 183.801C169.993 183.67 170.244 183.584 170.505 183.549C170.765 183.514 171.03 183.531 171.284 183.599C171.538 183.666 171.776 183.783 171.985 183.942C172.194 184.101 172.369 184.3 172.501 184.527C172.633 184.754 172.719 185.005 172.753 185.265C172.788 185.525 172.771 185.79 172.704 186.043C172.636 186.297 172.52 186.535 172.36 186.743L164.46 197.06C164.268 197.31 164.019 197.511 163.734 197.647C163.449 197.782 163.136 197.848 162.82 197.839H162.87ZM249.87 194.054C249.489 194.055 249.115 193.946 248.794 193.741C248.472 193.537 248.216 193.244 248.055 192.899C247.894 192.554 247.835 192.17 247.886 191.792C247.936 191.415 248.094 191.059 248.34 190.768L256.71 180.831C257.052 180.426 257.541 180.173 258.07 180.128C258.599 180.083 259.124 180.25 259.53 180.591C259.936 180.933 260.189 181.422 260.234 181.95C260.279 182.478 260.112 183.002 259.77 183.408L251.4 193.395C251.2 193.618 250.952 193.792 250.675 193.906C250.398 194.021 250.099 194.071 249.8 194.054H249.87ZM295.22 190.179C294.692 190.18 294.185 189.971 293.81 189.6L284.55 180.491C284.172 180.119 283.958 179.612 283.954 179.082C283.95 178.552 284.157 178.042 284.53 177.665C284.903 177.288 285.41 177.073 285.941 177.07C286.472 177.066 286.982 177.273 287.36 177.645L296.62 186.753C296.904 187.031 297.099 187.387 297.18 187.776C297.261 188.165 297.224 188.569 297.073 188.937C296.923 189.304 296.667 189.619 296.336 189.84C296.006 190.061 295.618 190.179 295.22 190.179ZM342 188.761C341.509 188.76 341.036 188.579 340.67 188.252C340.275 187.899 340.037 187.404 340.007 186.876C339.977 186.348 340.158 185.83 340.51 185.435L349.2 175.777C349.375 175.581 349.586 175.42 349.823 175.305C350.06 175.19 350.317 175.123 350.58 175.107C350.843 175.091 351.106 175.127 351.355 175.213C351.604 175.299 351.833 175.433 352.03 175.608C352.227 175.782 352.388 175.994 352.503 176.23C352.618 176.466 352.685 176.723 352.701 176.986C352.717 177.248 352.681 177.511 352.595 177.76C352.509 178.008 352.375 178.237 352.2 178.434L343.54 188.122C343.344 188.333 343.106 188.499 342.84 188.609C342.574 188.72 342.288 188.771 342 188.761ZM187.62 181.061C187.336 181.06 187.055 181 186.797 180.882C186.538 180.765 186.307 180.595 186.12 180.382L181.3 174.928L180.79 175.598C180.468 176.019 179.991 176.295 179.465 176.365C178.939 176.435 178.407 176.294 177.985 175.972C177.563 175.65 177.287 175.174 177.217 174.649C177.146 174.124 177.288 173.592 177.61 173.171L179.61 170.564C179.79 170.33 180.02 170.139 180.283 170.004C180.545 169.87 180.835 169.795 181.13 169.785C181.425 169.774 181.719 169.828 181.99 169.944C182.261 170.06 182.504 170.234 182.7 170.454L189.13 177.745C189.384 178.033 189.549 178.389 189.606 178.768C189.662 179.148 189.608 179.536 189.45 179.886C189.292 180.235 189.036 180.532 188.713 180.741C188.39 180.949 188.014 181.06 187.63 181.061H187.62ZM267.16 173.38C266.779 173.381 266.405 173.272 266.084 173.067C265.762 172.863 265.506 172.571 265.345 172.225C265.184 171.88 265.125 171.496 265.176 171.118C265.227 170.741 265.384 170.386 265.63 170.095L270.63 164.212C270.807 164.002 271.026 163.83 271.273 163.708C271.52 163.586 271.789 163.517 272.064 163.503C272.34 163.49 272.614 163.534 272.872 163.632C273.129 163.73 273.363 163.88 273.56 164.072L277.34 167.787C277.718 168.16 277.932 168.667 277.936 169.197C277.94 169.727 277.733 170.236 277.36 170.614C276.987 170.991 276.48 171.206 275.949 171.209C275.418 171.213 274.908 171.006 274.53 170.634L272.3 168.437L268.73 172.671C268.544 172.904 268.308 173.091 268.04 173.221C267.772 173.351 267.478 173.419 267.18 173.42L267.16 173.38ZM360 168.696C359.506 168.698 359.028 168.516 358.66 168.187C358.267 167.833 358.03 167.338 358.002 166.81C357.974 166.282 358.157 165.764 358.51 165.371L367.17 155.693C367.345 155.496 367.556 155.336 367.793 155.221C368.03 155.106 368.287 155.038 368.55 155.023C368.813 155.007 369.076 155.043 369.325 155.129C369.574 155.215 369.803 155.349 370 155.523C370.197 155.697 370.358 155.909 370.473 156.145C370.588 156.382 370.655 156.639 370.671 156.901C370.687 157.164 370.651 157.427 370.565 157.675C370.479 157.924 370.345 158.153 370.17 158.349L361.51 168.027C361.321 168.24 361.088 168.409 360.827 168.525C360.567 168.64 360.285 168.699 360 168.696ZM378 148.592C377.615 148.591 377.238 148.479 376.914 148.27C376.591 148.06 376.336 147.761 376.178 147.41C376.021 147.059 375.968 146.67 376.027 146.289C376.086 145.909 376.254 145.553 376.51 145.266L385.17 135.578C385.345 135.382 385.558 135.221 385.795 135.106C386.032 134.992 386.29 134.925 386.553 134.909C386.817 134.894 387.08 134.931 387.329 135.017C387.578 135.104 387.808 135.238 388.005 135.413C388.202 135.589 388.363 135.801 388.477 136.038C388.592 136.275 388.659 136.532 388.675 136.795C388.69 137.058 388.653 137.321 388.567 137.57C388.48 137.819 388.345 138.048 388.17 138.245L379.51 147.923C379.321 148.135 379.088 148.305 378.827 148.42C378.567 148.536 378.285 148.594 378 148.592ZM396 128.487C395.613 128.488 395.233 128.377 394.908 128.167C394.583 127.957 394.326 127.657 394.168 127.304C394.01 126.95 393.959 126.559 394.019 126.177C394.08 125.795 394.251 125.439 394.51 125.151L400.58 118.37C400.934 117.973 401.432 117.732 401.963 117.701C402.495 117.67 403.017 117.852 403.415 118.205C403.813 118.559 404.054 119.056 404.085 119.587C404.116 120.118 403.934 120.639 403.58 121.037L397.49 127.838C397.301 128.044 397.071 128.209 396.814 128.321C396.557 128.433 396.28 128.489 396 128.487Z" fill="black"/>
<path d="M260.2 442.17C260.2 433.4 253.081 426.29 244.3 426.29C235.519 426.29 228.4 433.4 228.4 442.17V510.384C228.4 519.154 235.519 526.264 244.3 526.264C253.081 526.264 260.2 519.154 260.2 510.384V442.17Z" fill="#665C6D"/>
<path d="M262.12 351.275C262.12 341.446 254.142 333.478 244.3 333.478C234.458 333.478 226.48 341.446 226.48 351.275V452.058C226.48 461.887 234.458 469.855 244.3 469.855C254.142 469.855 262.12 461.887 262.12 452.058V351.275Z" fill="#665C6D"/>
<path d="M286.83 510.973H301.43C305.846 510.973 310.081 512.725 313.203 515.843C316.326 518.962 318.08 523.192 318.08 527.602H270.18C270.18 523.192 271.934 518.962 275.057 515.843C278.179 512.725 282.414 510.973 286.83 510.973Z" fill="#4B2E4C"/>
<path d="M229.16 510.973H243.76C248.176 510.973 252.411 512.725 255.533 515.843C258.656 518.962 260.41 523.192 260.41 527.602H212.51C212.51 523.192 214.264 518.962 217.387 515.843C220.509 512.725 224.744 510.973 229.16 510.973Z" fill="#4B2E4C"/>
<g opacity="0.27">
<path opacity="0.27" d="M238.47 401.691C238.47 400.472 237.481 399.484 236.26 399.484C235.039 399.484 234.05 400.472 234.05 401.691V412.288C234.05 413.507 235.039 414.495 236.26 414.495C237.481 414.495 238.47 413.507 238.47 412.288V401.691Z" fill="white"/>
<path opacity="0.27" d="M238.47 420.897C238.47 419.678 237.481 418.69 236.26 418.69C235.039 418.69 234.05 419.678 234.05 420.897V424.502C234.05 425.721 235.039 426.71 236.26 426.71C237.481 426.71 238.47 425.721 238.47 424.502V420.897Z" fill="white"/>
</g>
<path d="M264.18 395.719C285.382 395.719 302.57 378.553 302.57 357.377C302.57 336.202 285.382 319.036 264.18 319.036C242.978 319.036 225.79 336.202 225.79 357.377C225.79 378.553 242.978 395.719 264.18 395.719Z" fill="#665C6D"/>
<path d="M345.08 279.057L335.73 353.742L318.2 353.163L310.61 270.298" fill="#F9C9AB"/>
<path d="M188.26 279.057L197.6 353.742L215.13 353.163L222.73 270.298" fill="#F9C9AB"/>
<path opacity="0.46" d="M188.26 279.057L192.77 281.534C199.542 285.261 205.189 290.734 209.122 297.383C213.055 304.032 215.13 311.613 215.13 319.336V353.153L222.73 270.258" fill="#E19F7F"/>
<path opacity="0.46" d="M344.94 279.057L340.43 281.534C333.657 285.259 328.008 290.732 324.075 297.382C320.142 304.031 318.068 311.613 318.07 319.336V353.153L310.47 270.258" fill="#E19F7F"/>
<path d="M352 286.118C348.093 264.844 345.289 243.382 343.6 221.819C342.8 211.652 341.93 200.656 335.2 192.996C329.62 186.634 321.08 183.877 312.98 181.39L294.78 175.777L268.63 155.024C268.63 153.376 268.63 151.738 268.58 150.09L265.49 152.537L262.41 150.09C262.41 151.738 262.41 153.376 262.36 155.024L236.21 175.777L218 181.39C209.9 183.877 201.36 186.634 195.77 192.996C189.05 200.656 188.17 211.652 187.38 221.819C185.686 243.382 182.883 264.843 178.98 286.118C178.76 287.316 178.65 288.804 179.65 289.493C180.136 289.762 180.684 289.899 181.24 289.893C193.113 290.772 205.003 291.218 216.91 291.231L217.19 291.721C225.91 310.167 219.32 332.869 227.19 351.705C228.19 354.052 229.45 356.409 231.59 357.777C233.486 358.799 235.588 359.379 237.74 359.475C253.434 361.111 269.242 361.365 284.98 360.234C289.69 359.944 295.22 360.184 299.43 357.777C301.57 356.409 302.86 354.052 303.84 351.705C311.69 332.869 305.1 310.167 313.84 291.721L314.13 291.231C326.03 291.231 337.917 290.785 349.79 289.893C350.346 289.902 350.894 289.764 351.38 289.493C352.35 288.804 352.24 287.316 352 286.118Z" fill="#4F3E52"/>
<path d="M317.41 182.769C313.252 188.004 308.039 192.307 302.108 195.399C296.176 198.491 289.661 200.302 282.983 200.716C276.305 201.129 269.615 200.135 263.347 197.799C257.079 195.462 251.373 191.835 246.6 187.153C255.168 190.426 264.499 191.165 273.476 189.28C282.453 187.396 290.697 182.968 297.22 176.526L312.32 181.151C314 181.71 315.72 182.239 317.41 182.769Z" fill="#443547"/>
<g opacity="0.21">
<path opacity="0.21" d="M300.09 172.412C300.13 172.412 300.168 172.396 300.196 172.368C300.224 172.34 300.24 172.302 300.24 172.262C300.24 172.222 300.224 172.184 300.196 172.156C300.168 172.128 300.13 172.112 300.09 172.112C300.05 172.112 300.012 172.128 299.984 172.156C299.956 172.184 299.94 172.222 299.94 172.262C299.94 172.302 299.956 172.34 299.984 172.368C300.012 172.396 300.05 172.412 300.09 172.412Z" fill="#F0CAE7"/>
</g>
<path d="M264.08 8.80339e-06C250.524 0.0106004 237.527 5.39842 227.948 14.9785C218.369 24.5586 212.992 37.5463 213 51.0853C213 55.4479 214.735 59.6318 217.824 62.7166C220.913 65.8015 225.102 67.5345 229.47 67.5345H298.76C300.922 67.5345 303.064 67.1089 305.061 66.2822C307.059 65.4554 308.874 64.2436 310.403 62.716C311.931 61.1885 313.143 59.375 313.97 57.3794C314.797 55.3837 315.221 53.245 315.22 51.0853C315.225 44.3761 313.906 37.7316 311.338 31.5319C308.77 25.3322 305.003 19.699 300.254 14.9544C295.504 10.2097 289.864 6.44682 283.657 3.88082C277.45 1.31481 270.798 -0.00393138 264.08 8.80339e-06Z" fill="#AC8067"/>
<path d="M216.61 101.511H312.09V142.819C312.09 155.465 307.06 167.592 298.107 176.534C289.154 185.475 277.011 190.499 264.35 190.499C251.689 190.499 239.546 185.475 230.593 176.534C221.64 167.592 216.61 155.465 216.61 142.819V101.471V101.511Z" fill="#AC8067"/>
<path d="M264.31 180.491C258.042 180.493 251.835 179.261 246.044 176.867C240.252 174.472 234.99 170.962 230.557 166.536C226.124 162.111 222.607 156.856 220.207 151.073C217.807 145.29 216.571 139.092 216.57 132.832V142.819C216.57 155.465 221.6 167.592 230.553 176.534C239.506 185.475 251.649 190.499 264.31 190.499C276.963 190.486 289.093 185.456 298.035 176.516C306.977 167.576 312 155.456 312 142.819V132.832C311.997 145.466 306.973 157.582 298.031 166.519C289.089 175.455 276.96 180.481 264.31 180.491Z" fill="#A0725C"/>
<path d="M218.39 102.83C226.42 102.83 232.93 96.3282 232.93 88.3082C232.93 80.2881 226.42 73.7866 218.39 73.7866C210.36 73.7866 203.85 80.2881 203.85 88.3082C203.85 96.3282 210.36 102.83 218.39 102.83Z" fill="#F9C9AB"/>
<path opacity="0.31" d="M231.2 95.1495C230.171 97.0894 228.714 98.771 226.94 100.068C225.166 101.364 223.121 102.243 220.958 102.636C218.796 103.03 216.572 102.928 214.454 102.339C212.336 101.751 210.38 100.69 208.731 99.2374C207.083 97.7846 205.786 95.9775 204.938 93.9519C204.09 91.9264 203.713 89.7351 203.835 87.543C203.957 85.3508 204.575 83.2149 205.643 81.2958C206.711 79.3767 208.201 77.7244 210 76.4631C208.853 78.5677 208.257 80.9282 208.27 83.3244C208.266 85.2315 208.638 87.1206 209.365 88.8839C210.092 90.6473 211.16 92.2503 212.507 93.6016C213.855 94.9528 215.456 96.0258 217.218 96.7592C218.981 97.4926 220.871 97.8721 222.78 97.876C225.804 97.8746 228.751 96.9205 231.2 95.1495Z" fill="#E19F7F"/>
<path d="M218.39 96.2082C222.759 96.2082 226.3 92.6712 226.3 88.3082C226.3 83.9451 222.759 80.4082 218.39 80.4082C214.021 80.4082 210.48 83.9451 210.48 88.3082C210.48 92.6712 214.021 96.2082 218.39 96.2082Z" fill="#DC8C72"/>
<path d="M311.51 102.83C319.54 102.83 326.05 96.3282 326.05 88.3082C326.05 80.2881 319.54 73.7866 311.51 73.7866C303.48 73.7866 296.97 80.2881 296.97 88.3082C296.97 96.3282 303.48 102.83 311.51 102.83Z" fill="#F9C9AB"/>
<path opacity="0.31" d="M324.32 95.1495C323.286 97.081 321.829 98.7539 320.056 100.043C318.283 101.332 316.242 102.205 314.084 102.594C311.926 102.984 309.708 102.881 307.596 102.294C305.483 101.706 303.531 100.649 301.886 99.2012C300.24 97.7536 298.944 95.953 298.094 93.9342C297.244 91.9154 296.862 89.7307 296.977 87.5437C297.092 85.3566 297.7 83.2239 298.757 81.305C299.814 79.3861 301.292 77.7309 303.08 76.4631C301.933 78.5677 301.337 80.9282 301.35 83.3244C301.346 85.2348 301.72 87.1272 302.449 88.8931C303.179 90.6591 304.25 92.2639 305.602 93.6157C306.953 94.9675 308.559 96.0396 310.326 96.7706C312.093 97.5017 313.987 97.8773 315.9 97.876C318.924 97.8746 321.871 96.9205 324.32 95.1495Z" fill="#E19F7F"/>
<path d="M311.51 96.2082C315.879 96.2082 319.42 92.6712 319.42 88.3082C319.42 83.9451 315.879 80.4082 311.51 80.4082C307.141 80.4082 303.6 83.9451 303.6 88.3082C303.6 92.6712 307.141 96.2082 311.51 96.2082Z" fill="#DC8C72"/>
<path d="M297.59 20.8835C290.947 14.248 282.483 9.72898 273.268 7.8981C264.053 6.06722 254.502 7.00669 245.822 10.5977C237.142 14.1887 229.723 20.27 224.504 28.0723C219.284 35.8747 216.499 45.0476 216.5 54.4311V110.91C216.755 123.323 221.872 135.142 230.752 143.831C239.632 152.519 251.568 157.386 264 157.386C276.432 157.386 288.368 152.519 297.248 143.831C306.128 135.142 311.245 123.323 311.5 110.91V54.4311C311.512 48.1992 310.289 42.0266 307.902 36.2689C305.515 30.5112 302.01 25.2823 297.59 20.8835ZM244.48 116.303L244.64 116.373L244.48 116.303Z" fill="#F9C9AB"/>
<path opacity="0.69" d="M307.94 54.0716V59.3549C307.94 47.3001 303.09 41.3776 295.22 33.5276C291.207 29.4736 286.428 26.2566 281.159 24.0637C275.89 21.8708 270.238 20.7457 264.53 20.7537C240.53 20.7537 221.13 39.2803 221.13 63.3498V58.0665C221.13 33.997 240.56 15.4704 264.53 15.4704C270.238 15.4624 275.89 16.5875 281.159 18.7804C286.428 20.9733 291.207 24.1903 295.22 28.2443C303.09 36.1343 307.94 42.0268 307.94 54.0716Z" fill="#E19F7F"/>
<path d="M297.89 20.1345C293.498 15.6976 288.267 12.1767 282.5 9.77641C276.734 7.37607 270.547 6.14415 264.3 6.1522C238.07 6.1522 215.8 27.5151 215.8 53.8618L216.8 110.65C216.67 116.962 217.803 123.236 220.132 129.105C222.461 134.974 225.939 140.32 230.363 144.83C234.786 149.339 240.066 152.922 245.894 155.368C251.721 157.813 257.979 159.073 264.3 159.073C270.621 159.073 276.879 157.813 282.706 155.368C288.534 152.922 293.814 149.339 298.238 144.83C302.661 140.32 306.139 134.974 308.468 129.105C310.797 123.236 311.93 116.962 311.8 110.65L312.8 53.8618C312.81 40.6785 306.5 28.7636 297.89 20.1345ZM307.71 108.203C307.797 113.951 306.739 119.659 304.597 124.995C302.455 130.331 299.272 135.188 295.233 139.284C291.193 143.38 286.379 146.633 281.069 148.853C275.76 151.073 270.061 152.216 264.305 152.216C258.549 152.216 252.85 151.073 247.541 148.853C242.231 146.633 237.417 143.38 233.377 139.284C229.338 135.188 226.155 130.331 224.013 124.995C221.871 119.659 220.813 113.951 220.9 108.203V60.2637C220.9 36.1942 240.33 17.6776 264.3 17.6776C270.013 17.6696 275.67 18.7986 280.941 20.9987C286.212 23.1988 290.992 26.4258 295 30.4914C302.87 38.3714 307.72 44.2639 307.72 56.3087L307.71 108.203Z" fill="#AC8067"/>
<path d="M307.71 50.4361V56.2887C307.71 44.2339 302.86 38.3114 294.99 30.4614C290.98 26.4043 286.2 23.1853 280.931 20.9921C275.662 18.799 270.008 17.6756 264.3 17.6876C240.3 17.6876 220.9 36.2041 220.9 60.2836V54.431C220.9 30.3615 240.33 11.845 264.3 11.845C270.01 11.8317 275.666 12.9544 280.937 15.1476C286.208 17.3408 290.988 20.5605 295 24.6188C302.86 32.4988 307.71 38.3913 307.71 50.4361Z" fill="#A0725C"/>
<path opacity="0.42" d="M267.83 94.3605C267.83 92.6396 266.433 91.2444 264.71 91.2444C262.987 91.2444 261.59 92.6396 261.59 94.3605V104.338C261.59 106.059 262.987 107.454 264.71 107.454C266.433 107.454 267.83 106.059 267.83 104.338V94.3605Z" fill="#D6836F"/>
<path d="M282.59 94.4004C289.852 94.4004 295.74 88.5204 295.74 81.267C295.74 74.0137 289.852 68.1337 282.59 68.1337C275.327 68.1337 269.44 74.0137 269.44 81.267C269.44 88.5204 275.327 94.4004 282.59 94.4004Z" fill="white"/>
<path d="M263.16 164.432C273.687 164.432 282.22 155.909 282.22 145.396C282.22 134.883 273.687 126.36 263.16 126.36C252.633 126.36 244.1 134.883 244.1 145.396C244.1 155.909 252.633 164.432 263.16 164.432Z" fill="#AC8067"/>
<path d="M246.73 157.78C257.257 157.78 265.79 149.258 265.79 138.744C265.79 128.231 257.257 119.708 246.73 119.708C236.203 119.708 227.67 128.231 227.67 138.744C227.67 149.258 236.203 157.78 246.73 157.78Z" fill="#AC8067"/>
<path d="M282.23 157.331C292.757 157.331 301.29 148.808 301.29 138.295C301.29 127.782 292.757 119.259 282.23 119.259C271.703 119.259 263.17 127.782 263.17 138.295C263.17 148.808 271.703 157.331 282.23 157.331Z" fill="#AC8067"/>
<path d="M264.51 148.971C275.037 148.971 283.57 140.449 283.57 129.935C283.57 119.422 275.037 110.9 264.51 110.9C253.983 110.9 245.45 119.422 245.45 129.935C245.45 140.449 253.983 148.971 264.51 148.971Z" fill="#AC8067"/>
<path d="M311.81 116.133C312.152 112.83 312.172 109.502 311.87 106.196H311.81V73.9064C310.25 73.9091 308.754 74.53 307.652 75.6329C306.549 76.7358 305.93 78.2306 305.93 79.789V102.171C305.983 107.346 304.425 112.41 301.47 116.662C299.677 119.297 297.251 121.442 294.414 122.898C291.577 124.355 288.419 125.078 285.23 125.002L300.11 143.528C306.676 135.876 310.751 126.407 311.79 116.383L311.81 116.133Z" fill="#AC8067"/>
<path d="M282.59 89.0372C285.097 89.0372 287.13 85.7373 287.13 81.6666C287.13 77.5959 285.097 74.2959 282.59 74.2959C280.083 74.2959 278.05 77.5959 278.05 81.6666C278.05 85.7373 280.083 89.0372 282.59 89.0372Z" fill="#4F3E52"/>
<path d="M246.36 94.4004C253.622 94.4004 259.51 88.5204 259.51 81.267C259.51 74.0137 253.622 68.1337 246.36 68.1337C239.097 68.1337 233.21 74.0137 233.21 81.267C233.21 88.5204 239.097 94.4004 246.36 94.4004Z" fill="white"/>
<path d="M246.65 89.0372C249.157 89.0372 251.19 85.7373 251.19 81.6666C251.19 77.5959 249.157 74.2959 246.65 74.2959C244.143 74.2959 242.11 77.5959 242.11 81.6666C242.11 85.7373 244.143 89.0372 246.65 89.0372Z" fill="#4F3E52"/>
<path d="M257.47 50.9555H235.83C233.759 50.9555 232.08 52.6323 232.08 54.7008C232.08 56.7692 233.759 58.446 235.83 58.446H257.47C259.541 58.446 261.22 56.7692 261.22 54.7008C261.22 52.6323 259.541 50.9555 257.47 50.9555Z" fill="#AC8067"/>
<path d="M293.5 49.5972H271.86C269.789 49.5972 268.11 51.274 268.11 53.3425C268.11 55.4109 269.789 57.0877 271.86 57.0877H293.5C295.571 57.0877 297.25 55.4109 297.25 53.3425C297.25 51.274 295.571 49.5972 293.5 49.5972Z" fill="#AC8067"/>
<path d="M250.43 81.6666C251.645 81.6666 252.63 80.6829 252.63 79.4694C252.63 78.2559 251.645 77.2722 250.43 77.2722C249.215 77.2722 248.23 78.2559 248.23 79.4694C248.23 80.6829 249.215 81.6666 250.43 81.6666Z" fill="white"/>
<path d="M286.65 81.6666C287.865 81.6666 288.85 80.6829 288.85 79.4694C288.85 78.2559 287.865 77.2722 286.65 77.2722C285.435 77.2722 284.45 78.2559 284.45 79.4694C284.45 80.6829 285.435 81.6666 286.65 81.6666Z" fill="white"/>
<path d="M243.45 124.992C240.037 125.07 236.664 124.241 233.677 122.589C230.69 120.938 228.196 118.524 226.45 115.594C223.917 111.533 222.595 106.835 222.64 102.051V79.779C222.637 78.2292 222.023 76.743 220.929 75.6434C219.836 74.5438 218.352 73.9196 216.8 73.9064L216.5 96.8773V106.166C216.56 109.691 216.44 112.617 216.7 115.514L216.8 116.413V116.922C217.11 119.818 217.03 122.335 217.72 124.822C219.642 131.913 223.397 138.375 228.61 143.558L243.45 124.992Z" fill="#AC8067"/>
<path opacity="0.15" d="M278.9 88.3182C280.739 88.3182 282.23 86.8292 282.23 84.9924C282.23 83.1556 280.739 81.6666 278.9 81.6666C277.061 81.6666 275.57 83.1556 275.57 84.9924C275.57 86.8292 277.061 88.3182 278.9 88.3182Z" fill="white"/>
<path opacity="0.15" d="M242.35 88.3182C244.189 88.3182 245.68 86.8292 245.68 84.9924C245.68 83.1556 244.189 81.6666 242.35 81.6666C240.511 81.6666 239.02 83.1556 239.02 84.9924C239.02 86.8292 240.511 88.3182 242.35 88.3182Z" fill="white"/>
<path d="M268.03 76.8726H261.05V79.8688H268.03V76.8726Z" fill="#4F3E52"/>
<g opacity="0.51">
<path opacity="0.51" d="M296.05 60.6631L269.37 92.5228C269.277 91.9986 269.23 91.4672 269.23 90.9348V75.3046L281.49 60.6631H296.05Z" fill="white"/>
<path opacity="0.51" d="M309.36 62.1613L278.11 99.484H277.8C275.713 99.4901 273.697 98.7253 272.14 97.3367L302.85 60.6631H304.52C306.248 60.662 307.936 61.1844 309.36 62.1613Z" fill="white"/>
</g>
<path d="M304.36 101.471H277.63C274.96 101.469 272.4 100.408 270.512 98.5229C268.625 96.6373 267.563 94.0808 267.56 91.4142V69.7117C267.565 67.0469 268.628 64.4929 270.516 62.6095C272.404 60.7261 274.962 59.6671 277.63 59.6644H304.36C307.027 59.6671 309.585 60.7265 311.471 62.6101C313.357 64.4938 314.417 67.0478 314.42 69.7117V91.4142C314.417 94.079 313.357 96.6341 311.471 98.5193C309.585 100.405 307.028 101.466 304.36 101.471ZM277.63 62.6606C275.757 62.6606 273.96 63.4032 272.634 64.7252C271.309 66.0473 270.563 67.8407 270.56 69.7117V91.4142C270.563 93.2861 271.308 95.0806 272.634 96.4042C273.959 97.7279 275.756 98.4726 277.63 98.4753H304.36C306.233 98.4726 308.029 97.7275 309.353 96.4036C310.677 95.0797 311.42 93.2852 311.42 91.4142V69.7117C311.417 67.8425 310.673 66.0505 309.349 64.7288C308.026 63.407 306.232 62.6633 304.36 62.6606H277.63Z" fill="#4F3E52"/>
<g opacity="0.51">
<path opacity="0.51" d="M243.85 61.6219L217.17 93.4816C217.067 92.9549 217.01 92.4202 217 91.8836V76.2534L229.28 61.6219H243.85Z" fill="white"/>
<path opacity="0.51" d="M257.16 63.12L225.91 100.433H225.59C223.505 100.442 221.491 99.6768 219.94 98.2855L250.65 61.6219H252.32C254.049 61.6157 255.738 62.1385 257.16 63.12Z" fill="white"/>
</g>
<path d="M252.39 102.42H225.65C222.983 102.418 220.425 101.358 218.539 99.4746C216.653 97.5909 215.593 95.0369 215.59 92.373V70.6605C215.595 67.9974 216.657 65.4449 218.542 63.5618C220.428 61.6787 222.984 60.6185 225.65 60.6132H252.39C255.056 60.6185 257.612 61.6787 259.498 63.5618C261.383 65.4449 262.445 67.9974 262.45 70.6605V92.373C262.447 95.0369 261.387 97.5909 259.501 99.4746C257.615 101.358 255.057 102.418 252.39 102.42ZM225.65 63.6094C223.778 63.6121 221.984 64.3558 220.661 65.6776C219.337 66.9993 218.593 68.7912 218.59 70.6605V92.373C218.593 94.2422 219.337 96.0342 220.661 97.3559C221.984 98.6777 223.778 99.4214 225.65 99.4241H252.39C254.262 99.4214 256.056 98.6777 257.379 97.3559C258.703 96.0342 259.447 94.2422 259.45 92.373V70.6605C259.447 68.7912 258.703 66.9993 257.379 65.6776C256.056 64.3558 254.262 63.6121 252.39 63.6094H225.65Z" fill="#4F3E52"/>
<path d="M285.68 177.605C287.591 177.605 289.14 176.058 289.14 174.149C289.14 172.241 287.591 170.694 285.68 170.694C283.769 170.694 282.22 172.241 282.22 174.149C282.22 176.058 283.769 177.605 285.68 177.605Z" fill="#A0725C"/>
<path d="M288.76 168.846C289.08 168.846 289.34 168.587 289.34 168.267C289.34 167.947 289.08 167.688 288.76 167.688C288.44 167.688 288.18 167.947 288.18 168.267C288.18 168.587 288.44 168.846 288.76 168.846Z" fill="#A0725C"/>
<path d="M284.73 167.278C285.514 167.278 286.15 166.643 286.15 165.86C286.15 165.077 285.514 164.442 284.73 164.442C283.946 164.442 283.31 165.077 283.31 165.86C283.31 166.643 283.946 167.278 284.73 167.278Z" fill="#A0725C"/>
<path d="M280.85 170.264C281.242 170.264 281.56 169.947 281.56 169.555C281.56 169.164 281.242 168.846 280.85 168.846C280.458 168.846 280.14 169.164 280.14 169.555C280.14 169.947 280.458 170.264 280.85 170.264Z" fill="#A0725C"/>
<path d="M278.18 166.639C278.787 166.639 279.28 166.147 279.28 165.54C279.28 164.934 278.787 164.442 278.18 164.442C277.572 164.442 277.08 164.934 277.08 165.54C277.08 166.147 277.572 166.639 278.18 166.639Z" fill="#A0725C"/>
<path d="M279.45 177.605C280.151 177.605 280.72 177.037 280.72 176.337C280.72 175.636 280.151 175.068 279.45 175.068C278.749 175.068 278.18 175.636 278.18 176.337C278.18 177.037 278.749 177.605 279.45 177.605Z" fill="#A0725C"/>
<path d="M279.09 173.171C279.339 173.171 279.54 172.969 279.54 172.721C279.54 172.473 279.339 172.272 279.09 172.272C278.841 172.272 278.64 172.473 278.64 172.721C278.64 172.969 278.841 173.171 279.09 173.171Z" fill="#A0725C"/>
<path d="M273.95 169.805C274.215 169.805 274.43 169.59 274.43 169.326C274.43 169.061 274.215 168.846 273.95 168.846C273.685 168.846 273.47 169.061 273.47 169.326C273.47 169.59 273.685 169.805 273.95 169.805Z" fill="#A0725C"/>
<path d="M276.83 169.925C277.288 169.925 277.66 169.554 277.66 169.096C277.66 168.638 277.288 168.267 276.83 168.267C276.372 168.267 276 168.638 276 169.096C276 169.554 276.372 169.925 276.83 169.925Z" fill="#A0725C"/>
<path d="M274.45 175.068C274.726 175.068 274.95 174.845 274.95 174.569C274.95 174.293 274.726 174.07 274.45 174.07C274.174 174.07 273.95 174.293 273.95 174.569C273.95 174.845 274.174 175.068 274.45 175.068Z" fill="#A0725C"/>
<path d="M236.04 23.9197C237.189 23.9197 238.12 22.9896 238.12 21.8423C238.12 20.695 237.189 19.765 236.04 19.765C234.891 19.765 233.96 20.695 233.96 21.8423C233.96 22.9896 234.891 23.9197 236.04 23.9197Z" fill="#A0725C"/>
<path d="M236.67 18.5565C236.902 18.5565 237.09 18.3687 237.09 18.137C237.09 17.9053 236.902 17.7175 236.67 17.7175C236.438 17.7175 236.25 17.9053 236.25 18.137C236.25 18.3687 236.438 18.5565 236.67 18.5565Z" fill="#A0725C"/>
<path d="M234.29 16.2994C234.472 16.2994 234.62 16.1519 234.62 15.9698C234.62 15.7878 234.472 15.6403 234.29 15.6403C234.108 15.6403 233.96 15.7878 233.96 15.9698C233.96 16.1519 234.108 16.2994 234.29 16.2994Z" fill="#A0725C"/>
<path d="M232.56 20.4042C233.024 20.4042 233.4 20.0286 233.4 19.5653C233.4 19.1019 233.024 18.7263 232.56 18.7263C232.096 18.7263 231.72 19.1019 231.72 19.5653C231.72 20.0286 232.096 20.4042 232.56 20.4042Z" fill="#A0725C"/>
<path d="M234.09 18.127C234.305 18.127 234.48 17.9526 234.48 17.7375C234.48 17.5224 234.305 17.348 234.09 17.348C233.875 17.348 233.7 17.5224 233.7 17.7375C233.7 17.9526 233.875 18.127 234.09 18.127Z" fill="#A0725C"/>
<path d="M238.33 17.5278C239.015 17.5278 239.57 16.9734 239.57 16.2894C239.57 15.6054 239.015 15.051 238.33 15.051C237.645 15.051 237.09 15.6054 237.09 16.2894C237.09 16.9734 237.645 17.5278 238.33 17.5278Z" fill="#A0725C"/>
<path d="M238.4 19.0958C238.549 19.0958 238.67 18.9751 238.67 18.8262C238.67 18.6772 238.549 18.5565 238.4 18.5565C238.251 18.5565 238.13 18.6772 238.13 18.8262C238.13 18.9751 238.251 19.0958 238.4 19.0958Z" fill="#A0725C"/>
<path d="M232.81 22.7812C233.07 22.7812 233.28 22.571 233.28 22.3118C233.28 22.0525 233.07 21.8423 232.81 21.8423C232.55 21.8423 232.34 22.0525 232.34 22.3118C232.34 22.571 232.55 22.7812 232.81 22.7812Z" fill="#A0725C"/>
<path d="M231.72 22.2019C231.963 22.2019 232.16 22.0051 232.16 21.7624C232.16 21.5197 231.963 21.323 231.72 21.323C231.477 21.323 231.28 21.5197 231.28 21.7624C231.28 22.0051 231.477 22.2019 231.72 22.2019Z" fill="#A0725C"/>
<path d="M231.89 17.2182C232.144 17.2182 232.35 17.0125 232.35 16.7588C232.35 16.5051 232.144 16.2994 231.89 16.2994C231.636 16.2994 231.43 16.5051 231.43 16.7588C231.43 17.0125 231.636 17.2182 231.89 17.2182Z" fill="#A0725C"/>
<path d="M234.93 19.3155C235.096 19.3155 235.23 19.1814 235.23 19.0159C235.23 18.8505 235.096 18.7163 234.93 18.7163C234.764 18.7163 234.63 18.8505 234.63 19.0159C234.63 19.1814 234.764 19.3155 234.93 19.3155Z" fill="#A0725C"/>
<path d="M241.15 19.3955C241.846 19.3955 242.41 18.8321 242.41 18.1371C242.41 17.4421 241.846 16.8787 241.15 16.8787C240.454 16.8787 239.89 17.4421 239.89 18.1371C239.89 18.8321 240.454 19.3955 241.15 19.3955Z" fill="#A0725C"/>
<path d="M327.43 375.475C335.604 375.475 342.23 368.857 342.23 360.693C342.23 352.53 335.604 345.912 327.43 345.912C319.256 345.912 312.63 352.53 312.63 360.693C312.63 368.857 319.256 375.475 327.43 375.475Z" fill="#F9C9AB"/>
<path d="M205.91 375.475C214.084 375.475 220.71 368.857 220.71 360.693C220.71 352.53 214.084 345.912 205.91 345.912C197.736 345.912 191.11 352.53 191.11 360.693C191.11 368.857 197.736 375.475 205.91 375.475Z" fill="#F9C9AB"/>
<path d="M308.99 215.018H282.79C279.322 215.018 276.51 217.826 276.51 221.29V230.798C276.51 234.262 279.322 237.07 282.79 237.07H308.99C312.458 237.07 315.27 234.262 315.27 230.798V221.29C315.27 217.826 312.458 215.018 308.99 215.018Z" fill="#812A39"/>
<path d="M200.53 339.151H194.11C193.016 339.151 192.13 340.036 192.13 341.128C192.13 342.22 193.016 343.106 194.11 343.106H200.53C201.624 343.106 202.51 342.22 202.51 341.128C202.51 340.036 201.624 339.151 200.53 339.151Z" fill="#EAB192"/>
<path d="M198.2 332.06H191.78C190.687 332.06 189.8 332.945 189.8 334.037C189.8 335.129 190.687 336.014 191.78 336.014H198.2C199.294 336.014 200.18 335.129 200.18 334.037C200.18 332.945 199.294 332.06 198.2 332.06Z" fill="#EAB192"/>
<path d="M197.26 324.958H190.84C189.746 324.958 188.86 325.844 188.86 326.936C188.86 328.028 189.746 328.913 190.84 328.913H197.26C198.354 328.913 199.24 328.028 199.24 326.936C199.24 325.844 198.354 324.958 197.26 324.958Z" fill="#EAB192"/>
<path d="M223.75 81.6766V73.8266C223.75 73.264 223.293 72.8079 222.73 72.8079C222.167 72.8079 221.71 73.264 221.71 73.8266V81.6766C221.71 82.2393 222.167 82.6953 222.73 82.6953C223.293 82.6953 223.75 82.2393 223.75 81.6766Z" fill="white"/>
<path d="M223.74 85.9412C223.74 85.3786 223.283 84.9225 222.72 84.9225C222.157 84.9225 221.7 85.3786 221.7 85.9412V87.7988C221.7 88.3615 222.157 88.8176 222.72 88.8176C223.283 88.8176 223.74 88.3615 223.74 87.7988V85.9412Z" fill="white"/>
<path d="M393.846 108.172L388.634 115.203L409.058 130.302L414.27 123.27L393.846 108.172Z" fill="#812A39"/>
<path d="M412.858 112.162L406.052 106.654L390.054 126.37L396.86 131.879L412.858 112.162Z" fill="#812A39"/>
<path d="M264.35 379.28C262.822 379.28 261.357 378.674 260.277 377.595C259.197 376.516 258.59 375.053 258.59 373.527V354.651H270.1V373.527C270.1 375.051 269.494 376.513 268.416 377.591C267.338 378.67 265.876 379.277 264.35 379.28ZM259.59 355.65V373.527C259.56 374.169 259.662 374.81 259.887 375.412C260.113 376.014 260.458 376.564 260.903 377.028C261.347 377.493 261.881 377.863 262.473 378.116C263.065 378.369 263.702 378.499 264.345 378.499C264.988 378.499 265.625 378.369 266.217 378.116C266.808 377.863 267.343 377.493 267.787 377.028C268.231 376.564 268.577 376.014 268.803 375.412C269.028 374.81 269.129 374.169 269.1 373.527V355.65H259.59Z" fill="#4F3E52"/>
<path d="M306.18 369.592H293.07C290.978 369.589 288.973 368.758 287.494 367.281C286.015 365.804 285.183 363.801 285.18 361.712V360.314H286.18V361.712C286.183 363.536 286.909 365.285 288.201 366.575C289.492 367.865 291.243 368.591 293.07 368.593H306.18V369.592Z" fill="#4F3E52"/>
<path d="M237.89 369.592H224.77V368.593H237.89C239.717 368.591 241.468 367.865 242.759 366.575C244.051 365.285 244.777 363.536 244.78 361.712V360.314H245.78V361.712C245.777 363.801 244.945 365.804 243.466 367.281C241.987 368.758 239.982 369.589 237.89 369.592Z" fill="#4F3E52"/>
<path d="M272.33 363.47H266.76C266.059 363.47 265.49 364.035 265.49 364.733C265.49 365.431 266.059 365.997 266.76 365.997H272.33C273.031 365.997 273.6 365.431 273.6 364.733C273.6 364.035 273.031 363.47 272.33 363.47Z" fill="#4F3E52"/>
<path d="M272.33 367.565H266.76C266.059 367.565 265.49 368.13 265.49 368.828C265.49 369.526 266.059 370.091 266.76 370.091H272.33C273.031 370.091 273.6 369.526 273.6 368.828C273.6 368.13 273.031 367.565 272.33 367.565Z" fill="#4F3E52"/>
<path d="M272.33 371.659H266.76C266.059 371.659 265.49 372.225 265.49 372.923C265.49 373.621 266.059 374.186 266.76 374.186H272.33C273.031 374.186 273.6 373.621 273.6 372.923C273.6 372.225 273.031 371.659 272.33 371.659Z" fill="#4F3E52"/>
<path d="M208 88.428C208.02 86.5635 208.629 84.7529 209.74 83.2546C210.52 82.0261 208.58 80.8975 207.8 82.116C206.477 83.9566 205.761 86.1625 205.75 88.428C205.81 89.8662 208.06 89.8762 208 88.428Z" fill="white"/>
<path d="M212.71 80.4481C212.941 80.1564 213.249 79.935 213.6 79.8089C213.885 79.7229 214.126 79.5308 214.273 79.2724C214.42 79.0141 214.462 78.7091 214.39 78.4207C214.304 78.1366 214.111 77.8969 213.852 77.7517C213.593 77.6064 213.288 77.567 213 77.6417C212.27 77.8668 211.616 78.2883 211.11 78.8601C210.907 79.075 210.795 79.359 210.795 79.6541C210.795 79.9492 210.907 80.2332 211.11 80.4481C211.215 80.5532 211.34 80.6366 211.477 80.6935C211.614 80.7504 211.761 80.7796 211.91 80.7796C212.059 80.7796 212.206 80.7504 212.343 80.6935C212.48 80.6366 212.605 80.5532 212.71 80.4481Z" fill="white"/>
<path d="M193.27 296.624L194.08 304.534C194.27 306.432 197.28 306.452 197.08 304.534L196.27 296.624C196.07 294.727 193.07 294.707 193.27 296.624Z" fill="white"/>
<path d="M194.55 309.878C194.668 310.252 194.716 310.645 194.69 311.036C194.69 311.433 194.848 311.814 195.129 312.095C195.411 312.376 195.792 312.534 196.19 312.534C196.585 312.524 196.96 312.363 197.239 312.084C197.519 311.805 197.68 311.43 197.69 311.036C197.711 310.361 197.627 309.687 197.44 309.039C197.325 308.666 197.069 308.354 196.727 308.167C196.384 307.98 195.983 307.933 195.607 308.037C195.231 308.141 194.91 308.387 194.713 308.723C194.515 309.06 194.457 309.459 194.55 309.838V309.878Z" fill="white"/>
<path d="M234.32 431.144V433.671C234.32 434.068 234.478 434.449 234.759 434.73C235.041 435.011 235.422 435.169 235.82 435.169C236.218 435.169 236.599 435.011 236.881 434.73C237.162 434.449 237.32 434.068 237.32 433.671V431.144C237.32 430.747 237.162 430.366 236.881 430.085C236.599 429.804 236.218 429.646 235.82 429.646C235.422 429.646 235.041 429.804 234.759 430.085C234.478 430.366 234.32 430.747 234.32 431.144Z" fill="white"/>
<path d="M239.85 34.9558C241.686 32.7758 243.98 31.0265 246.57 29.8322C248.32 29.0233 246.8 26.4365 245.06 27.2455C242.239 28.556 239.738 30.4646 237.73 32.8384C236.48 34.2966 238.6 36.4339 239.85 34.9558Z" fill="white"/>
<path d="M251 28.0545L252.9 27.3354C253.288 27.2341 253.62 26.9848 253.826 26.6412C254.032 26.2975 254.094 25.8869 254 25.4977C253.893 25.1145 253.638 24.7893 253.291 24.5928C252.945 24.3964 252.534 24.3447 252.15 24.4491L250.25 25.1682C249.873 25.2717 249.549 25.5158 249.346 25.8502C249.144 26.1846 249.077 26.5839 249.16 26.9659C249.209 27.1582 249.295 27.3389 249.414 27.4978C249.534 27.6566 249.683 27.7905 249.854 27.8916C250.025 27.9927 250.214 28.0592 250.411 28.0871C250.607 28.1151 250.808 28.104 251 28.0545Z" fill="white"/>
<path d="M220.2 123.344V132.972C220.2 133.369 220.358 133.75 220.639 134.031C220.921 134.312 221.302 134.47 221.7 134.47C222.098 134.47 222.479 134.312 222.761 134.031C223.042 133.75 223.2 133.369 223.2 132.972V123.344C223.2 122.946 223.042 122.565 222.761 122.284C222.479 122.004 222.098 121.846 221.7 121.846C221.302 121.846 220.921 122.004 220.639 122.284C220.358 122.565 220.2 122.946 220.2 123.344Z" fill="white"/>
<path d="M221.84 144.107C222.895 144.107 223.75 143.253 223.75 142.2C223.75 141.146 222.895 140.292 221.84 140.292C220.785 140.292 219.93 141.146 219.93 142.2C219.93 143.253 220.785 144.107 221.84 144.107Z" fill="white"/>
</svg>
