<svg width="392" height="1080" viewBox="0 0 392 1080" fill="none" xmlns="http://www.w3.org/2000/svg">
<path d="M305.231 0L325.389 22.56C345.547 45.24 385.862 90.36 390.979 135.36C396.251 180.36 366.17 225.24 335.002 270.24C303.68 315.24 271.117 360.36 269.877 405.36C268.481 450.36 298.563 495.24 318.411 540.24C338.259 585.24 348.183 630.36 342.755 675.36C337.328 720.36 316.55 765.24 323.373 810.24C330.041 855.24 364.154 900.36 377.799 945.36C391.6 990.36 384.777 1035.24 381.521 1057.56L378.109 1080H29.2228V1057.56C29.2228 1035.24 29.2228 990.36 29.2228 945.36C29.2228 900.36 29.2228 855.24 29.2228 810.24C29.2228 765.24 29.2228 720.36 29.2228 675.36C29.2228 630.36 29.2228 585.24 29.2228 540.24C29.2228 495.24 29.2228 450.36 29.2228 405.36C29.2228 360.36 29.2228 315.24 29.2228 270.24C29.2228 225.24 29.2228 180.36 29.2228 135.36C29.2228 90.36 29.2228 45.24 29.2228 22.56V0L305.231 0Z" fill="#103872"/>
<path d="M142.134 0L161.548 22.56C180.788 45.24 219.615 90.36 224.468 135.36C229.322 180.36 200.548 225.24 189.455 270.24C178.535 315.24 185.468 360.36 184.081 405.36C182.521 450.36 172.815 495.24 159.468 540.24C146.121 585.24 129.481 630.36 129.654 675.36C130.001 720.36 147.334 765.24 145.948 810.24C144.388 855.24 124.281 900.36 120.468 945.36C116.654 990.36 129.481 1035.24 135.721 1057.56L142.134 1080H3.57307e-05L3.57307e-05 1057.56C3.57307e-05 1035.24 3.57307e-05 990.36 3.57307e-05 945.36C3.57307e-05 900.36 3.57307e-05 855.24 3.57307e-05 810.24C3.57307e-05 765.24 3.57307e-05 720.36 3.57307e-05 675.36C3.57307e-05 630.36 3.57307e-05 585.24 3.57307e-05 540.24C3.57307e-05 495.24 3.57307e-05 450.36 3.57307e-05 405.36C3.57307e-05 360.36 3.57307e-05 315.24 3.57307e-05 270.24C3.57307e-05 225.24 3.57307e-05 180.36 3.57307e-05 135.36C3.57307e-05 90.36 3.57307e-05 45.24 3.57307e-05 22.56V0L142.134 0Z" fill="#812A39"/>
</svg>
