<svg width="1081" height="1911" viewBox="0 0 1081 1911" fill="none" xmlns="http://www.w3.org/2000/svg">
<rect x="1080" width="1591" height="1080" transform="rotate(90 1080 0)" fill="#812A39"/>
<path d="M1080.24 1824.5L1057.68 1844.65C1035 1864.81 989.88 1905.13 944.88 1910.24C899.88 1915.52 855 1885.43 810 1854.27C765 1822.95 719.88 1790.38 674.88 1789.14C629.88 1787.75 585 1817.83 540 1837.68C495 1857.52 449.88 1867.45 404.88 1862.02C359.88 1856.59 315 1835.82 270 1842.64C225 1849.31 179.88 1883.42 134.88 1897.06C89.8797 1910.86 44.9997 1904.04 22.6797 1900.79L0.239703 1897.37V1548.49H22.6797C44.9997 1548.49 89.8797 1548.49 134.88 1548.49C179.88 1548.49 225 1548.49 270 1548.49C315 1548.49 359.88 1548.49 404.88 1548.49C449.88 1548.49 495 1548.49 540 1548.49C585 1548.49 629.88 1548.49 674.88 1548.49C719.88 1548.49 765 1548.49 810 1548.49C855 1548.49 899.88 1548.49 944.88 1548.49C989.88 1548.49 1035 1548.49 1057.68 1548.49H1080.24V1824.5Z" fill="#103872"/>
<path d="M1080.24 1661.4L1057.68 1680.81C1035 1700.05 989.88 1738.88 944.88 1743.73C899.88 1748.59 855 1719.81 810 1708.72C765 1697.8 719.88 1704.73 674.88 1703.35C629.88 1701.79 585 1692.08 540 1678.73C495 1665.39 449.88 1648.75 404.88 1648.92C359.88 1649.27 315 1666.6 270 1665.21C225 1663.65 179.88 1643.55 134.88 1639.73C89.8797 1635.92 44.9997 1648.75 22.6797 1654.99L0.239703 1661.4V1519.26H22.6797C44.9997 1519.26 89.8797 1519.26 134.88 1519.26C179.88 1519.26 225 1519.26 270 1519.26C315 1519.26 359.88 1519.26 404.88 1519.26C449.88 1519.26 495 1519.26 540 1519.26C585 1519.26 629.88 1519.26 674.88 1519.26C719.88 1519.26 765 1519.26 810 1519.26C855 1519.26 899.88 1519.26 944.88 1519.26C989.88 1519.26 1035 1519.26 1057.68 1519.26H1080.24V1661.4Z" fill="#812A39"/>
</svg>
