<svg width="14" height="16" viewBox="0 0 14 16" fill="none" xmlns="http://www.w3.org/2000/svg">
<path d="M6.81287 10.5882C6.68686 10.7142 6.63237 10.8027 6.5881 10.9492C6.53702 11.1331 6.53702 11.1637 6.59151 11.4328C6.62216 11.5928 6.64259 11.7291 6.63578 11.7325C6.62897 11.7393 6.49274 11.7052 6.33608 11.6575C5.93421 11.5349 5.45742 11.5281 5.27692 11.6405C5.11685 11.7393 5.05214 11.838 4.98743 12.0935C4.94316 12.2706 4.93976 12.3353 4.97722 12.526C5.01809 12.7473 5.12026 12.9074 5.21902 12.9074C5.24286 12.9074 5.29395 12.8291 5.328 12.7303C5.41655 12.4783 5.57662 12.3285 5.75031 12.3285C5.83204 12.3285 5.9274 12.3591 5.99892 12.4068C6.33267 12.6316 6.28159 13.1356 5.87291 13.6567C5.43017 14.2186 4.76607 14.4808 3.7648 14.4876C3.21308 14.4911 2.91679 14.4025 2.69201 14.1743C2.46043 13.9325 2.38891 13.6022 2.51492 13.3502C2.65114 13.0777 2.93722 13.0947 3.26416 13.3978L3.37655 13.5034L3.51278 13.3502C3.71712 13.1118 3.79886 12.9244 3.79886 12.6792C3.79886 12.4987 3.78523 12.4545 3.69328 12.3421C3.54343 12.1548 3.2846 12.0696 3.03939 12.1241C2.8623 12.165 2.70223 12.2842 2.58644 12.4613L2.53535 12.543L2.22884 12.2501C1.78951 11.8346 1.71458 11.8006 1.21736 11.804C0.995988 11.8074 0.801864 11.821 0.784836 11.838C0.764402 11.8585 0.835921 11.9845 0.958525 12.1582C1.67372 13.156 2.12667 14.314 2.26971 15.5128C2.30377 15.775 2.33101 15.993 2.33442 15.9998C2.33782 16.0032 2.46383 15.9691 2.61028 15.9248C3.47532 15.6524 4.43912 15.4412 5.38249 15.322C6.23391 15.2131 7.61661 15.2131 8.51571 15.322C9.44546 15.4344 10.4025 15.6285 11.2743 15.884C11.4889 15.9453 11.6762 15.993 11.6864 15.9861C11.7 15.9793 11.7204 15.8465 11.7307 15.6933C11.8396 14.4332 12.3403 13.1492 13.1679 12.0185C13.2326 11.93 13.2837 11.8517 13.2837 11.838C13.2837 11.8278 13.0759 11.8176 12.8239 11.8176C12.2688 11.8176 12.2619 11.821 11.8431 12.2058C11.6762 12.3591 11.5297 12.4851 11.5127 12.4919C11.4957 12.4987 11.4105 12.4272 11.3186 12.3353C11.1108 12.1207 10.9337 12.0594 10.7022 12.1173C10.5217 12.165 10.4059 12.2399 10.3071 12.3761C10.2492 12.4511 10.2356 12.5192 10.2356 12.6963C10.239 12.9585 10.3037 13.1084 10.5182 13.3502L10.6511 13.5L10.8248 13.3433C11.0359 13.156 11.1858 13.1152 11.3594 13.2003C11.5842 13.3059 11.6387 13.5647 11.5127 13.9087C11.4207 14.1539 11.2471 14.3071 10.9474 14.4093C10.7396 14.4808 10.6545 14.4911 10.2356 14.4876C9.64639 14.4808 9.21047 14.3957 8.82903 14.2118C8.20239 13.9053 7.69494 13.1254 7.82776 12.6724C7.88566 12.4783 8.03892 12.3557 8.23645 12.3353C8.39311 12.3216 8.41354 12.3285 8.52252 12.4408C8.59064 12.509 8.66897 12.6384 8.70302 12.7337C8.73367 12.8291 8.77454 12.9074 8.79157 12.9074C9.01975 12.9074 9.15598 12.3489 9.01634 11.9811C8.94142 11.7835 8.73367 11.5928 8.56339 11.5588C8.33862 11.5179 7.90269 11.5656 7.65067 11.6609C7.52125 11.712 7.40887 11.7427 7.39865 11.7325C7.38843 11.7222 7.40206 11.5928 7.43271 11.443C7.49401 11.1262 7.47357 10.9696 7.34416 10.7482C7.26242 10.612 7.0683 10.4213 7.00359 10.4213C6.98997 10.4213 6.90483 10.4962 6.81287 10.5882Z" fill="#FF0000"/>
<path d="M9.50337 0.122205C8.71325 0.820368 8.27392 1.09282 7.15005 1.58324C4.88527 2.57429 4.72521 2.64921 4.34377 2.90464C3.8806 3.21796 3.49235 3.68113 3.49235 3.92634C3.49235 3.9604 3.4583 3.99786 3.41402 4.01489C3.30504 4.05576 2.87593 4.33502 2.63072 4.52233C1.70097 5.23071 1.71119 6.74964 2.64775 7.21622C2.95085 7.36947 3.11092 7.35245 3.17903 7.15492C3.20968 7.06978 3.19947 7.0255 3.11433 6.86543C3.04281 6.72921 3.01556 6.63385 3.02237 6.5453C3.03259 6.43291 3.04962 6.40907 3.20287 6.32734C3.30164 6.27285 3.45489 6.22857 3.5775 6.21495C4.05088 6.16387 4.44935 6.09575 4.73542 6.01061C4.9023 5.96293 5.04875 5.92888 5.06577 5.93228C5.0828 5.93909 4.93636 6.01061 4.74564 6.09235C4.20073 6.32734 3.91466 6.53508 3.71372 6.83478C3.62858 6.9642 3.62518 6.99144 3.66264 7.07999C3.72735 7.23665 3.84314 7.2673 4.15987 7.2026C4.30631 7.17195 4.43573 7.14129 4.44935 7.13448C4.45957 7.12767 4.70818 7.06637 5.00447 7.00166C5.29736 6.93355 5.60728 6.84841 5.69582 6.81094C5.89676 6.7224 5.98531 6.7258 6.07385 6.82116C6.16921 6.91993 6.17262 7.10724 6.08407 7.28433C5.95125 7.53976 5.74691 7.77475 4.78992 8.75899C4.35399 9.20513 4.23479 9.35839 4.08154 9.65468C4.03386 9.74663 3.94871 9.87605 3.89763 9.93735C3.68648 10.1792 3.52641 10.6525 3.52641 11.0408C3.52641 11.1566 3.50257 11.2043 3.36634 11.3541C3.2812 11.4495 3.14838 11.6198 3.07686 11.7321L2.94404 11.9365L3.23012 11.9535C3.56387 11.9739 3.73756 12.0625 3.89082 12.3009C3.97255 12.4235 3.98618 12.4746 3.98277 12.6823C3.98277 12.8833 3.96234 12.9582 3.8772 13.1285C3.74778 13.3737 3.47533 13.6904 3.39359 13.6904C3.36294 13.6904 3.2812 13.6359 3.2165 13.5678C3.0973 13.4418 2.88615 13.3158 2.7976 13.3158C2.69543 13.3158 2.63072 13.4724 2.64775 13.6734C2.68862 14.174 3.20287 14.3886 4.14624 14.3034C4.82397 14.2421 5.26671 14.065 5.60387 13.7211C5.93422 13.3805 6.11132 13.0127 6.06023 12.7504C6.01596 12.5188 5.7401 12.4167 5.61068 12.5836C5.57322 12.6278 5.51192 12.7743 5.46764 12.9071C5.42678 13.0365 5.3825 13.1455 5.36888 13.1455C5.28374 13.1421 4.96701 12.9412 4.91933 12.856C4.7831 12.6244 4.77289 12.1442 4.8989 11.8445C5.06918 11.4358 5.563 11.2826 6.17943 11.4427L6.43145 11.5074L6.40761 11.3235C6.38036 11.0783 6.43826 10.8296 6.56768 10.6355C6.69369 10.4516 6.93889 10.2507 7.04106 10.2507C7.14323 10.2507 7.38163 10.4584 7.51445 10.6662C7.62343 10.8364 7.63025 10.8603 7.63025 11.16C7.63025 11.3337 7.64046 11.4767 7.65409 11.4767C7.66771 11.4767 7.76647 11.4529 7.87545 11.4256C8.12747 11.3609 8.51913 11.3609 8.70644 11.4256C9.09809 11.5653 9.31265 12.0046 9.24113 12.5052C9.19345 12.8083 9.08106 12.9888 8.89034 13.0604C8.80861 13.0944 8.72006 13.1114 8.69622 13.1012C8.66898 13.0944 8.6213 12.9922 8.58724 12.8799C8.47826 12.5086 8.28413 12.3997 8.08661 12.5972C8.00828 12.6789 7.98784 12.7266 7.98784 12.8492C7.98784 13.1761 8.37949 13.7415 8.76433 13.9731C9.19004 14.2319 9.97335 14.3749 10.5796 14.3068C10.9372 14.266 11.1245 14.1944 11.2539 14.0446C11.4684 13.8028 11.4821 13.3805 11.2777 13.3294C11.1619 13.3022 11.0632 13.3601 10.8793 13.561L10.7192 13.7347L10.583 13.6257C10.2867 13.3941 10.0653 12.982 10.0653 12.6755C10.0687 12.3724 10.2765 12.0795 10.5591 11.9876C10.6817 11.9467 11.1006 11.9569 11.2437 12.0046C11.305 12.0216 11.3254 11.9944 11.4174 11.7934C11.6592 11.2656 11.7136 10.9488 11.6932 10.2473L11.6762 9.72279L11.7409 9.86924C11.8737 10.1689 11.9112 10.4686 11.8941 11.0783C11.8873 11.3916 11.8839 11.6436 11.8873 11.6402C11.9112 11.6129 12.1189 10.942 12.1836 10.6764C12.2449 10.4176 12.2586 10.2711 12.262 9.75685C12.262 9.05528 12.2177 8.84072 11.9691 8.38436L11.8328 8.13916H12.0304C12.1496 8.13916 12.2858 8.11191 12.3709 8.07445C12.514 8.00633 12.8239 7.7475 12.8239 7.69301C12.8239 7.67598 12.6979 7.67258 12.5446 7.6828C12.1734 7.71004 12.0236 7.66577 11.8022 7.46824C11.5127 7.206 10.7532 6.28306 10.7941 6.2422C10.8111 6.22517 11.2675 6.63725 11.3935 6.78029C11.4037 6.79392 11.4855 6.84841 11.5774 6.9063C11.7647 7.0255 12.0746 7.10383 12.1632 7.05615C12.2109 7.02891 12.1973 7.00847 12.0712 6.91993C11.8805 6.79051 11.6694 6.56233 11.5536 6.3648C11.4718 6.22517 11.322 5.89141 11.0359 5.20006L10.9406 4.96848L10.7839 4.98891L10.6272 5.00934L10.726 4.93101C11.0768 4.65856 11.2062 4.48828 11.2471 4.23626C11.2675 4.11025 11.2266 4.083 11.1517 4.17836C11.0189 4.33502 10.6749 4.36908 10.4365 4.24647C10.2492 4.15111 9.89502 3.89228 9.89502 3.84801C9.89502 3.81395 10.0517 3.86504 10.3412 3.99445C10.5762 4.10003 10.7805 4.1443 10.7805 4.08981C10.7805 4.06938 10.7362 3.97061 10.6817 3.87185C10.6238 3.77649 10.5251 3.55853 10.4604 3.39165C10.2458 2.85696 9.99038 2.5232 9.62597 2.29843L9.47612 2.20648L9.49996 1.8625C9.56807 0.844207 9.56467 0.864641 9.51358 0.919132C9.48634 0.946377 9.42844 1.10644 9.38417 1.27673C9.23772 1.84547 9.0436 2.12815 8.686 2.29502C8.52594 2.36995 7.6643 2.54704 7.62684 2.51299C7.62003 2.50277 7.79712 2.38357 8.0219 2.25075C8.43058 2.00554 8.78136 1.74671 8.8665 1.62751C8.921 1.55259 8.98911 1.54578 8.96186 1.6207C8.95165 1.65135 8.93121 1.71606 8.91759 1.76374L8.89716 1.85569L8.97549 1.78758C9.09128 1.68541 9.13555 1.57643 9.19004 1.25629C9.21729 1.09623 9.27859 0.888481 9.32286 0.796528C9.37054 0.704574 9.47271 0.503641 9.55104 0.350385C9.74857 -0.0412668 9.73836 -0.0855405 9.50337 0.122205ZM5.4438 3.9025C5.53235 3.93315 5.60387 3.97743 5.60387 4.00467C5.60387 4.10003 5.38591 4.29075 5.25309 4.31459C5.11005 4.33502 4.82057 4.24307 4.82057 4.17495C4.82057 4.11706 5.06237 3.89228 5.14411 3.87185C5.2599 3.8446 5.28033 3.84801 5.4438 3.9025ZM4.01683 4.27712C4.34377 4.36227 4.54471 4.47806 4.82057 4.75051C5.09643 5.02297 5.24287 5.10811 5.7435 5.28861C6.46551 5.55085 6.56086 5.65302 6.38718 5.99018C6.21349 6.33074 5.68561 6.61001 4.87165 6.79051C4.57195 6.85522 4.2382 6.93355 4.12922 6.95739C4.02364 6.98463 3.92828 6.99485 3.92147 6.98463C3.89422 6.94377 4.18371 6.6645 4.38805 6.53508C4.49703 6.46357 4.69456 6.3648 4.83078 6.31372C5.27352 6.14684 5.75372 5.90163 5.85589 5.79605L5.95125 5.69388L5.84908 5.63939C5.64133 5.53041 5.51192 5.53722 4.99085 5.68707C4.37102 5.86417 4.14624 5.91185 3.69669 5.95953C3.26417 6.0038 2.96107 6.12981 2.84868 6.31372C2.74992 6.47038 2.75673 6.69175 2.8589 6.88927C2.90658 6.97442 2.93382 7.05275 2.92361 7.06296C2.88955 7.09361 2.59326 6.92333 2.48087 6.80413C2.17777 6.48741 2.09943 5.86757 2.29696 5.3431C2.42979 4.99572 2.64775 4.77435 3.23352 4.39632C3.53663 4.19879 3.64902 4.18177 4.01683 4.27712ZM9.40801 6.46016C9.19004 6.68153 8.95846 6.93355 8.89034 7.0221C8.82223 7.11405 8.76093 7.18557 8.75071 7.18557C8.72006 7.18557 8.77115 7.04594 8.88013 6.83138C8.93462 6.7224 8.96867 6.62363 8.95846 6.61342C8.94824 6.6032 8.88013 6.64407 8.8018 6.70537C8.72687 6.76667 8.65876 6.81094 8.64854 6.80073C8.62811 6.78029 8.84948 6.51124 8.96867 6.40907C9.18323 6.22517 9.5272 6.07191 9.73836 6.0651C9.78604 6.0617 9.68046 6.18771 9.40801 6.46016ZM9.78944 7.00507C9.57488 7.22644 9.33649 7.48186 9.25816 7.57722L9.11512 7.7475L9.1662 7.59765C9.19345 7.51251 9.25135 7.37969 9.29902 7.29796C9.3433 7.21622 9.37054 7.15151 9.36373 7.15151C9.32627 7.15151 9.19345 7.23325 9.12193 7.29796C9.01295 7.39672 9.02317 7.31498 9.13896 7.17876C9.35011 6.92674 9.55786 6.77348 9.84393 6.67131C10.2186 6.53508 10.2117 6.57255 9.78944 7.00507ZM10.5148 7.24006C10.5285 7.25028 10.4093 7.37969 10.2594 7.52614C10.1062 7.67258 9.87458 7.92119 9.74176 8.08126C9.61235 8.24133 9.49996 8.36052 9.49315 8.3435C9.48634 8.32647 9.53742 8.19705 9.60213 8.05742C9.66684 7.91438 9.71111 7.79859 9.69749 7.79859C9.68387 7.79859 9.61575 7.83605 9.54423 7.88373C9.38417 7.99612 9.38076 7.94163 9.54083 7.76453C9.73155 7.55679 9.99038 7.37969 10.2356 7.29796C10.4808 7.21281 10.4876 7.21281 10.5148 7.24006Z" fill="#FF0000"/>
</svg>
